M48
; DRILL file {KiCad (5.1.8)-1} date 05/16/21 23:20:13
; FORMAT={-:-/ absolute / inch / decimal}
; #@! TF.CreationDate,2021-05-16T23:20:13+02:00
; #@! TF.GenerationSoftware,Kicad,Pcbnew,(5.1.8)-1
; #@! TF.FileFunction,Plated,1,2,PTH
FMAT,2
INCH
T1C0.0157
T2C0.0315
T3C0.0394
T4C0.0423
T5C0.0512
%
G90
G05
T1
X4.2409Y-2.7787
X4.2827Y-3.324
X4.3413Y-3.3299
X4.3888Y-3.4222
X4.5815Y-3.3252
X4.5935Y-3.8533
X4.6094Y-2.9098
X4.6508Y-3.3992
X4.7923Y-4.8809
X4.8102Y-3.0402
X4.8142Y-3.3272
X4.9858Y-3.1453
X5.249Y-4.2323
X5.2638Y-3.8711
X5.2677Y-3.7343
X5.2736Y-3.3937
X5.2815Y-4.0502
X5.3609Y-3.9807
X5.3668Y-3.9371
X5.3996Y-4.1516
X5.4026Y-3.8711
X5.4085Y-3.9291
X5.4201Y-3.0512
X5.4488Y-4.1102
X5.4931Y-4.0354
X5.5079Y-4.2323
X5.5561Y-3.4479
X5.5935Y-3.8376
X5.6167Y-4.2053
X5.6551Y-4.1669
X5.6575Y-3.8337
X5.6585Y-3.9242
X5.7066Y-3.8385
X5.7116Y-3.7884
X5.752Y-3.999
X5.7569Y-4.4695
X5.7598Y-4.1053
X5.7904Y-4.2185
X5.8019Y-3.8826
X5.8445Y-4.3642
X5.8546Y-3.83
X5.8927Y-4.5295
X5.9341Y-3.6063
X6.0354Y-3.8937
X6.0581Y-4.2805
X6.0778Y-3.0079
X6.0906Y-3.4016
X6.1132Y-4.5797
X6.1181Y-4.7254
X6.3061Y-2.9882
X6.3061Y-3.3839
X6.3061Y-3.8829
X6.3061Y-4.2795
X6.3061Y-4.6703
T2
X4.9744Y-4.4862
X4.9744Y-4.5846
T3
X5.6815Y-3.5004
X5.6815Y-3.6004
X5.6815Y-3.7004
X5.7815Y-3.5004
X5.7815Y-3.6004
X5.7815Y-3.7004
X4.3445Y-4.1142
X4.5413Y-4.1142
X4.1791Y-3.7508
X4.1791Y-3.8508
X4.1791Y-3.9508
T4
X5.4016Y-3.4421
X5.4016Y-3.5421
X5.4016Y-3.6421
X5.4016Y-3.7421
T5
X5.311Y-4.4921
X5.311Y-4.6102
X6.811Y-3.7795
X6.811Y-3.9764
X6.811Y-4.1732
X6.811Y-4.3701
X6.811Y-4.5669
X6.811Y-4.7638
X3.8701Y-2.4921
X3.8701Y-2.689
X3.8701Y-2.8858
X3.8701Y-3.0827
X3.8701Y-3.2795
X3.8701Y-3.4764
X3.8701Y-3.7795
X3.8701Y-3.9764
X3.8701Y-4.1732
X3.8701Y-4.3701
X3.8701Y-4.5669
X3.8701Y-4.7638
X6.811Y-2.4921
X6.811Y-2.689
X6.811Y-2.8858
X6.811Y-3.0827
X6.811Y-3.2795
X6.811Y-3.4764
T0
M30
