%TF.GenerationSoftware,KiCad,Pcbnew,(5.1.8)-1*%
%TF.CreationDate,2021-05-16T23:23:04+02:00*%
%TF.ProjectId,Modbus,4d6f6462-7573-42e6-9b69-6361645f7063,rev?*%
%TF.SameCoordinates,Original*%
%TF.FileFunction,Copper,L2,Bot*%
%TF.FilePolarity,Positive*%
%FSLAX46Y46*%
G04 Gerber Fmt 4.6, Leading zero omitted, Abs format (unit mm)*
G04 Created by KiCad (PCBNEW (5.1.8)-1) date 2021-05-16 23:23:04*
%MOMM*%
%LPD*%
G01*
G04 APERTURE LIST*
%TA.AperFunction,ComponentPad*%
%ADD10R,2.000000X2.000000*%
%TD*%
%TA.AperFunction,ComponentPad*%
%ADD11C,2.000000*%
%TD*%
%TA.AperFunction,ComponentPad*%
%ADD12R,1.600000X1.600000*%
%TD*%
%TA.AperFunction,ComponentPad*%
%ADD13C,1.600000*%
%TD*%
%TA.AperFunction,ComponentPad*%
%ADD14C,2.600000*%
%TD*%
%TA.AperFunction,ComponentPad*%
%ADD15R,2.600000X2.600000*%
%TD*%
%TA.AperFunction,ComponentPad*%
%ADD16R,1.700000X1.700000*%
%TD*%
%TA.AperFunction,ComponentPad*%
%ADD17O,1.700000X1.700000*%
%TD*%
%TA.AperFunction,ComponentPad*%
%ADD18O,2.250000X1.750000*%
%TD*%
%TA.AperFunction,ComponentPad*%
%ADD19R,2.250000X1.750000*%
%TD*%
%TA.AperFunction,ViaPad*%
%ADD20C,0.800000*%
%TD*%
%TA.AperFunction,Conductor*%
%ADD21C,0.750000*%
%TD*%
%TA.AperFunction,Conductor*%
%ADD22C,0.500000*%
%TD*%
%TA.AperFunction,Conductor*%
%ADD23C,0.250000*%
%TD*%
%TA.AperFunction,Conductor*%
%ADD24C,0.254000*%
%TD*%
%TA.AperFunction,Conductor*%
%ADD25C,0.100000*%
%TD*%
G04 APERTURE END LIST*
D10*
%TO.P,C7,1*%
%TO.N,+12V*%
X110350000Y-104500000D03*
D11*
%TO.P,C7,2*%
%TO.N,GND*%
X115350000Y-104500000D03*
%TD*%
D12*
%TO.P,C8,1*%
%TO.N,+5V*%
X126350000Y-113950000D03*
D13*
%TO.P,C8,2*%
%TO.N,GND*%
X126350000Y-116450000D03*
%TD*%
D14*
%TO.P,J1,6*%
%TO.N,/SW3_IN*%
X173000000Y-96000000D03*
%TO.P,J1,5*%
%TO.N,/SW3_OUT*%
X173000000Y-101000000D03*
%TO.P,J1,4*%
%TO.N,/SW2_IN*%
X173000000Y-106000000D03*
%TO.P,J1,3*%
%TO.N,/SW2_OUT*%
X173000000Y-111000000D03*
%TO.P,J1,2*%
%TO.N,/SW1_IN*%
X173000000Y-116000000D03*
D15*
%TO.P,J1,1*%
%TO.N,/SW1_OUT*%
X173000000Y-121000000D03*
%TD*%
%TO.P,J2,1*%
%TO.N,/SW4_OUT*%
X173000000Y-88300000D03*
D14*
%TO.P,J2,2*%
%TO.N,/SW4_IN*%
X173000000Y-83300000D03*
%TO.P,J2,3*%
%TO.N,/SW5_OUT*%
X173000000Y-78300000D03*
%TO.P,J2,4*%
%TO.N,/SW5_IN*%
X173000000Y-73300000D03*
%TO.P,J2,5*%
%TO.N,/Sensor1*%
X173000000Y-68300000D03*
%TO.P,J2,6*%
%TO.N,/Sensor2*%
X173000000Y-63300000D03*
%TD*%
%TO.P,J3,6*%
%TO.N,+5V*%
X98300000Y-96000000D03*
%TO.P,J3,5*%
%TO.N,GND*%
X98300000Y-101000000D03*
%TO.P,J3,4*%
%TO.N,+12V*%
X98300000Y-106000000D03*
%TO.P,J3,3*%
%TO.N,+5V*%
X98300000Y-111000000D03*
%TO.P,J3,2*%
%TO.N,GND*%
X98300000Y-116000000D03*
D15*
%TO.P,J3,1*%
%TO.N,+12V*%
X98300000Y-121000000D03*
%TD*%
D16*
%TO.P,ICSP,1*%
%TO.N,/Arduino/MISO*%
X144310000Y-88910000D03*
D17*
%TO.P,ICSP,2*%
%TO.N,+5V*%
X146850000Y-88910000D03*
%TO.P,ICSP,3*%
%TO.N,/Arduino/SCK*%
X144310000Y-91450000D03*
%TO.P,ICSP,4*%
%TO.N,/Arduino/MOSI*%
X146850000Y-91450000D03*
%TO.P,ICSP,5*%
%TO.N,/Arduino/RST*%
X144310000Y-93990000D03*
%TO.P,ICSP,6*%
%TO.N,GND*%
X146850000Y-93990000D03*
%TD*%
D16*
%TO.P,J5,1*%
%TO.N,/Arduino/RX*%
X106150000Y-95270000D03*
D17*
%TO.P,J5,2*%
%TO.N,/Arduino/TX*%
X106150000Y-97810000D03*
%TO.P,J5,3*%
%TO.N,GND*%
X106150000Y-100350000D03*
%TD*%
D15*
%TO.P,J6,1*%
%TO.N,/MB_A*%
X98300000Y-88300000D03*
D14*
%TO.P,J6,2*%
%TO.N,/MB_B*%
X98300000Y-83300000D03*
%TO.P,J6,3*%
%TO.N,GND2*%
X98300000Y-78300000D03*
%TO.P,J6,4*%
%TO.N,/MB_A*%
X98300000Y-73300000D03*
%TO.P,J6,5*%
%TO.N,/MB_B*%
X98300000Y-68300000D03*
%TO.P,J6,6*%
%TO.N,GND2*%
X98300000Y-63300000D03*
%TD*%
%TO.P,L1,1*%
%TO.N,Net-(D2-Pad1)*%
X134900000Y-117100000D03*
%TO.P,L1,2*%
%TO.N,+5V*%
X134900000Y-114100000D03*
%TD*%
D18*
%TO.P,PS1,4*%
%TO.N,+5VL*%
X137200000Y-87430000D03*
%TO.P,PS1,3*%
%TO.N,GND2*%
X137200000Y-89970000D03*
%TO.P,PS1,2*%
%TO.N,+5V*%
X137200000Y-92510000D03*
D19*
%TO.P,PS1,1*%
%TO.N,GND*%
X137200000Y-95050000D03*
%TD*%
D20*
%TO.N,+5V*%
X126640000Y-79890000D03*
X117080000Y-73910000D03*
X110270000Y-84580000D03*
X139900000Y-107500000D03*
X133800000Y-94850000D03*
X141124979Y-87577439D03*
%TO.N,GND*%
X116370000Y-84460000D03*
X133700000Y-98325000D03*
X155275000Y-116325000D03*
X153300000Y-98900000D03*
X154700000Y-86400000D03*
X154375000Y-76400000D03*
X133325000Y-107500000D03*
X153875000Y-108725000D03*
%TO.N,GND2*%
X107720000Y-70578063D03*
X122280000Y-84510000D03*
X122180000Y-77220000D03*
X108780000Y-84430000D03*
%TO.N,+12V*%
X121725000Y-123975000D03*
X160175000Y-75900000D03*
X160175000Y-85950000D03*
X160175000Y-98625000D03*
X160175000Y-108700000D03*
X160175000Y-118625000D03*
%TO.N,/Arduino/SCK*%
X145075000Y-96225000D03*
X146100000Y-101575000D03*
X148450000Y-110850000D03*
X146300000Y-104275000D03*
%TO.N,/Sensor1*%
X143700000Y-97375000D03*
X139525000Y-102500000D03*
%TO.N,/Sensor2*%
X142075000Y-97475000D03*
X138400000Y-104400000D03*
%TO.N,/Arduino/MISO*%
X147368365Y-98618365D03*
%TO.N,/Arduino/MOSI*%
X148705865Y-97280865D03*
%TO.N,/Arduino/RST*%
X137375000Y-99800000D03*
%TO.N,/Arduino/RX*%
X118130000Y-86340000D03*
X136167479Y-101109772D03*
X111475000Y-86925000D03*
%TO.N,/Arduino/TX*%
X137670000Y-77500000D03*
X136316040Y-100003455D03*
X134150000Y-102875000D03*
X116675000Y-97875000D03*
%TO.N,/Arduino/DE*%
X133950000Y-86200000D03*
X137225000Y-98325000D03*
%TO.N,/12V Wandler/SW3_5V_IN*%
X147075000Y-107150000D03*
X142665262Y-106815261D03*
%TO.N,/12V Wandler/SW1_5V_IN*%
X149675000Y-115050000D03*
X137150000Y-105450010D03*
%TO.N,/12V Wandler/SW1_5V_OUT*%
X155400000Y-120025000D03*
X146225000Y-113525000D03*
%TO.N,/12V Wandler/SW5_5V_OUT*%
X143640262Y-105840262D03*
X150725000Y-91600000D03*
%TO.N,/12V Wandler/SW5_5V_IN*%
X143725000Y-99675000D03*
X144947407Y-97497407D03*
%TD*%
D21*
%TO.N,+5V*%
X120660000Y-73910000D02*
X117080000Y-73910000D01*
X126640000Y-79890000D02*
X120660000Y-73910000D01*
X117080000Y-77770000D02*
X110270000Y-84580000D01*
X117080000Y-73910000D02*
X117080000Y-77770000D01*
X126640000Y-83825000D02*
X126640000Y-79890000D01*
X137200000Y-92510000D02*
X135325000Y-92510000D01*
X135325000Y-92510000D02*
X126640000Y-83825000D01*
D22*
X139900000Y-109100000D02*
X139900000Y-107500000D01*
X134900000Y-114100000D02*
X139900000Y-109100000D01*
X146850000Y-88910000D02*
X145517439Y-87577439D01*
X145517439Y-87577439D02*
X141124979Y-87577439D01*
X134900000Y-114100000D02*
X136199999Y-112800001D01*
X136199999Y-103666997D02*
X134900000Y-102366998D01*
X136199999Y-112800001D02*
X136199999Y-103666997D01*
X134900000Y-102366998D02*
X134900000Y-95950000D01*
X134900000Y-95950000D02*
X133800000Y-94850000D01*
X100050001Y-97750001D02*
X98300000Y-96000000D01*
X100050001Y-109249999D02*
X100050001Y-97750001D01*
X98300000Y-111000000D02*
X100050001Y-109249999D01*
D23*
%TO.N,GND*%
X115350000Y-85480000D02*
X115350000Y-104500000D01*
X116370000Y-84460000D02*
X115350000Y-85480000D01*
D21*
%TO.N,+12V*%
X121725000Y-123975000D02*
X157875000Y-123975000D01*
X157875000Y-123975000D02*
X160175000Y-121675000D01*
X160175000Y-85950000D02*
X160175000Y-75900000D01*
X160175000Y-98625000D02*
X160175000Y-85950000D01*
X160175000Y-108700000D02*
X160175000Y-98625000D01*
X160175000Y-118625000D02*
X160175000Y-108700000D01*
X160175000Y-121675000D02*
X160175000Y-118625000D01*
D23*
%TO.N,/Arduino/SCK*%
X146100000Y-97250000D02*
X146100000Y-101575000D01*
X145075000Y-96225000D02*
X146100000Y-97250000D01*
X146300000Y-105301998D02*
X146300000Y-104275000D01*
X148450000Y-110850000D02*
X148450000Y-107451998D01*
X148450000Y-107451998D02*
X146300000Y-105301998D01*
%TO.N,/Sensor1*%
X143700000Y-97375000D02*
X143700000Y-98325000D01*
X143700000Y-98325000D02*
X139525000Y-102500000D01*
%TO.N,/Sensor2*%
X142075000Y-97475000D02*
X138800000Y-100750000D01*
X138800000Y-100750000D02*
X138800000Y-103875000D01*
X138800000Y-104000000D02*
X138400000Y-104400000D01*
X138800000Y-103875000D02*
X138800000Y-104000000D01*
%TO.N,/Arduino/MISO*%
X147368365Y-97445363D02*
X147368365Y-98618365D01*
X145674999Y-95751997D02*
X147368365Y-97445363D01*
X145674999Y-90274999D02*
X145674999Y-95751997D01*
X144310000Y-88910000D02*
X145674999Y-90274999D01*
%TO.N,/Arduino/MOSI*%
X146850000Y-91450000D02*
X148705865Y-93305865D01*
X148705865Y-93305865D02*
X148705865Y-97280865D01*
%TO.N,/Arduino/RST*%
X138500000Y-99800000D02*
X144310000Y-93990000D01*
X137375000Y-99800000D02*
X138500000Y-99800000D01*
%TO.N,/Arduino/RX*%
X118130000Y-86340000D02*
X126363004Y-86340000D01*
X126363004Y-86340000D02*
X135475011Y-95452007D01*
X135475011Y-95452007D02*
X135475011Y-100417304D01*
X135475011Y-100417304D02*
X136167479Y-101109772D01*
X106150000Y-92250000D02*
X106150000Y-95270000D01*
X111475000Y-86925000D02*
X106150000Y-92250000D01*
%TO.N,/Arduino/TX*%
X136678811Y-99074999D02*
X136316040Y-99437770D01*
X137673001Y-99074999D02*
X136678811Y-99074999D01*
X140390000Y-96358000D02*
X137673001Y-99074999D01*
X136316040Y-99437770D02*
X136316040Y-100003455D01*
X137670000Y-77500000D02*
X140390000Y-80220000D01*
X140390000Y-80220000D02*
X140390000Y-96358000D01*
X129150000Y-97875000D02*
X116675000Y-97875000D01*
X134150000Y-102875000D02*
X129150000Y-97875000D01*
%TO.N,/MB_A*%
X99925001Y-86674999D02*
X98300000Y-88300000D01*
X99925001Y-82519999D02*
X99925001Y-86674999D01*
X96674999Y-79269997D02*
X99925001Y-82519999D01*
X98300000Y-73300000D02*
X96674999Y-74925001D01*
X96674999Y-74925001D02*
X96674999Y-79269997D01*
%TO.N,/MB_B*%
X96224988Y-81224988D02*
X98300000Y-83300000D01*
X98300000Y-68300000D02*
X96224988Y-70375012D01*
X96224988Y-70375012D02*
X96224988Y-81224988D01*
%TO.N,/Arduino/DE*%
X138650001Y-96899999D02*
X137225000Y-98325000D01*
X138650001Y-92012931D02*
X138650001Y-96899999D01*
X136452940Y-91170010D02*
X137807080Y-91170010D01*
X133950000Y-88667070D02*
X136452940Y-91170010D01*
X137807080Y-91170010D02*
X138650001Y-92012931D01*
X133950000Y-86200000D02*
X133950000Y-88667070D01*
%TO.N,/12V Wandler/SW3_5V_IN*%
X147075000Y-107150000D02*
X143000001Y-107150000D01*
X143000001Y-107150000D02*
X142665262Y-106815261D01*
%TO.N,/12V Wandler/SW1_5V_IN*%
X149675000Y-115050000D02*
X140075010Y-105450010D01*
X140075010Y-105450010D02*
X137150000Y-105450010D01*
%TO.N,/12V Wandler/SW1_5V_OUT*%
X152725000Y-120025000D02*
X146225000Y-113525000D01*
X155400000Y-120025000D02*
X152725000Y-120025000D01*
%TO.N,/12V Wandler/SW5_5V_OUT*%
X143640262Y-105840262D02*
X150725000Y-98755524D01*
X150725000Y-98755524D02*
X150725000Y-91600000D01*
%TO.N,/12V Wandler/SW5_5V_IN*%
X144947407Y-98452593D02*
X144947407Y-97497407D01*
X143725000Y-99675000D02*
X144947407Y-98452593D01*
%TD*%
D24*
%TO.N,GND2*%
X138723000Y-77478199D02*
X138705000Y-77460199D01*
X138705000Y-77398061D01*
X138665226Y-77198102D01*
X138587205Y-77009744D01*
X138473937Y-76840226D01*
X138329774Y-76696063D01*
X138160256Y-76582795D01*
X137971898Y-76504774D01*
X137771939Y-76465000D01*
X137568061Y-76465000D01*
X137368102Y-76504774D01*
X137179744Y-76582795D01*
X137010226Y-76696063D01*
X136866063Y-76840226D01*
X136752795Y-77009744D01*
X136674774Y-77198102D01*
X136635000Y-77398061D01*
X136635000Y-77601939D01*
X136674774Y-77801898D01*
X136752795Y-77990256D01*
X136866063Y-78159774D01*
X137010226Y-78303937D01*
X137179744Y-78417205D01*
X137368102Y-78495226D01*
X137568061Y-78535000D01*
X137630199Y-78535000D01*
X138723000Y-79627801D01*
X138723000Y-86608369D01*
X138711594Y-86587030D01*
X138522897Y-86357103D01*
X138292970Y-86168406D01*
X138030648Y-86028192D01*
X137746012Y-85941849D01*
X137524178Y-85920000D01*
X136875822Y-85920000D01*
X136653988Y-85941849D01*
X136369352Y-86028192D01*
X136107030Y-86168406D01*
X135877103Y-86357103D01*
X135688406Y-86587030D01*
X135548192Y-86849352D01*
X135461849Y-87133988D01*
X135432694Y-87430000D01*
X135461849Y-87726012D01*
X135548192Y-88010648D01*
X135688406Y-88272970D01*
X135877103Y-88502897D01*
X136107030Y-88691594D01*
X136125548Y-88701492D01*
X136011831Y-88773893D01*
X135796509Y-88979904D01*
X135625515Y-89223963D01*
X135612118Y-89254387D01*
X134710000Y-88352269D01*
X134710000Y-86903711D01*
X134753937Y-86859774D01*
X134867205Y-86690256D01*
X134945226Y-86501898D01*
X134985000Y-86301939D01*
X134985000Y-86098061D01*
X134945226Y-85898102D01*
X134867205Y-85709744D01*
X134753937Y-85540226D01*
X134609774Y-85396063D01*
X134440256Y-85282795D01*
X134251898Y-85204774D01*
X134051939Y-85165000D01*
X133848061Y-85165000D01*
X133648102Y-85204774D01*
X133459744Y-85282795D01*
X133290226Y-85396063D01*
X133146063Y-85540226D01*
X133032795Y-85709744D01*
X132954774Y-85898102D01*
X132915000Y-86098061D01*
X132915000Y-86301939D01*
X132954774Y-86501898D01*
X133032795Y-86690256D01*
X133146063Y-86859774D01*
X133190000Y-86903711D01*
X133190001Y-88629738D01*
X133186324Y-88667070D01*
X133200998Y-88816055D01*
X133244454Y-88959316D01*
X133292432Y-89049077D01*
X127650000Y-83406645D01*
X127650000Y-80117623D01*
X127675000Y-79991939D01*
X127675000Y-79788061D01*
X127635226Y-79588102D01*
X127557205Y-79399744D01*
X127443937Y-79230226D01*
X127299774Y-79086063D01*
X127193223Y-79014868D01*
X121409261Y-73230906D01*
X121377633Y-73192367D01*
X121223840Y-73066153D01*
X121048380Y-72972368D01*
X120857994Y-72914615D01*
X120709608Y-72900000D01*
X120660000Y-72895114D01*
X120610392Y-72900000D01*
X117307623Y-72900000D01*
X117181939Y-72875000D01*
X116978061Y-72875000D01*
X116778102Y-72914774D01*
X116589744Y-72992795D01*
X116420226Y-73106063D01*
X116276063Y-73250226D01*
X116162795Y-73419744D01*
X116084774Y-73608102D01*
X116045000Y-73808061D01*
X116045000Y-74011939D01*
X116070000Y-74137624D01*
X116070001Y-77351644D01*
X109716777Y-83704868D01*
X109610226Y-83776063D01*
X109466063Y-83920226D01*
X109352795Y-84089744D01*
X109274774Y-84278102D01*
X109235000Y-84478061D01*
X109235000Y-84681939D01*
X109274774Y-84881898D01*
X109352795Y-85070256D01*
X109466063Y-85239774D01*
X109610226Y-85383937D01*
X109779744Y-85497205D01*
X109968102Y-85575226D01*
X110168061Y-85615000D01*
X110371939Y-85615000D01*
X110571898Y-85575226D01*
X110760256Y-85497205D01*
X110929774Y-85383937D01*
X111073937Y-85239774D01*
X111145132Y-85133223D01*
X117759094Y-78519261D01*
X117797633Y-78487633D01*
X117923847Y-78333840D01*
X118017632Y-78158380D01*
X118075385Y-77967994D01*
X118090000Y-77819608D01*
X118090000Y-77819606D01*
X118094886Y-77770001D01*
X118090000Y-77720396D01*
X118090000Y-74920000D01*
X120241645Y-74920000D01*
X125630001Y-80308356D01*
X125630000Y-83775392D01*
X125625114Y-83825000D01*
X125644615Y-84022994D01*
X125656956Y-84063676D01*
X125702368Y-84213379D01*
X125796153Y-84388840D01*
X125922367Y-84542633D01*
X125960906Y-84574261D01*
X132559644Y-91173000D01*
X132270806Y-91173000D01*
X126926808Y-85829003D01*
X126903005Y-85799999D01*
X126787280Y-85705026D01*
X126655251Y-85634454D01*
X126511990Y-85590997D01*
X126400337Y-85580000D01*
X126400326Y-85580000D01*
X126363004Y-85576324D01*
X126325682Y-85580000D01*
X118833711Y-85580000D01*
X118789774Y-85536063D01*
X118620256Y-85422795D01*
X118431898Y-85344774D01*
X118231939Y-85305000D01*
X118028061Y-85305000D01*
X117828102Y-85344774D01*
X117639744Y-85422795D01*
X117470226Y-85536063D01*
X117326063Y-85680226D01*
X117212795Y-85849744D01*
X117134774Y-86038102D01*
X117095000Y-86238061D01*
X117095000Y-86441939D01*
X117134774Y-86641898D01*
X117212795Y-86830256D01*
X117326063Y-86999774D01*
X117470226Y-87143937D01*
X117639744Y-87257205D01*
X117828102Y-87335226D01*
X118028061Y-87375000D01*
X118231939Y-87375000D01*
X118431898Y-87335226D01*
X118620256Y-87257205D01*
X118789774Y-87143937D01*
X118833711Y-87100000D01*
X126048203Y-87100000D01*
X130121203Y-91173000D01*
X116110000Y-91173000D01*
X116110000Y-85794801D01*
X116409802Y-85495000D01*
X116471939Y-85495000D01*
X116671898Y-85455226D01*
X116860256Y-85377205D01*
X117029774Y-85263937D01*
X117173937Y-85119774D01*
X117287205Y-84950256D01*
X117365226Y-84761898D01*
X117405000Y-84561939D01*
X117405000Y-84358061D01*
X117365226Y-84158102D01*
X117287205Y-83969744D01*
X117173937Y-83800226D01*
X117029774Y-83656063D01*
X116860256Y-83542795D01*
X116671898Y-83464774D01*
X116471939Y-83425000D01*
X116268061Y-83425000D01*
X116068102Y-83464774D01*
X115879744Y-83542795D01*
X115710226Y-83656063D01*
X115566063Y-83800226D01*
X115452795Y-83969744D01*
X115374774Y-84158102D01*
X115335000Y-84358061D01*
X115335000Y-84420198D01*
X114839002Y-84916196D01*
X114809999Y-84939999D01*
X114754871Y-85007174D01*
X114715026Y-85055724D01*
X114667927Y-85143840D01*
X114644454Y-85187754D01*
X114600997Y-85331015D01*
X114590000Y-85442668D01*
X114590000Y-85442678D01*
X114586324Y-85480000D01*
X114590000Y-85517322D01*
X114590000Y-91173000D01*
X108301801Y-91173000D01*
X111514802Y-87960000D01*
X111576939Y-87960000D01*
X111776898Y-87920226D01*
X111965256Y-87842205D01*
X112134774Y-87728937D01*
X112278937Y-87584774D01*
X112392205Y-87415256D01*
X112470226Y-87226898D01*
X112510000Y-87026939D01*
X112510000Y-86823061D01*
X112470226Y-86623102D01*
X112392205Y-86434744D01*
X112278937Y-86265226D01*
X112134774Y-86121063D01*
X111965256Y-86007795D01*
X111776898Y-85929774D01*
X111576939Y-85890000D01*
X111373061Y-85890000D01*
X111173102Y-85929774D01*
X110984744Y-86007795D01*
X110815226Y-86121063D01*
X110671063Y-86265226D01*
X110557795Y-86434744D01*
X110479774Y-86623102D01*
X110440000Y-86823061D01*
X110440000Y-86885198D01*
X106152199Y-91173000D01*
X93260000Y-91173000D01*
X93260000Y-70375012D01*
X95461312Y-70375012D01*
X95464988Y-70412334D01*
X95464989Y-81187656D01*
X95461312Y-81224988D01*
X95475986Y-81373973D01*
X95519442Y-81517234D01*
X95590014Y-81649264D01*
X95661189Y-81735990D01*
X95684988Y-81764989D01*
X95713986Y-81788787D01*
X96504213Y-82579014D01*
X96439361Y-82735581D01*
X96365000Y-83109419D01*
X96365000Y-83490581D01*
X96439361Y-83864419D01*
X96585225Y-84216566D01*
X96796987Y-84533491D01*
X97066509Y-84803013D01*
X97383434Y-85014775D01*
X97735581Y-85160639D01*
X98109419Y-85235000D01*
X98490581Y-85235000D01*
X98864419Y-85160639D01*
X99165002Y-85036134D01*
X99165002Y-86360195D01*
X99163269Y-86361928D01*
X97000000Y-86361928D01*
X96875518Y-86374188D01*
X96755820Y-86410498D01*
X96645506Y-86469463D01*
X96548815Y-86548815D01*
X96469463Y-86645506D01*
X96410498Y-86755820D01*
X96374188Y-86875518D01*
X96361928Y-87000000D01*
X96361928Y-89600000D01*
X96374188Y-89724482D01*
X96410498Y-89844180D01*
X96469463Y-89954494D01*
X96548815Y-90051185D01*
X96645506Y-90130537D01*
X96755820Y-90189502D01*
X96875518Y-90225812D01*
X97000000Y-90238072D01*
X99600000Y-90238072D01*
X99724482Y-90225812D01*
X99844180Y-90189502D01*
X99954494Y-90130537D01*
X100051185Y-90051185D01*
X100130537Y-89954494D01*
X100189502Y-89844180D01*
X100225812Y-89724482D01*
X100238072Y-89600000D01*
X100238072Y-87436731D01*
X100436009Y-87238794D01*
X100465002Y-87215000D01*
X100488796Y-87186007D01*
X100488800Y-87186003D01*
X100559974Y-87099276D01*
X100559975Y-87099275D01*
X100630547Y-86967246D01*
X100674004Y-86823985D01*
X100685001Y-86712332D01*
X100685001Y-86712323D01*
X100688677Y-86675000D01*
X100685001Y-86637677D01*
X100685001Y-82557322D01*
X100688677Y-82519999D01*
X100685001Y-82482676D01*
X100685001Y-82482666D01*
X100674004Y-82371013D01*
X100630547Y-82227752D01*
X100559976Y-82095724D01*
X100559975Y-82095722D01*
X100488800Y-82008996D01*
X100465002Y-81979998D01*
X100436005Y-81956201D01*
X98682111Y-80202308D01*
X98728951Y-80196457D01*
X99090690Y-80076333D01*
X99337683Y-79944312D01*
X99469619Y-79649224D01*
X98300000Y-78479605D01*
X98285858Y-78493748D01*
X98106253Y-78314143D01*
X98120395Y-78300000D01*
X98479605Y-78300000D01*
X99649224Y-79469619D01*
X99944312Y-79337683D01*
X100115159Y-78996955D01*
X100216250Y-78629443D01*
X100243701Y-78249271D01*
X100196457Y-77871049D01*
X100076333Y-77509310D01*
X99944312Y-77262317D01*
X99649224Y-77130381D01*
X98479605Y-78300000D01*
X98120395Y-78300000D01*
X98106253Y-78285858D01*
X98285858Y-78106253D01*
X98300000Y-78120395D01*
X99469619Y-76950776D01*
X99337683Y-76655688D01*
X98996955Y-76484841D01*
X98629443Y-76383750D01*
X98249271Y-76356299D01*
X97871049Y-76403543D01*
X97509310Y-76523667D01*
X97434999Y-76563387D01*
X97434999Y-75239802D01*
X97579014Y-75095787D01*
X97735581Y-75160639D01*
X98109419Y-75235000D01*
X98490581Y-75235000D01*
X98864419Y-75160639D01*
X99216566Y-75014775D01*
X99533491Y-74803013D01*
X99803013Y-74533491D01*
X100014775Y-74216566D01*
X100160639Y-73864419D01*
X100235000Y-73490581D01*
X100235000Y-73109419D01*
X100160639Y-72735581D01*
X100014775Y-72383434D01*
X99803013Y-72066509D01*
X99533491Y-71796987D01*
X99216566Y-71585225D01*
X98864419Y-71439361D01*
X98490581Y-71365000D01*
X98109419Y-71365000D01*
X97735581Y-71439361D01*
X97383434Y-71585225D01*
X97066509Y-71796987D01*
X96984988Y-71878508D01*
X96984988Y-70689813D01*
X97579014Y-70095787D01*
X97735581Y-70160639D01*
X98109419Y-70235000D01*
X98490581Y-70235000D01*
X98864419Y-70160639D01*
X99216566Y-70014775D01*
X99533491Y-69803013D01*
X99803013Y-69533491D01*
X100014775Y-69216566D01*
X100160639Y-68864419D01*
X100235000Y-68490581D01*
X100235000Y-68109419D01*
X100160639Y-67735581D01*
X100014775Y-67383434D01*
X99803013Y-67066509D01*
X99533491Y-66796987D01*
X99216566Y-66585225D01*
X98864419Y-66439361D01*
X98490581Y-66365000D01*
X98109419Y-66365000D01*
X97735581Y-66439361D01*
X97383434Y-66585225D01*
X97066509Y-66796987D01*
X96796987Y-67066509D01*
X96585225Y-67383434D01*
X96439361Y-67735581D01*
X96365000Y-68109419D01*
X96365000Y-68490581D01*
X96439361Y-68864419D01*
X96504213Y-69020986D01*
X95713991Y-69811208D01*
X95684987Y-69835011D01*
X95629859Y-69902186D01*
X95590014Y-69950736D01*
X95555784Y-70014775D01*
X95519442Y-70082766D01*
X95475985Y-70226027D01*
X95464988Y-70337680D01*
X95464988Y-70337690D01*
X95461312Y-70375012D01*
X93260000Y-70375012D01*
X93260000Y-64649224D01*
X97130381Y-64649224D01*
X97262317Y-64944312D01*
X97603045Y-65115159D01*
X97970557Y-65216250D01*
X98350729Y-65243701D01*
X98728951Y-65196457D01*
X99090690Y-65076333D01*
X99337683Y-64944312D01*
X99469619Y-64649224D01*
X98300000Y-63479605D01*
X97130381Y-64649224D01*
X93260000Y-64649224D01*
X93260000Y-63350729D01*
X96356299Y-63350729D01*
X96403543Y-63728951D01*
X96523667Y-64090690D01*
X96655688Y-64337683D01*
X96950776Y-64469619D01*
X98120395Y-63300000D01*
X98479605Y-63300000D01*
X99649224Y-64469619D01*
X99944312Y-64337683D01*
X100115159Y-63996955D01*
X100216250Y-63629443D01*
X100243701Y-63249271D01*
X100196457Y-62871049D01*
X100076333Y-62509310D01*
X99944312Y-62262317D01*
X99649224Y-62130381D01*
X98479605Y-63300000D01*
X98120395Y-63300000D01*
X96950776Y-62130381D01*
X96655688Y-62262317D01*
X96484841Y-62603045D01*
X96383750Y-62970557D01*
X96356299Y-63350729D01*
X93260000Y-63350729D01*
X93260000Y-61950776D01*
X97130381Y-61950776D01*
X98300000Y-63120395D01*
X99469619Y-61950776D01*
X99337683Y-61655688D01*
X98996955Y-61484841D01*
X98629443Y-61383750D01*
X98249271Y-61356299D01*
X97871049Y-61403543D01*
X97509310Y-61523667D01*
X97262317Y-61655688D01*
X97130381Y-61950776D01*
X93260000Y-61950776D01*
X93260000Y-59810000D01*
X138723000Y-59810000D01*
X138723000Y-77478199D01*
%TA.AperFunction,Conductor*%
D25*
G36*
X138723000Y-77478199D02*
G01*
X138705000Y-77460199D01*
X138705000Y-77398061D01*
X138665226Y-77198102D01*
X138587205Y-77009744D01*
X138473937Y-76840226D01*
X138329774Y-76696063D01*
X138160256Y-76582795D01*
X137971898Y-76504774D01*
X137771939Y-76465000D01*
X137568061Y-76465000D01*
X137368102Y-76504774D01*
X137179744Y-76582795D01*
X137010226Y-76696063D01*
X136866063Y-76840226D01*
X136752795Y-77009744D01*
X136674774Y-77198102D01*
X136635000Y-77398061D01*
X136635000Y-77601939D01*
X136674774Y-77801898D01*
X136752795Y-77990256D01*
X136866063Y-78159774D01*
X137010226Y-78303937D01*
X137179744Y-78417205D01*
X137368102Y-78495226D01*
X137568061Y-78535000D01*
X137630199Y-78535000D01*
X138723000Y-79627801D01*
X138723000Y-86608369D01*
X138711594Y-86587030D01*
X138522897Y-86357103D01*
X138292970Y-86168406D01*
X138030648Y-86028192D01*
X137746012Y-85941849D01*
X137524178Y-85920000D01*
X136875822Y-85920000D01*
X136653988Y-85941849D01*
X136369352Y-86028192D01*
X136107030Y-86168406D01*
X135877103Y-86357103D01*
X135688406Y-86587030D01*
X135548192Y-86849352D01*
X135461849Y-87133988D01*
X135432694Y-87430000D01*
X135461849Y-87726012D01*
X135548192Y-88010648D01*
X135688406Y-88272970D01*
X135877103Y-88502897D01*
X136107030Y-88691594D01*
X136125548Y-88701492D01*
X136011831Y-88773893D01*
X135796509Y-88979904D01*
X135625515Y-89223963D01*
X135612118Y-89254387D01*
X134710000Y-88352269D01*
X134710000Y-86903711D01*
X134753937Y-86859774D01*
X134867205Y-86690256D01*
X134945226Y-86501898D01*
X134985000Y-86301939D01*
X134985000Y-86098061D01*
X134945226Y-85898102D01*
X134867205Y-85709744D01*
X134753937Y-85540226D01*
X134609774Y-85396063D01*
X134440256Y-85282795D01*
X134251898Y-85204774D01*
X134051939Y-85165000D01*
X133848061Y-85165000D01*
X133648102Y-85204774D01*
X133459744Y-85282795D01*
X133290226Y-85396063D01*
X133146063Y-85540226D01*
X133032795Y-85709744D01*
X132954774Y-85898102D01*
X132915000Y-86098061D01*
X132915000Y-86301939D01*
X132954774Y-86501898D01*
X133032795Y-86690256D01*
X133146063Y-86859774D01*
X133190000Y-86903711D01*
X133190001Y-88629738D01*
X133186324Y-88667070D01*
X133200998Y-88816055D01*
X133244454Y-88959316D01*
X133292432Y-89049077D01*
X127650000Y-83406645D01*
X127650000Y-80117623D01*
X127675000Y-79991939D01*
X127675000Y-79788061D01*
X127635226Y-79588102D01*
X127557205Y-79399744D01*
X127443937Y-79230226D01*
X127299774Y-79086063D01*
X127193223Y-79014868D01*
X121409261Y-73230906D01*
X121377633Y-73192367D01*
X121223840Y-73066153D01*
X121048380Y-72972368D01*
X120857994Y-72914615D01*
X120709608Y-72900000D01*
X120660000Y-72895114D01*
X120610392Y-72900000D01*
X117307623Y-72900000D01*
X117181939Y-72875000D01*
X116978061Y-72875000D01*
X116778102Y-72914774D01*
X116589744Y-72992795D01*
X116420226Y-73106063D01*
X116276063Y-73250226D01*
X116162795Y-73419744D01*
X116084774Y-73608102D01*
X116045000Y-73808061D01*
X116045000Y-74011939D01*
X116070000Y-74137624D01*
X116070001Y-77351644D01*
X109716777Y-83704868D01*
X109610226Y-83776063D01*
X109466063Y-83920226D01*
X109352795Y-84089744D01*
X109274774Y-84278102D01*
X109235000Y-84478061D01*
X109235000Y-84681939D01*
X109274774Y-84881898D01*
X109352795Y-85070256D01*
X109466063Y-85239774D01*
X109610226Y-85383937D01*
X109779744Y-85497205D01*
X109968102Y-85575226D01*
X110168061Y-85615000D01*
X110371939Y-85615000D01*
X110571898Y-85575226D01*
X110760256Y-85497205D01*
X110929774Y-85383937D01*
X111073937Y-85239774D01*
X111145132Y-85133223D01*
X117759094Y-78519261D01*
X117797633Y-78487633D01*
X117923847Y-78333840D01*
X118017632Y-78158380D01*
X118075385Y-77967994D01*
X118090000Y-77819608D01*
X118090000Y-77819606D01*
X118094886Y-77770001D01*
X118090000Y-77720396D01*
X118090000Y-74920000D01*
X120241645Y-74920000D01*
X125630001Y-80308356D01*
X125630000Y-83775392D01*
X125625114Y-83825000D01*
X125644615Y-84022994D01*
X125656956Y-84063676D01*
X125702368Y-84213379D01*
X125796153Y-84388840D01*
X125922367Y-84542633D01*
X125960906Y-84574261D01*
X132559644Y-91173000D01*
X132270806Y-91173000D01*
X126926808Y-85829003D01*
X126903005Y-85799999D01*
X126787280Y-85705026D01*
X126655251Y-85634454D01*
X126511990Y-85590997D01*
X126400337Y-85580000D01*
X126400326Y-85580000D01*
X126363004Y-85576324D01*
X126325682Y-85580000D01*
X118833711Y-85580000D01*
X118789774Y-85536063D01*
X118620256Y-85422795D01*
X118431898Y-85344774D01*
X118231939Y-85305000D01*
X118028061Y-85305000D01*
X117828102Y-85344774D01*
X117639744Y-85422795D01*
X117470226Y-85536063D01*
X117326063Y-85680226D01*
X117212795Y-85849744D01*
X117134774Y-86038102D01*
X117095000Y-86238061D01*
X117095000Y-86441939D01*
X117134774Y-86641898D01*
X117212795Y-86830256D01*
X117326063Y-86999774D01*
X117470226Y-87143937D01*
X117639744Y-87257205D01*
X117828102Y-87335226D01*
X118028061Y-87375000D01*
X118231939Y-87375000D01*
X118431898Y-87335226D01*
X118620256Y-87257205D01*
X118789774Y-87143937D01*
X118833711Y-87100000D01*
X126048203Y-87100000D01*
X130121203Y-91173000D01*
X116110000Y-91173000D01*
X116110000Y-85794801D01*
X116409802Y-85495000D01*
X116471939Y-85495000D01*
X116671898Y-85455226D01*
X116860256Y-85377205D01*
X117029774Y-85263937D01*
X117173937Y-85119774D01*
X117287205Y-84950256D01*
X117365226Y-84761898D01*
X117405000Y-84561939D01*
X117405000Y-84358061D01*
X117365226Y-84158102D01*
X117287205Y-83969744D01*
X117173937Y-83800226D01*
X117029774Y-83656063D01*
X116860256Y-83542795D01*
X116671898Y-83464774D01*
X116471939Y-83425000D01*
X116268061Y-83425000D01*
X116068102Y-83464774D01*
X115879744Y-83542795D01*
X115710226Y-83656063D01*
X115566063Y-83800226D01*
X115452795Y-83969744D01*
X115374774Y-84158102D01*
X115335000Y-84358061D01*
X115335000Y-84420198D01*
X114839002Y-84916196D01*
X114809999Y-84939999D01*
X114754871Y-85007174D01*
X114715026Y-85055724D01*
X114667927Y-85143840D01*
X114644454Y-85187754D01*
X114600997Y-85331015D01*
X114590000Y-85442668D01*
X114590000Y-85442678D01*
X114586324Y-85480000D01*
X114590000Y-85517322D01*
X114590000Y-91173000D01*
X108301801Y-91173000D01*
X111514802Y-87960000D01*
X111576939Y-87960000D01*
X111776898Y-87920226D01*
X111965256Y-87842205D01*
X112134774Y-87728937D01*
X112278937Y-87584774D01*
X112392205Y-87415256D01*
X112470226Y-87226898D01*
X112510000Y-87026939D01*
X112510000Y-86823061D01*
X112470226Y-86623102D01*
X112392205Y-86434744D01*
X112278937Y-86265226D01*
X112134774Y-86121063D01*
X111965256Y-86007795D01*
X111776898Y-85929774D01*
X111576939Y-85890000D01*
X111373061Y-85890000D01*
X111173102Y-85929774D01*
X110984744Y-86007795D01*
X110815226Y-86121063D01*
X110671063Y-86265226D01*
X110557795Y-86434744D01*
X110479774Y-86623102D01*
X110440000Y-86823061D01*
X110440000Y-86885198D01*
X106152199Y-91173000D01*
X93260000Y-91173000D01*
X93260000Y-70375012D01*
X95461312Y-70375012D01*
X95464988Y-70412334D01*
X95464989Y-81187656D01*
X95461312Y-81224988D01*
X95475986Y-81373973D01*
X95519442Y-81517234D01*
X95590014Y-81649264D01*
X95661189Y-81735990D01*
X95684988Y-81764989D01*
X95713986Y-81788787D01*
X96504213Y-82579014D01*
X96439361Y-82735581D01*
X96365000Y-83109419D01*
X96365000Y-83490581D01*
X96439361Y-83864419D01*
X96585225Y-84216566D01*
X96796987Y-84533491D01*
X97066509Y-84803013D01*
X97383434Y-85014775D01*
X97735581Y-85160639D01*
X98109419Y-85235000D01*
X98490581Y-85235000D01*
X98864419Y-85160639D01*
X99165002Y-85036134D01*
X99165002Y-86360195D01*
X99163269Y-86361928D01*
X97000000Y-86361928D01*
X96875518Y-86374188D01*
X96755820Y-86410498D01*
X96645506Y-86469463D01*
X96548815Y-86548815D01*
X96469463Y-86645506D01*
X96410498Y-86755820D01*
X96374188Y-86875518D01*
X96361928Y-87000000D01*
X96361928Y-89600000D01*
X96374188Y-89724482D01*
X96410498Y-89844180D01*
X96469463Y-89954494D01*
X96548815Y-90051185D01*
X96645506Y-90130537D01*
X96755820Y-90189502D01*
X96875518Y-90225812D01*
X97000000Y-90238072D01*
X99600000Y-90238072D01*
X99724482Y-90225812D01*
X99844180Y-90189502D01*
X99954494Y-90130537D01*
X100051185Y-90051185D01*
X100130537Y-89954494D01*
X100189502Y-89844180D01*
X100225812Y-89724482D01*
X100238072Y-89600000D01*
X100238072Y-87436731D01*
X100436009Y-87238794D01*
X100465002Y-87215000D01*
X100488796Y-87186007D01*
X100488800Y-87186003D01*
X100559974Y-87099276D01*
X100559975Y-87099275D01*
X100630547Y-86967246D01*
X100674004Y-86823985D01*
X100685001Y-86712332D01*
X100685001Y-86712323D01*
X100688677Y-86675000D01*
X100685001Y-86637677D01*
X100685001Y-82557322D01*
X100688677Y-82519999D01*
X100685001Y-82482676D01*
X100685001Y-82482666D01*
X100674004Y-82371013D01*
X100630547Y-82227752D01*
X100559976Y-82095724D01*
X100559975Y-82095722D01*
X100488800Y-82008996D01*
X100465002Y-81979998D01*
X100436005Y-81956201D01*
X98682111Y-80202308D01*
X98728951Y-80196457D01*
X99090690Y-80076333D01*
X99337683Y-79944312D01*
X99469619Y-79649224D01*
X98300000Y-78479605D01*
X98285858Y-78493748D01*
X98106253Y-78314143D01*
X98120395Y-78300000D01*
X98479605Y-78300000D01*
X99649224Y-79469619D01*
X99944312Y-79337683D01*
X100115159Y-78996955D01*
X100216250Y-78629443D01*
X100243701Y-78249271D01*
X100196457Y-77871049D01*
X100076333Y-77509310D01*
X99944312Y-77262317D01*
X99649224Y-77130381D01*
X98479605Y-78300000D01*
X98120395Y-78300000D01*
X98106253Y-78285858D01*
X98285858Y-78106253D01*
X98300000Y-78120395D01*
X99469619Y-76950776D01*
X99337683Y-76655688D01*
X98996955Y-76484841D01*
X98629443Y-76383750D01*
X98249271Y-76356299D01*
X97871049Y-76403543D01*
X97509310Y-76523667D01*
X97434999Y-76563387D01*
X97434999Y-75239802D01*
X97579014Y-75095787D01*
X97735581Y-75160639D01*
X98109419Y-75235000D01*
X98490581Y-75235000D01*
X98864419Y-75160639D01*
X99216566Y-75014775D01*
X99533491Y-74803013D01*
X99803013Y-74533491D01*
X100014775Y-74216566D01*
X100160639Y-73864419D01*
X100235000Y-73490581D01*
X100235000Y-73109419D01*
X100160639Y-72735581D01*
X100014775Y-72383434D01*
X99803013Y-72066509D01*
X99533491Y-71796987D01*
X99216566Y-71585225D01*
X98864419Y-71439361D01*
X98490581Y-71365000D01*
X98109419Y-71365000D01*
X97735581Y-71439361D01*
X97383434Y-71585225D01*
X97066509Y-71796987D01*
X96984988Y-71878508D01*
X96984988Y-70689813D01*
X97579014Y-70095787D01*
X97735581Y-70160639D01*
X98109419Y-70235000D01*
X98490581Y-70235000D01*
X98864419Y-70160639D01*
X99216566Y-70014775D01*
X99533491Y-69803013D01*
X99803013Y-69533491D01*
X100014775Y-69216566D01*
X100160639Y-68864419D01*
X100235000Y-68490581D01*
X100235000Y-68109419D01*
X100160639Y-67735581D01*
X100014775Y-67383434D01*
X99803013Y-67066509D01*
X99533491Y-66796987D01*
X99216566Y-66585225D01*
X98864419Y-66439361D01*
X98490581Y-66365000D01*
X98109419Y-66365000D01*
X97735581Y-66439361D01*
X97383434Y-66585225D01*
X97066509Y-66796987D01*
X96796987Y-67066509D01*
X96585225Y-67383434D01*
X96439361Y-67735581D01*
X96365000Y-68109419D01*
X96365000Y-68490581D01*
X96439361Y-68864419D01*
X96504213Y-69020986D01*
X95713991Y-69811208D01*
X95684987Y-69835011D01*
X95629859Y-69902186D01*
X95590014Y-69950736D01*
X95555784Y-70014775D01*
X95519442Y-70082766D01*
X95475985Y-70226027D01*
X95464988Y-70337680D01*
X95464988Y-70337690D01*
X95461312Y-70375012D01*
X93260000Y-70375012D01*
X93260000Y-64649224D01*
X97130381Y-64649224D01*
X97262317Y-64944312D01*
X97603045Y-65115159D01*
X97970557Y-65216250D01*
X98350729Y-65243701D01*
X98728951Y-65196457D01*
X99090690Y-65076333D01*
X99337683Y-64944312D01*
X99469619Y-64649224D01*
X98300000Y-63479605D01*
X97130381Y-64649224D01*
X93260000Y-64649224D01*
X93260000Y-63350729D01*
X96356299Y-63350729D01*
X96403543Y-63728951D01*
X96523667Y-64090690D01*
X96655688Y-64337683D01*
X96950776Y-64469619D01*
X98120395Y-63300000D01*
X98479605Y-63300000D01*
X99649224Y-64469619D01*
X99944312Y-64337683D01*
X100115159Y-63996955D01*
X100216250Y-63629443D01*
X100243701Y-63249271D01*
X100196457Y-62871049D01*
X100076333Y-62509310D01*
X99944312Y-62262317D01*
X99649224Y-62130381D01*
X98479605Y-63300000D01*
X98120395Y-63300000D01*
X96950776Y-62130381D01*
X96655688Y-62262317D01*
X96484841Y-62603045D01*
X96383750Y-62970557D01*
X96356299Y-63350729D01*
X93260000Y-63350729D01*
X93260000Y-61950776D01*
X97130381Y-61950776D01*
X98300000Y-63120395D01*
X99469619Y-61950776D01*
X99337683Y-61655688D01*
X98996955Y-61484841D01*
X98629443Y-61383750D01*
X98249271Y-61356299D01*
X97871049Y-61403543D01*
X97509310Y-61523667D01*
X97262317Y-61655688D01*
X97130381Y-61950776D01*
X93260000Y-61950776D01*
X93260000Y-59810000D01*
X138723000Y-59810000D01*
X138723000Y-77478199D01*
G37*
%TD.AperFunction*%
D24*
X137327000Y-89843000D02*
X137347000Y-89843000D01*
X137347000Y-90097000D01*
X137327000Y-90097000D01*
X137327000Y-90117000D01*
X137073000Y-90117000D01*
X137073000Y-90097000D01*
X137053000Y-90097000D01*
X137053000Y-89843000D01*
X137073000Y-89843000D01*
X137073000Y-89823000D01*
X137327000Y-89823000D01*
X137327000Y-89843000D01*
%TA.AperFunction,Conductor*%
D25*
G36*
X137327000Y-89843000D02*
G01*
X137347000Y-89843000D01*
X137347000Y-90097000D01*
X137327000Y-90097000D01*
X137327000Y-90117000D01*
X137073000Y-90117000D01*
X137073000Y-90097000D01*
X137053000Y-90097000D01*
X137053000Y-89843000D01*
X137073000Y-89843000D01*
X137073000Y-89823000D01*
X137327000Y-89823000D01*
X137327000Y-89843000D01*
G37*
%TD.AperFunction*%
%TD*%
D24*
%TO.N,GND*%
X177440000Y-124490000D02*
X158788355Y-124490000D01*
X160854094Y-122424261D01*
X160892633Y-122392633D01*
X161018847Y-122238840D01*
X161112632Y-122063380D01*
X161170385Y-121872994D01*
X161185000Y-121724608D01*
X161185000Y-121724606D01*
X161189886Y-121675001D01*
X161185000Y-121625396D01*
X161185000Y-119700000D01*
X171061928Y-119700000D01*
X171061928Y-122300000D01*
X171074188Y-122424482D01*
X171110498Y-122544180D01*
X171169463Y-122654494D01*
X171248815Y-122751185D01*
X171345506Y-122830537D01*
X171455820Y-122889502D01*
X171575518Y-122925812D01*
X171700000Y-122938072D01*
X174300000Y-122938072D01*
X174424482Y-122925812D01*
X174544180Y-122889502D01*
X174654494Y-122830537D01*
X174751185Y-122751185D01*
X174830537Y-122654494D01*
X174889502Y-122544180D01*
X174925812Y-122424482D01*
X174938072Y-122300000D01*
X174938072Y-119700000D01*
X174925812Y-119575518D01*
X174889502Y-119455820D01*
X174830537Y-119345506D01*
X174751185Y-119248815D01*
X174654494Y-119169463D01*
X174544180Y-119110498D01*
X174424482Y-119074188D01*
X174300000Y-119061928D01*
X171700000Y-119061928D01*
X171575518Y-119074188D01*
X171455820Y-119110498D01*
X171345506Y-119169463D01*
X171248815Y-119248815D01*
X171169463Y-119345506D01*
X171110498Y-119455820D01*
X171074188Y-119575518D01*
X171061928Y-119700000D01*
X161185000Y-119700000D01*
X161185000Y-118852623D01*
X161210000Y-118726939D01*
X161210000Y-118523061D01*
X161185000Y-118397377D01*
X161185000Y-115809419D01*
X171065000Y-115809419D01*
X171065000Y-116190581D01*
X171139361Y-116564419D01*
X171285225Y-116916566D01*
X171496987Y-117233491D01*
X171766509Y-117503013D01*
X172083434Y-117714775D01*
X172435581Y-117860639D01*
X172809419Y-117935000D01*
X173190581Y-117935000D01*
X173564419Y-117860639D01*
X173916566Y-117714775D01*
X174233491Y-117503013D01*
X174503013Y-117233491D01*
X174714775Y-116916566D01*
X174860639Y-116564419D01*
X174935000Y-116190581D01*
X174935000Y-115809419D01*
X174860639Y-115435581D01*
X174714775Y-115083434D01*
X174503013Y-114766509D01*
X174233491Y-114496987D01*
X173916566Y-114285225D01*
X173564419Y-114139361D01*
X173190581Y-114065000D01*
X172809419Y-114065000D01*
X172435581Y-114139361D01*
X172083434Y-114285225D01*
X171766509Y-114496987D01*
X171496987Y-114766509D01*
X171285225Y-115083434D01*
X171139361Y-115435581D01*
X171065000Y-115809419D01*
X161185000Y-115809419D01*
X161185000Y-110809419D01*
X171065000Y-110809419D01*
X171065000Y-111190581D01*
X171139361Y-111564419D01*
X171285225Y-111916566D01*
X171496987Y-112233491D01*
X171766509Y-112503013D01*
X172083434Y-112714775D01*
X172435581Y-112860639D01*
X172809419Y-112935000D01*
X173190581Y-112935000D01*
X173564419Y-112860639D01*
X173916566Y-112714775D01*
X174233491Y-112503013D01*
X174503013Y-112233491D01*
X174714775Y-111916566D01*
X174860639Y-111564419D01*
X174935000Y-111190581D01*
X174935000Y-110809419D01*
X174860639Y-110435581D01*
X174714775Y-110083434D01*
X174503013Y-109766509D01*
X174233491Y-109496987D01*
X173916566Y-109285225D01*
X173564419Y-109139361D01*
X173190581Y-109065000D01*
X172809419Y-109065000D01*
X172435581Y-109139361D01*
X172083434Y-109285225D01*
X171766509Y-109496987D01*
X171496987Y-109766509D01*
X171285225Y-110083434D01*
X171139361Y-110435581D01*
X171065000Y-110809419D01*
X161185000Y-110809419D01*
X161185000Y-108927623D01*
X161210000Y-108801939D01*
X161210000Y-108598061D01*
X161185000Y-108472377D01*
X161185000Y-105809419D01*
X171065000Y-105809419D01*
X171065000Y-106190581D01*
X171139361Y-106564419D01*
X171285225Y-106916566D01*
X171496987Y-107233491D01*
X171766509Y-107503013D01*
X172083434Y-107714775D01*
X172435581Y-107860639D01*
X172809419Y-107935000D01*
X173190581Y-107935000D01*
X173564419Y-107860639D01*
X173916566Y-107714775D01*
X174233491Y-107503013D01*
X174503013Y-107233491D01*
X174714775Y-106916566D01*
X174860639Y-106564419D01*
X174935000Y-106190581D01*
X174935000Y-105809419D01*
X174860639Y-105435581D01*
X174714775Y-105083434D01*
X174503013Y-104766509D01*
X174233491Y-104496987D01*
X173916566Y-104285225D01*
X173564419Y-104139361D01*
X173190581Y-104065000D01*
X172809419Y-104065000D01*
X172435581Y-104139361D01*
X172083434Y-104285225D01*
X171766509Y-104496987D01*
X171496987Y-104766509D01*
X171285225Y-105083434D01*
X171139361Y-105435581D01*
X171065000Y-105809419D01*
X161185000Y-105809419D01*
X161185000Y-100809419D01*
X171065000Y-100809419D01*
X171065000Y-101190581D01*
X171139361Y-101564419D01*
X171285225Y-101916566D01*
X171496987Y-102233491D01*
X171766509Y-102503013D01*
X172083434Y-102714775D01*
X172435581Y-102860639D01*
X172809419Y-102935000D01*
X173190581Y-102935000D01*
X173564419Y-102860639D01*
X173916566Y-102714775D01*
X174233491Y-102503013D01*
X174503013Y-102233491D01*
X174714775Y-101916566D01*
X174860639Y-101564419D01*
X174935000Y-101190581D01*
X174935000Y-100809419D01*
X174860639Y-100435581D01*
X174714775Y-100083434D01*
X174503013Y-99766509D01*
X174233491Y-99496987D01*
X173916566Y-99285225D01*
X173564419Y-99139361D01*
X173190581Y-99065000D01*
X172809419Y-99065000D01*
X172435581Y-99139361D01*
X172083434Y-99285225D01*
X171766509Y-99496987D01*
X171496987Y-99766509D01*
X171285225Y-100083434D01*
X171139361Y-100435581D01*
X171065000Y-100809419D01*
X161185000Y-100809419D01*
X161185000Y-98852623D01*
X161210000Y-98726939D01*
X161210000Y-98523061D01*
X161185000Y-98397377D01*
X161185000Y-95809419D01*
X171065000Y-95809419D01*
X171065000Y-96190581D01*
X171139361Y-96564419D01*
X171285225Y-96916566D01*
X171496987Y-97233491D01*
X171766509Y-97503013D01*
X172083434Y-97714775D01*
X172435581Y-97860639D01*
X172809419Y-97935000D01*
X173190581Y-97935000D01*
X173564419Y-97860639D01*
X173916566Y-97714775D01*
X174233491Y-97503013D01*
X174503013Y-97233491D01*
X174714775Y-96916566D01*
X174860639Y-96564419D01*
X174935000Y-96190581D01*
X174935000Y-95809419D01*
X174860639Y-95435581D01*
X174714775Y-95083434D01*
X174503013Y-94766509D01*
X174233491Y-94496987D01*
X173916566Y-94285225D01*
X173564419Y-94139361D01*
X173190581Y-94065000D01*
X172809419Y-94065000D01*
X172435581Y-94139361D01*
X172083434Y-94285225D01*
X171766509Y-94496987D01*
X171496987Y-94766509D01*
X171285225Y-95083434D01*
X171139361Y-95435581D01*
X171065000Y-95809419D01*
X161185000Y-95809419D01*
X161185000Y-87000000D01*
X171061928Y-87000000D01*
X171061928Y-89600000D01*
X171074188Y-89724482D01*
X171110498Y-89844180D01*
X171169463Y-89954494D01*
X171248815Y-90051185D01*
X171345506Y-90130537D01*
X171455820Y-90189502D01*
X171575518Y-90225812D01*
X171700000Y-90238072D01*
X174300000Y-90238072D01*
X174424482Y-90225812D01*
X174544180Y-90189502D01*
X174654494Y-90130537D01*
X174751185Y-90051185D01*
X174830537Y-89954494D01*
X174889502Y-89844180D01*
X174925812Y-89724482D01*
X174938072Y-89600000D01*
X174938072Y-87000000D01*
X174925812Y-86875518D01*
X174889502Y-86755820D01*
X174830537Y-86645506D01*
X174751185Y-86548815D01*
X174654494Y-86469463D01*
X174544180Y-86410498D01*
X174424482Y-86374188D01*
X174300000Y-86361928D01*
X171700000Y-86361928D01*
X171575518Y-86374188D01*
X171455820Y-86410498D01*
X171345506Y-86469463D01*
X171248815Y-86548815D01*
X171169463Y-86645506D01*
X171110498Y-86755820D01*
X171074188Y-86875518D01*
X171061928Y-87000000D01*
X161185000Y-87000000D01*
X161185000Y-86177623D01*
X161210000Y-86051939D01*
X161210000Y-85848061D01*
X161185000Y-85722377D01*
X161185000Y-83109419D01*
X171065000Y-83109419D01*
X171065000Y-83490581D01*
X171139361Y-83864419D01*
X171285225Y-84216566D01*
X171496987Y-84533491D01*
X171766509Y-84803013D01*
X172083434Y-85014775D01*
X172435581Y-85160639D01*
X172809419Y-85235000D01*
X173190581Y-85235000D01*
X173564419Y-85160639D01*
X173916566Y-85014775D01*
X174233491Y-84803013D01*
X174503013Y-84533491D01*
X174714775Y-84216566D01*
X174860639Y-83864419D01*
X174935000Y-83490581D01*
X174935000Y-83109419D01*
X174860639Y-82735581D01*
X174714775Y-82383434D01*
X174503013Y-82066509D01*
X174233491Y-81796987D01*
X173916566Y-81585225D01*
X173564419Y-81439361D01*
X173190581Y-81365000D01*
X172809419Y-81365000D01*
X172435581Y-81439361D01*
X172083434Y-81585225D01*
X171766509Y-81796987D01*
X171496987Y-82066509D01*
X171285225Y-82383434D01*
X171139361Y-82735581D01*
X171065000Y-83109419D01*
X161185000Y-83109419D01*
X161185000Y-78109419D01*
X171065000Y-78109419D01*
X171065000Y-78490581D01*
X171139361Y-78864419D01*
X171285225Y-79216566D01*
X171496987Y-79533491D01*
X171766509Y-79803013D01*
X172083434Y-80014775D01*
X172435581Y-80160639D01*
X172809419Y-80235000D01*
X173190581Y-80235000D01*
X173564419Y-80160639D01*
X173916566Y-80014775D01*
X174233491Y-79803013D01*
X174503013Y-79533491D01*
X174714775Y-79216566D01*
X174860639Y-78864419D01*
X174935000Y-78490581D01*
X174935000Y-78109419D01*
X174860639Y-77735581D01*
X174714775Y-77383434D01*
X174503013Y-77066509D01*
X174233491Y-76796987D01*
X173916566Y-76585225D01*
X173564419Y-76439361D01*
X173190581Y-76365000D01*
X172809419Y-76365000D01*
X172435581Y-76439361D01*
X172083434Y-76585225D01*
X171766509Y-76796987D01*
X171496987Y-77066509D01*
X171285225Y-77383434D01*
X171139361Y-77735581D01*
X171065000Y-78109419D01*
X161185000Y-78109419D01*
X161185000Y-76127623D01*
X161210000Y-76001939D01*
X161210000Y-75798061D01*
X161170226Y-75598102D01*
X161092205Y-75409744D01*
X160978937Y-75240226D01*
X160834774Y-75096063D01*
X160665256Y-74982795D01*
X160476898Y-74904774D01*
X160276939Y-74865000D01*
X160073061Y-74865000D01*
X159873102Y-74904774D01*
X159684744Y-74982795D01*
X159515226Y-75096063D01*
X159371063Y-75240226D01*
X159257795Y-75409744D01*
X159179774Y-75598102D01*
X159140000Y-75798061D01*
X159140000Y-76001939D01*
X159165001Y-76127628D01*
X159165000Y-85722376D01*
X159140000Y-85848061D01*
X159140000Y-86051939D01*
X159165001Y-86177628D01*
X159165000Y-98397376D01*
X159140000Y-98523061D01*
X159140000Y-98726939D01*
X159165001Y-98852628D01*
X159165000Y-108472376D01*
X159140000Y-108598061D01*
X159140000Y-108801939D01*
X159165001Y-108927628D01*
X159165000Y-118397376D01*
X159140000Y-118523061D01*
X159140000Y-118726939D01*
X159165001Y-118852628D01*
X159165000Y-121256645D01*
X157456645Y-122965000D01*
X121952623Y-122965000D01*
X121826939Y-122940000D01*
X121623061Y-122940000D01*
X121423102Y-122979774D01*
X121234744Y-123057795D01*
X121065226Y-123171063D01*
X120921063Y-123315226D01*
X120807795Y-123484744D01*
X120729774Y-123673102D01*
X120690000Y-123873061D01*
X120690000Y-124076939D01*
X120729774Y-124276898D01*
X120807795Y-124465256D01*
X120824328Y-124490000D01*
X93260000Y-124490000D01*
X93260000Y-119700000D01*
X96361928Y-119700000D01*
X96361928Y-122300000D01*
X96374188Y-122424482D01*
X96410498Y-122544180D01*
X96469463Y-122654494D01*
X96548815Y-122751185D01*
X96645506Y-122830537D01*
X96755820Y-122889502D01*
X96875518Y-122925812D01*
X97000000Y-122938072D01*
X99600000Y-122938072D01*
X99724482Y-122925812D01*
X99844180Y-122889502D01*
X99954494Y-122830537D01*
X100051185Y-122751185D01*
X100130537Y-122654494D01*
X100189502Y-122544180D01*
X100225812Y-122424482D01*
X100238072Y-122300000D01*
X100238072Y-119700000D01*
X100225812Y-119575518D01*
X100189502Y-119455820D01*
X100130537Y-119345506D01*
X100051185Y-119248815D01*
X99954494Y-119169463D01*
X99844180Y-119110498D01*
X99724482Y-119074188D01*
X99600000Y-119061928D01*
X97000000Y-119061928D01*
X96875518Y-119074188D01*
X96755820Y-119110498D01*
X96645506Y-119169463D01*
X96548815Y-119248815D01*
X96469463Y-119345506D01*
X96410498Y-119455820D01*
X96374188Y-119575518D01*
X96361928Y-119700000D01*
X93260000Y-119700000D01*
X93260000Y-117349224D01*
X97130381Y-117349224D01*
X97262317Y-117644312D01*
X97603045Y-117815159D01*
X97970557Y-117916250D01*
X98350729Y-117943701D01*
X98728951Y-117896457D01*
X99090690Y-117776333D01*
X99337683Y-117644312D01*
X99427824Y-117442702D01*
X125536903Y-117442702D01*
X125608486Y-117686671D01*
X125863996Y-117807571D01*
X126138184Y-117876300D01*
X126420512Y-117890217D01*
X126700130Y-117848787D01*
X126966292Y-117753603D01*
X127091514Y-117686671D01*
X127163097Y-117442702D01*
X126350000Y-116629605D01*
X125536903Y-117442702D01*
X99427824Y-117442702D01*
X99469619Y-117349224D01*
X98300000Y-116179605D01*
X97130381Y-117349224D01*
X93260000Y-117349224D01*
X93260000Y-116050729D01*
X96356299Y-116050729D01*
X96403543Y-116428951D01*
X96523667Y-116790690D01*
X96655688Y-117037683D01*
X96950776Y-117169619D01*
X98120395Y-116000000D01*
X98479605Y-116000000D01*
X99649224Y-117169619D01*
X99944312Y-117037683D01*
X100115159Y-116696955D01*
X100163692Y-116520512D01*
X124909783Y-116520512D01*
X124951213Y-116800130D01*
X125046397Y-117066292D01*
X125113329Y-117191514D01*
X125357298Y-117263097D01*
X126170395Y-116450000D01*
X126529605Y-116450000D01*
X127342702Y-117263097D01*
X127586671Y-117191514D01*
X127707571Y-116936004D01*
X127776300Y-116661816D01*
X127790217Y-116379488D01*
X127748787Y-116099870D01*
X127653603Y-115833708D01*
X127586671Y-115708486D01*
X127342702Y-115636903D01*
X126529605Y-116450000D01*
X126170395Y-116450000D01*
X125357298Y-115636903D01*
X125113329Y-115708486D01*
X124992429Y-115963996D01*
X124923700Y-116238184D01*
X124909783Y-116520512D01*
X100163692Y-116520512D01*
X100216250Y-116329443D01*
X100243701Y-115949271D01*
X100196457Y-115571049D01*
X100076333Y-115209310D01*
X99944312Y-114962317D01*
X99649224Y-114830381D01*
X98479605Y-116000000D01*
X98120395Y-116000000D01*
X96950776Y-114830381D01*
X96655688Y-114962317D01*
X96484841Y-115303045D01*
X96383750Y-115670557D01*
X96356299Y-116050729D01*
X93260000Y-116050729D01*
X93260000Y-114650776D01*
X97130381Y-114650776D01*
X98300000Y-115820395D01*
X99469619Y-114650776D01*
X99337683Y-114355688D01*
X98996955Y-114184841D01*
X98629443Y-114083750D01*
X98249271Y-114056299D01*
X97871049Y-114103543D01*
X97509310Y-114223667D01*
X97262317Y-114355688D01*
X97130381Y-114650776D01*
X93260000Y-114650776D01*
X93260000Y-113150000D01*
X124911928Y-113150000D01*
X124911928Y-114750000D01*
X124924188Y-114874482D01*
X124960498Y-114994180D01*
X125019463Y-115104494D01*
X125098815Y-115201185D01*
X125195506Y-115280537D01*
X125305820Y-115339502D01*
X125425518Y-115375812D01*
X125550000Y-115388072D01*
X125557215Y-115388072D01*
X125536903Y-115457298D01*
X126350000Y-116270395D01*
X127163097Y-115457298D01*
X127142785Y-115388072D01*
X127150000Y-115388072D01*
X127274482Y-115375812D01*
X127394180Y-115339502D01*
X127504494Y-115280537D01*
X127601185Y-115201185D01*
X127680537Y-115104494D01*
X127739502Y-114994180D01*
X127775812Y-114874482D01*
X127788072Y-114750000D01*
X127788072Y-113150000D01*
X127775812Y-113025518D01*
X127739502Y-112905820D01*
X127680537Y-112795506D01*
X127601185Y-112698815D01*
X127504494Y-112619463D01*
X127394180Y-112560498D01*
X127274482Y-112524188D01*
X127150000Y-112511928D01*
X125550000Y-112511928D01*
X125425518Y-112524188D01*
X125305820Y-112560498D01*
X125195506Y-112619463D01*
X125098815Y-112698815D01*
X125019463Y-112795506D01*
X124960498Y-112905820D01*
X124924188Y-113025518D01*
X124911928Y-113150000D01*
X93260000Y-113150000D01*
X93260000Y-101050729D01*
X96356299Y-101050729D01*
X96403543Y-101428951D01*
X96523667Y-101790690D01*
X96655688Y-102037683D01*
X96950776Y-102169619D01*
X98120395Y-101000000D01*
X96950776Y-99830381D01*
X96655688Y-99962317D01*
X96484841Y-100303045D01*
X96383750Y-100670557D01*
X96356299Y-101050729D01*
X93260000Y-101050729D01*
X93260000Y-95809419D01*
X96365000Y-95809419D01*
X96365000Y-96190581D01*
X96439361Y-96564419D01*
X96585225Y-96916566D01*
X96796987Y-97233491D01*
X97066509Y-97503013D01*
X97383434Y-97714775D01*
X97735581Y-97860639D01*
X98109419Y-97935000D01*
X98490581Y-97935000D01*
X98864419Y-97860639D01*
X98895985Y-97847564D01*
X99165002Y-98116581D01*
X99165002Y-99269103D01*
X98996955Y-99184841D01*
X98629443Y-99083750D01*
X98249271Y-99056299D01*
X97871049Y-99103543D01*
X97509310Y-99223667D01*
X97262317Y-99355688D01*
X97130381Y-99650776D01*
X98300000Y-100820395D01*
X98314143Y-100806253D01*
X98493748Y-100985858D01*
X98479605Y-101000000D01*
X98493748Y-101014143D01*
X98314143Y-101193748D01*
X98300000Y-101179605D01*
X97130381Y-102349224D01*
X97262317Y-102644312D01*
X97603045Y-102815159D01*
X97970557Y-102916250D01*
X98350729Y-102943701D01*
X98728951Y-102896457D01*
X99090690Y-102776333D01*
X99165002Y-102736612D01*
X99165001Y-104263866D01*
X98864419Y-104139361D01*
X98490581Y-104065000D01*
X98109419Y-104065000D01*
X97735581Y-104139361D01*
X97383434Y-104285225D01*
X97066509Y-104496987D01*
X96796987Y-104766509D01*
X96585225Y-105083434D01*
X96439361Y-105435581D01*
X96365000Y-105809419D01*
X96365000Y-106190581D01*
X96439361Y-106564419D01*
X96585225Y-106916566D01*
X96796987Y-107233491D01*
X97066509Y-107503013D01*
X97383434Y-107714775D01*
X97735581Y-107860639D01*
X98109419Y-107935000D01*
X98490581Y-107935000D01*
X98864419Y-107860639D01*
X99165001Y-107736134D01*
X99165001Y-108883420D01*
X98895985Y-109152436D01*
X98864419Y-109139361D01*
X98490581Y-109065000D01*
X98109419Y-109065000D01*
X97735581Y-109139361D01*
X97383434Y-109285225D01*
X97066509Y-109496987D01*
X96796987Y-109766509D01*
X96585225Y-110083434D01*
X96439361Y-110435581D01*
X96365000Y-110809419D01*
X96365000Y-111190581D01*
X96439361Y-111564419D01*
X96585225Y-111916566D01*
X96796987Y-112233491D01*
X97066509Y-112503013D01*
X97383434Y-112714775D01*
X97735581Y-112860639D01*
X98109419Y-112935000D01*
X98490581Y-112935000D01*
X98864419Y-112860639D01*
X99216566Y-112714775D01*
X99533491Y-112503013D01*
X99803013Y-112233491D01*
X100014775Y-111916566D01*
X100160639Y-111564419D01*
X100235000Y-111190581D01*
X100235000Y-110809419D01*
X100160639Y-110435581D01*
X100147564Y-110404015D01*
X100645051Y-109906528D01*
X100678818Y-109878816D01*
X100711158Y-109839411D01*
X100789411Y-109744059D01*
X100789412Y-109744058D01*
X100871590Y-109590312D01*
X100922196Y-109423489D01*
X100935001Y-109293476D01*
X100935001Y-109293466D01*
X100939282Y-109250000D01*
X100935001Y-109206534D01*
X100935001Y-103500000D01*
X108711928Y-103500000D01*
X108711928Y-105500000D01*
X108724188Y-105624482D01*
X108760498Y-105744180D01*
X108819463Y-105854494D01*
X108898815Y-105951185D01*
X108995506Y-106030537D01*
X109105820Y-106089502D01*
X109225518Y-106125812D01*
X109350000Y-106138072D01*
X111350000Y-106138072D01*
X111474482Y-106125812D01*
X111594180Y-106089502D01*
X111704494Y-106030537D01*
X111801185Y-105951185D01*
X111880537Y-105854494D01*
X111939502Y-105744180D01*
X111972496Y-105635413D01*
X114394192Y-105635413D01*
X114489956Y-105899814D01*
X114779571Y-106040704D01*
X115091108Y-106122384D01*
X115412595Y-106141718D01*
X115731675Y-106097961D01*
X116036088Y-105992795D01*
X116210044Y-105899814D01*
X116305808Y-105635413D01*
X115350000Y-104679605D01*
X114394192Y-105635413D01*
X111972496Y-105635413D01*
X111975812Y-105624482D01*
X111988072Y-105500000D01*
X111988072Y-104562595D01*
X113708282Y-104562595D01*
X113752039Y-104881675D01*
X113857205Y-105186088D01*
X113950186Y-105360044D01*
X114214587Y-105455808D01*
X115170395Y-104500000D01*
X115529605Y-104500000D01*
X116485413Y-105455808D01*
X116749814Y-105360044D01*
X116890704Y-105070429D01*
X116972384Y-104758892D01*
X116991718Y-104437405D01*
X116947961Y-104118325D01*
X116842795Y-103813912D01*
X116749814Y-103639956D01*
X116485413Y-103544192D01*
X115529605Y-104500000D01*
X115170395Y-104500000D01*
X114214587Y-103544192D01*
X113950186Y-103639956D01*
X113809296Y-103929571D01*
X113727616Y-104241108D01*
X113708282Y-104562595D01*
X111988072Y-104562595D01*
X111988072Y-103500000D01*
X111975812Y-103375518D01*
X111972497Y-103364587D01*
X114394192Y-103364587D01*
X115350000Y-104320395D01*
X116305808Y-103364587D01*
X116210044Y-103100186D01*
X115920429Y-102959296D01*
X115608892Y-102877616D01*
X115287405Y-102858282D01*
X114968325Y-102902039D01*
X114663912Y-103007205D01*
X114489956Y-103100186D01*
X114394192Y-103364587D01*
X111972497Y-103364587D01*
X111939502Y-103255820D01*
X111880537Y-103145506D01*
X111801185Y-103048815D01*
X111704494Y-102969463D01*
X111594180Y-102910498D01*
X111474482Y-102874188D01*
X111350000Y-102861928D01*
X109350000Y-102861928D01*
X109225518Y-102874188D01*
X109105820Y-102910498D01*
X108995506Y-102969463D01*
X108898815Y-103048815D01*
X108819463Y-103145506D01*
X108760498Y-103255820D01*
X108724188Y-103375518D01*
X108711928Y-103500000D01*
X100935001Y-103500000D01*
X100935001Y-100706890D01*
X104708524Y-100706890D01*
X104753175Y-100854099D01*
X104878359Y-101116920D01*
X105052412Y-101350269D01*
X105268645Y-101545178D01*
X105518748Y-101694157D01*
X105793109Y-101791481D01*
X106023000Y-101670814D01*
X106023000Y-100477000D01*
X106277000Y-100477000D01*
X106277000Y-101670814D01*
X106506891Y-101791481D01*
X106781252Y-101694157D01*
X107031355Y-101545178D01*
X107247588Y-101350269D01*
X107421641Y-101116920D01*
X107546825Y-100854099D01*
X107591476Y-100706890D01*
X107470155Y-100477000D01*
X106277000Y-100477000D01*
X106023000Y-100477000D01*
X104829845Y-100477000D01*
X104708524Y-100706890D01*
X100935001Y-100706890D01*
X100935001Y-97793466D01*
X100939282Y-97750000D01*
X100935001Y-97706534D01*
X100935001Y-97706524D01*
X100922196Y-97576511D01*
X100871590Y-97409688D01*
X100789412Y-97255942D01*
X100747736Y-97205160D01*
X100706533Y-97154954D01*
X100706531Y-97154952D01*
X100678818Y-97121184D01*
X100645050Y-97093471D01*
X100147564Y-96595985D01*
X100160639Y-96564419D01*
X100235000Y-96190581D01*
X100235000Y-95809419D01*
X100160639Y-95435581D01*
X100014775Y-95083434D01*
X99803013Y-94766509D01*
X99533491Y-94496987D01*
X99216566Y-94285225D01*
X98864419Y-94139361D01*
X98490581Y-94065000D01*
X98109419Y-94065000D01*
X97735581Y-94139361D01*
X97383434Y-94285225D01*
X97066509Y-94496987D01*
X96796987Y-94766509D01*
X96585225Y-95083434D01*
X96439361Y-95435581D01*
X96365000Y-95809419D01*
X93260000Y-95809419D01*
X93260000Y-93127000D01*
X105390001Y-93127000D01*
X105390001Y-93781928D01*
X105300000Y-93781928D01*
X105175518Y-93794188D01*
X105055820Y-93830498D01*
X104945506Y-93889463D01*
X104848815Y-93968815D01*
X104769463Y-94065506D01*
X104710498Y-94175820D01*
X104674188Y-94295518D01*
X104661928Y-94420000D01*
X104661928Y-96120000D01*
X104674188Y-96244482D01*
X104710498Y-96364180D01*
X104769463Y-96474494D01*
X104848815Y-96571185D01*
X104945506Y-96650537D01*
X105055820Y-96709502D01*
X105128380Y-96731513D01*
X104996525Y-96863368D01*
X104834010Y-97106589D01*
X104722068Y-97376842D01*
X104665000Y-97663740D01*
X104665000Y-97956260D01*
X104722068Y-98243158D01*
X104834010Y-98513411D01*
X104996525Y-98756632D01*
X105203368Y-98963475D01*
X105385534Y-99085195D01*
X105268645Y-99154822D01*
X105052412Y-99349731D01*
X104878359Y-99583080D01*
X104753175Y-99845901D01*
X104708524Y-99993110D01*
X104829845Y-100223000D01*
X106023000Y-100223000D01*
X106023000Y-100203000D01*
X106277000Y-100203000D01*
X106277000Y-100223000D01*
X107470155Y-100223000D01*
X107591476Y-99993110D01*
X107546825Y-99845901D01*
X107421641Y-99583080D01*
X107247588Y-99349731D01*
X107031355Y-99154822D01*
X106914466Y-99085195D01*
X107096632Y-98963475D01*
X107303475Y-98756632D01*
X107465990Y-98513411D01*
X107577932Y-98243158D01*
X107635000Y-97956260D01*
X107635000Y-97663740D01*
X107577932Y-97376842D01*
X107465990Y-97106589D01*
X107303475Y-96863368D01*
X107171620Y-96731513D01*
X107244180Y-96709502D01*
X107354494Y-96650537D01*
X107451185Y-96571185D01*
X107530537Y-96474494D01*
X107589502Y-96364180D01*
X107625812Y-96244482D01*
X107638072Y-96120000D01*
X107638072Y-94420000D01*
X107625812Y-94295518D01*
X107589502Y-94175820D01*
X107530537Y-94065506D01*
X107451185Y-93968815D01*
X107354494Y-93889463D01*
X107244180Y-93830498D01*
X107124482Y-93794188D01*
X107000000Y-93781928D01*
X106910000Y-93781928D01*
X106910000Y-93127000D01*
X132075203Y-93127000D01*
X133067246Y-94119043D01*
X132996063Y-94190226D01*
X132882795Y-94359744D01*
X132804774Y-94548102D01*
X132765000Y-94748061D01*
X132765000Y-94951939D01*
X132804774Y-95151898D01*
X132882795Y-95340256D01*
X132996063Y-95509774D01*
X133140226Y-95653937D01*
X133309744Y-95767205D01*
X133498102Y-95845226D01*
X133554957Y-95856535D01*
X134015001Y-96316580D01*
X134015000Y-101665198D01*
X129713804Y-97364003D01*
X129690001Y-97334999D01*
X129574276Y-97240026D01*
X129442247Y-97169454D01*
X129298986Y-97125997D01*
X129187333Y-97115000D01*
X129187322Y-97115000D01*
X129150000Y-97111324D01*
X129112678Y-97115000D01*
X117378711Y-97115000D01*
X117334774Y-97071063D01*
X117165256Y-96957795D01*
X116976898Y-96879774D01*
X116776939Y-96840000D01*
X116573061Y-96840000D01*
X116373102Y-96879774D01*
X116184744Y-96957795D01*
X116015226Y-97071063D01*
X115871063Y-97215226D01*
X115757795Y-97384744D01*
X115679774Y-97573102D01*
X115640000Y-97773061D01*
X115640000Y-97976939D01*
X115679774Y-98176898D01*
X115757795Y-98365256D01*
X115871063Y-98534774D01*
X116015226Y-98678937D01*
X116184744Y-98792205D01*
X116373102Y-98870226D01*
X116573061Y-98910000D01*
X116776939Y-98910000D01*
X116976898Y-98870226D01*
X117165256Y-98792205D01*
X117334774Y-98678937D01*
X117378711Y-98635000D01*
X128835199Y-98635000D01*
X133115000Y-102914802D01*
X133115000Y-102976939D01*
X133154774Y-103176898D01*
X133232795Y-103365256D01*
X133346063Y-103534774D01*
X133490226Y-103678937D01*
X133659744Y-103792205D01*
X133848102Y-103870226D01*
X134048061Y-103910000D01*
X134251939Y-103910000D01*
X134451898Y-103870226D01*
X134640256Y-103792205D01*
X134809774Y-103678937D01*
X134885067Y-103603644D01*
X135315000Y-104033577D01*
X135314999Y-112209640D01*
X135090581Y-112165000D01*
X134709419Y-112165000D01*
X134335581Y-112239361D01*
X133983434Y-112385225D01*
X133666509Y-112596987D01*
X133396987Y-112866509D01*
X133185225Y-113183434D01*
X133039361Y-113535581D01*
X132965000Y-113909419D01*
X132965000Y-114290581D01*
X133039361Y-114664419D01*
X133185225Y-115016566D01*
X133396987Y-115333491D01*
X133663496Y-115600000D01*
X133396987Y-115866509D01*
X133185225Y-116183434D01*
X133039361Y-116535581D01*
X132965000Y-116909419D01*
X132965000Y-117290581D01*
X133039361Y-117664419D01*
X133185225Y-118016566D01*
X133396987Y-118333491D01*
X133666509Y-118603013D01*
X133983434Y-118814775D01*
X134335581Y-118960639D01*
X134709419Y-119035000D01*
X135090581Y-119035000D01*
X135464419Y-118960639D01*
X135816566Y-118814775D01*
X136133491Y-118603013D01*
X136403013Y-118333491D01*
X136614775Y-118016566D01*
X136760639Y-117664419D01*
X136835000Y-117290581D01*
X136835000Y-116909419D01*
X136760639Y-116535581D01*
X136614775Y-116183434D01*
X136403013Y-115866509D01*
X136136504Y-115600000D01*
X136403013Y-115333491D01*
X136614775Y-115016566D01*
X136760639Y-114664419D01*
X136835000Y-114290581D01*
X136835000Y-113909419D01*
X136760639Y-113535581D01*
X136747564Y-113504015D01*
X136795049Y-113456530D01*
X136828816Y-113428818D01*
X136856532Y-113395046D01*
X140495051Y-109756528D01*
X140528817Y-109728817D01*
X140620416Y-109617205D01*
X140639411Y-109594059D01*
X140641414Y-109590311D01*
X140721589Y-109440313D01*
X140772195Y-109273490D01*
X140785000Y-109143477D01*
X140785000Y-109143469D01*
X140789281Y-109100000D01*
X140785000Y-109056531D01*
X140785000Y-108038454D01*
X140817205Y-107990256D01*
X140895226Y-107801898D01*
X140935000Y-107601939D01*
X140935000Y-107398061D01*
X140931708Y-107381509D01*
X146053946Y-112503748D01*
X145923102Y-112529774D01*
X145734744Y-112607795D01*
X145565226Y-112721063D01*
X145421063Y-112865226D01*
X145307795Y-113034744D01*
X145229774Y-113223102D01*
X145190000Y-113423061D01*
X145190000Y-113626939D01*
X145229774Y-113826898D01*
X145307795Y-114015256D01*
X145421063Y-114184774D01*
X145565226Y-114328937D01*
X145734744Y-114442205D01*
X145923102Y-114520226D01*
X146123061Y-114560000D01*
X146185199Y-114560000D01*
X152161201Y-120536003D01*
X152184999Y-120565001D01*
X152213997Y-120588799D01*
X152300723Y-120659974D01*
X152432753Y-120730546D01*
X152576014Y-120774003D01*
X152687667Y-120785000D01*
X152687676Y-120785000D01*
X152724999Y-120788676D01*
X152762322Y-120785000D01*
X154696289Y-120785000D01*
X154740226Y-120828937D01*
X154909744Y-120942205D01*
X155098102Y-121020226D01*
X155298061Y-121060000D01*
X155501939Y-121060000D01*
X155701898Y-121020226D01*
X155890256Y-120942205D01*
X156059774Y-120828937D01*
X156203937Y-120684774D01*
X156317205Y-120515256D01*
X156395226Y-120326898D01*
X156435000Y-120126939D01*
X156435000Y-119923061D01*
X156395226Y-119723102D01*
X156317205Y-119534744D01*
X156203937Y-119365226D01*
X156059774Y-119221063D01*
X155890256Y-119107795D01*
X155701898Y-119029774D01*
X155501939Y-118990000D01*
X155298061Y-118990000D01*
X155098102Y-119029774D01*
X154909744Y-119107795D01*
X154740226Y-119221063D01*
X154696289Y-119265000D01*
X153039802Y-119265000D01*
X149846054Y-116071252D01*
X149976898Y-116045226D01*
X150165256Y-115967205D01*
X150334774Y-115853937D01*
X150478937Y-115709774D01*
X150592205Y-115540256D01*
X150670226Y-115351898D01*
X150710000Y-115151939D01*
X150710000Y-114948061D01*
X150670226Y-114748102D01*
X150592205Y-114559744D01*
X150478937Y-114390226D01*
X150334774Y-114246063D01*
X150165256Y-114132795D01*
X149976898Y-114054774D01*
X149776939Y-114015000D01*
X149714802Y-114015000D01*
X143609801Y-107910000D01*
X146371289Y-107910000D01*
X146415226Y-107953937D01*
X146584744Y-108067205D01*
X146773102Y-108145226D01*
X146973061Y-108185000D01*
X147176939Y-108185000D01*
X147376898Y-108145226D01*
X147565256Y-108067205D01*
X147690001Y-107983853D01*
X147690000Y-110146289D01*
X147646063Y-110190226D01*
X147532795Y-110359744D01*
X147454774Y-110548102D01*
X147415000Y-110748061D01*
X147415000Y-110951939D01*
X147454774Y-111151898D01*
X147532795Y-111340256D01*
X147646063Y-111509774D01*
X147790226Y-111653937D01*
X147959744Y-111767205D01*
X148148102Y-111845226D01*
X148348061Y-111885000D01*
X148551939Y-111885000D01*
X148751898Y-111845226D01*
X148940256Y-111767205D01*
X149109774Y-111653937D01*
X149253937Y-111509774D01*
X149367205Y-111340256D01*
X149445226Y-111151898D01*
X149485000Y-110951939D01*
X149485000Y-110748061D01*
X149445226Y-110548102D01*
X149367205Y-110359744D01*
X149253937Y-110190226D01*
X149210000Y-110146289D01*
X149210000Y-107489320D01*
X149213676Y-107451997D01*
X149210000Y-107414674D01*
X149210000Y-107414665D01*
X149199003Y-107303012D01*
X149155546Y-107159751D01*
X149084974Y-107027722D01*
X148990001Y-106911997D01*
X148961003Y-106888199D01*
X147060000Y-104987197D01*
X147060000Y-104978711D01*
X147103937Y-104934774D01*
X147217205Y-104765256D01*
X147295226Y-104576898D01*
X147335000Y-104376939D01*
X147335000Y-104173061D01*
X147295226Y-103973102D01*
X147217205Y-103784744D01*
X147103937Y-103615226D01*
X147022018Y-103533307D01*
X151236004Y-99319322D01*
X151265001Y-99295525D01*
X151359974Y-99179800D01*
X151430546Y-99047771D01*
X151474003Y-98904510D01*
X151485000Y-98792857D01*
X151485000Y-98792856D01*
X151488677Y-98755524D01*
X151485000Y-98718191D01*
X151485000Y-92303711D01*
X151528937Y-92259774D01*
X151642205Y-92090256D01*
X151720226Y-91901898D01*
X151760000Y-91701939D01*
X151760000Y-91498061D01*
X151720226Y-91298102D01*
X151642205Y-91109744D01*
X151528937Y-90940226D01*
X151384774Y-90796063D01*
X151215256Y-90682795D01*
X151026898Y-90604774D01*
X150826939Y-90565000D01*
X150623061Y-90565000D01*
X150423102Y-90604774D01*
X150234744Y-90682795D01*
X150065226Y-90796063D01*
X149921063Y-90940226D01*
X149807795Y-91109744D01*
X149729774Y-91298102D01*
X149690000Y-91498061D01*
X149690000Y-91701939D01*
X149729774Y-91901898D01*
X149807795Y-92090256D01*
X149921063Y-92259774D01*
X149965001Y-92303712D01*
X149965000Y-98440722D01*
X147101430Y-101304292D01*
X147095226Y-101273102D01*
X147017205Y-101084744D01*
X146903937Y-100915226D01*
X146860000Y-100871289D01*
X146860000Y-99523470D01*
X146878109Y-99535570D01*
X147066467Y-99613591D01*
X147266426Y-99653365D01*
X147470304Y-99653365D01*
X147670263Y-99613591D01*
X147858621Y-99535570D01*
X148028139Y-99422302D01*
X148172302Y-99278139D01*
X148285570Y-99108621D01*
X148363591Y-98920263D01*
X148403365Y-98720304D01*
X148403365Y-98516426D01*
X148363591Y-98316467D01*
X148335041Y-98247541D01*
X148403967Y-98276091D01*
X148603926Y-98315865D01*
X148807804Y-98315865D01*
X149007763Y-98276091D01*
X149196121Y-98198070D01*
X149365639Y-98084802D01*
X149509802Y-97940639D01*
X149623070Y-97771121D01*
X149701091Y-97582763D01*
X149740865Y-97382804D01*
X149740865Y-97178926D01*
X149701091Y-96978967D01*
X149623070Y-96790609D01*
X149509802Y-96621091D01*
X149465865Y-96577154D01*
X149465865Y-93343187D01*
X149469541Y-93305864D01*
X149465865Y-93268541D01*
X149465865Y-93268532D01*
X149454868Y-93156879D01*
X149411411Y-93013618D01*
X149340839Y-92881589D01*
X149303856Y-92836525D01*
X149269664Y-92794861D01*
X149269660Y-92794857D01*
X149245866Y-92765864D01*
X149216874Y-92742071D01*
X148291210Y-91816408D01*
X148335000Y-91596260D01*
X148335000Y-91303740D01*
X148277932Y-91016842D01*
X148165990Y-90746589D01*
X148003475Y-90503368D01*
X147796632Y-90296525D01*
X147622240Y-90180000D01*
X147796632Y-90063475D01*
X148003475Y-89856632D01*
X148165990Y-89613411D01*
X148277932Y-89343158D01*
X148335000Y-89056260D01*
X148335000Y-88763740D01*
X148277932Y-88476842D01*
X148165990Y-88206589D01*
X148003475Y-87963368D01*
X147796632Y-87756525D01*
X147553411Y-87594010D01*
X147283158Y-87482068D01*
X146996260Y-87425000D01*
X146703740Y-87425000D01*
X146631040Y-87439461D01*
X146173973Y-86982395D01*
X146146256Y-86948622D01*
X146011498Y-86838028D01*
X145857752Y-86755850D01*
X145690929Y-86705244D01*
X145560916Y-86692439D01*
X145560908Y-86692439D01*
X145517439Y-86688158D01*
X145473970Y-86692439D01*
X141663433Y-86692439D01*
X141615235Y-86660234D01*
X141426877Y-86582213D01*
X141226918Y-86542439D01*
X141150000Y-86542439D01*
X141150000Y-80257323D01*
X141153676Y-80220000D01*
X141150000Y-80182677D01*
X141150000Y-80182667D01*
X141139003Y-80071014D01*
X141095546Y-79927753D01*
X141032604Y-79809998D01*
X141024974Y-79795723D01*
X140953799Y-79708997D01*
X140930001Y-79679999D01*
X140901004Y-79656202D01*
X140727000Y-79482198D01*
X140727000Y-73109419D01*
X171065000Y-73109419D01*
X171065000Y-73490581D01*
X171139361Y-73864419D01*
X171285225Y-74216566D01*
X171496987Y-74533491D01*
X171766509Y-74803013D01*
X172083434Y-75014775D01*
X172435581Y-75160639D01*
X172809419Y-75235000D01*
X173190581Y-75235000D01*
X173564419Y-75160639D01*
X173916566Y-75014775D01*
X174233491Y-74803013D01*
X174503013Y-74533491D01*
X174714775Y-74216566D01*
X174860639Y-73864419D01*
X174935000Y-73490581D01*
X174935000Y-73109419D01*
X174860639Y-72735581D01*
X174714775Y-72383434D01*
X174503013Y-72066509D01*
X174233491Y-71796987D01*
X173916566Y-71585225D01*
X173564419Y-71439361D01*
X173190581Y-71365000D01*
X172809419Y-71365000D01*
X172435581Y-71439361D01*
X172083434Y-71585225D01*
X171766509Y-71796987D01*
X171496987Y-72066509D01*
X171285225Y-72383434D01*
X171139361Y-72735581D01*
X171065000Y-73109419D01*
X140727000Y-73109419D01*
X140727000Y-68109419D01*
X171065000Y-68109419D01*
X171065000Y-68490581D01*
X171139361Y-68864419D01*
X171285225Y-69216566D01*
X171496987Y-69533491D01*
X171766509Y-69803013D01*
X172083434Y-70014775D01*
X172435581Y-70160639D01*
X172809419Y-70235000D01*
X173190581Y-70235000D01*
X173564419Y-70160639D01*
X173916566Y-70014775D01*
X174233491Y-69803013D01*
X174503013Y-69533491D01*
X174714775Y-69216566D01*
X174860639Y-68864419D01*
X174935000Y-68490581D01*
X174935000Y-68109419D01*
X174860639Y-67735581D01*
X174714775Y-67383434D01*
X174503013Y-67066509D01*
X174233491Y-66796987D01*
X173916566Y-66585225D01*
X173564419Y-66439361D01*
X173190581Y-66365000D01*
X172809419Y-66365000D01*
X172435581Y-66439361D01*
X172083434Y-66585225D01*
X171766509Y-66796987D01*
X171496987Y-67066509D01*
X171285225Y-67383434D01*
X171139361Y-67735581D01*
X171065000Y-68109419D01*
X140727000Y-68109419D01*
X140727000Y-63109419D01*
X171065000Y-63109419D01*
X171065000Y-63490581D01*
X171139361Y-63864419D01*
X171285225Y-64216566D01*
X171496987Y-64533491D01*
X171766509Y-64803013D01*
X172083434Y-65014775D01*
X172435581Y-65160639D01*
X172809419Y-65235000D01*
X173190581Y-65235000D01*
X173564419Y-65160639D01*
X173916566Y-65014775D01*
X174233491Y-64803013D01*
X174503013Y-64533491D01*
X174714775Y-64216566D01*
X174860639Y-63864419D01*
X174935000Y-63490581D01*
X174935000Y-63109419D01*
X174860639Y-62735581D01*
X174714775Y-62383434D01*
X174503013Y-62066509D01*
X174233491Y-61796987D01*
X173916566Y-61585225D01*
X173564419Y-61439361D01*
X173190581Y-61365000D01*
X172809419Y-61365000D01*
X172435581Y-61439361D01*
X172083434Y-61585225D01*
X171766509Y-61796987D01*
X171496987Y-62066509D01*
X171285225Y-62383434D01*
X171139361Y-62735581D01*
X171065000Y-63109419D01*
X140727000Y-63109419D01*
X140727000Y-59810000D01*
X177440001Y-59810000D01*
X177440000Y-124490000D01*
%TA.AperFunction,Conductor*%
D25*
G36*
X177440000Y-124490000D02*
G01*
X158788355Y-124490000D01*
X160854094Y-122424261D01*
X160892633Y-122392633D01*
X161018847Y-122238840D01*
X161112632Y-122063380D01*
X161170385Y-121872994D01*
X161185000Y-121724608D01*
X161185000Y-121724606D01*
X161189886Y-121675001D01*
X161185000Y-121625396D01*
X161185000Y-119700000D01*
X171061928Y-119700000D01*
X171061928Y-122300000D01*
X171074188Y-122424482D01*
X171110498Y-122544180D01*
X171169463Y-122654494D01*
X171248815Y-122751185D01*
X171345506Y-122830537D01*
X171455820Y-122889502D01*
X171575518Y-122925812D01*
X171700000Y-122938072D01*
X174300000Y-122938072D01*
X174424482Y-122925812D01*
X174544180Y-122889502D01*
X174654494Y-122830537D01*
X174751185Y-122751185D01*
X174830537Y-122654494D01*
X174889502Y-122544180D01*
X174925812Y-122424482D01*
X174938072Y-122300000D01*
X174938072Y-119700000D01*
X174925812Y-119575518D01*
X174889502Y-119455820D01*
X174830537Y-119345506D01*
X174751185Y-119248815D01*
X174654494Y-119169463D01*
X174544180Y-119110498D01*
X174424482Y-119074188D01*
X174300000Y-119061928D01*
X171700000Y-119061928D01*
X171575518Y-119074188D01*
X171455820Y-119110498D01*
X171345506Y-119169463D01*
X171248815Y-119248815D01*
X171169463Y-119345506D01*
X171110498Y-119455820D01*
X171074188Y-119575518D01*
X171061928Y-119700000D01*
X161185000Y-119700000D01*
X161185000Y-118852623D01*
X161210000Y-118726939D01*
X161210000Y-118523061D01*
X161185000Y-118397377D01*
X161185000Y-115809419D01*
X171065000Y-115809419D01*
X171065000Y-116190581D01*
X171139361Y-116564419D01*
X171285225Y-116916566D01*
X171496987Y-117233491D01*
X171766509Y-117503013D01*
X172083434Y-117714775D01*
X172435581Y-117860639D01*
X172809419Y-117935000D01*
X173190581Y-117935000D01*
X173564419Y-117860639D01*
X173916566Y-117714775D01*
X174233491Y-117503013D01*
X174503013Y-117233491D01*
X174714775Y-116916566D01*
X174860639Y-116564419D01*
X174935000Y-116190581D01*
X174935000Y-115809419D01*
X174860639Y-115435581D01*
X174714775Y-115083434D01*
X174503013Y-114766509D01*
X174233491Y-114496987D01*
X173916566Y-114285225D01*
X173564419Y-114139361D01*
X173190581Y-114065000D01*
X172809419Y-114065000D01*
X172435581Y-114139361D01*
X172083434Y-114285225D01*
X171766509Y-114496987D01*
X171496987Y-114766509D01*
X171285225Y-115083434D01*
X171139361Y-115435581D01*
X171065000Y-115809419D01*
X161185000Y-115809419D01*
X161185000Y-110809419D01*
X171065000Y-110809419D01*
X171065000Y-111190581D01*
X171139361Y-111564419D01*
X171285225Y-111916566D01*
X171496987Y-112233491D01*
X171766509Y-112503013D01*
X172083434Y-112714775D01*
X172435581Y-112860639D01*
X172809419Y-112935000D01*
X173190581Y-112935000D01*
X173564419Y-112860639D01*
X173916566Y-112714775D01*
X174233491Y-112503013D01*
X174503013Y-112233491D01*
X174714775Y-111916566D01*
X174860639Y-111564419D01*
X174935000Y-111190581D01*
X174935000Y-110809419D01*
X174860639Y-110435581D01*
X174714775Y-110083434D01*
X174503013Y-109766509D01*
X174233491Y-109496987D01*
X173916566Y-109285225D01*
X173564419Y-109139361D01*
X173190581Y-109065000D01*
X172809419Y-109065000D01*
X172435581Y-109139361D01*
X172083434Y-109285225D01*
X171766509Y-109496987D01*
X171496987Y-109766509D01*
X171285225Y-110083434D01*
X171139361Y-110435581D01*
X171065000Y-110809419D01*
X161185000Y-110809419D01*
X161185000Y-108927623D01*
X161210000Y-108801939D01*
X161210000Y-108598061D01*
X161185000Y-108472377D01*
X161185000Y-105809419D01*
X171065000Y-105809419D01*
X171065000Y-106190581D01*
X171139361Y-106564419D01*
X171285225Y-106916566D01*
X171496987Y-107233491D01*
X171766509Y-107503013D01*
X172083434Y-107714775D01*
X172435581Y-107860639D01*
X172809419Y-107935000D01*
X173190581Y-107935000D01*
X173564419Y-107860639D01*
X173916566Y-107714775D01*
X174233491Y-107503013D01*
X174503013Y-107233491D01*
X174714775Y-106916566D01*
X174860639Y-106564419D01*
X174935000Y-106190581D01*
X174935000Y-105809419D01*
X174860639Y-105435581D01*
X174714775Y-105083434D01*
X174503013Y-104766509D01*
X174233491Y-104496987D01*
X173916566Y-104285225D01*
X173564419Y-104139361D01*
X173190581Y-104065000D01*
X172809419Y-104065000D01*
X172435581Y-104139361D01*
X172083434Y-104285225D01*
X171766509Y-104496987D01*
X171496987Y-104766509D01*
X171285225Y-105083434D01*
X171139361Y-105435581D01*
X171065000Y-105809419D01*
X161185000Y-105809419D01*
X161185000Y-100809419D01*
X171065000Y-100809419D01*
X171065000Y-101190581D01*
X171139361Y-101564419D01*
X171285225Y-101916566D01*
X171496987Y-102233491D01*
X171766509Y-102503013D01*
X172083434Y-102714775D01*
X172435581Y-102860639D01*
X172809419Y-102935000D01*
X173190581Y-102935000D01*
X173564419Y-102860639D01*
X173916566Y-102714775D01*
X174233491Y-102503013D01*
X174503013Y-102233491D01*
X174714775Y-101916566D01*
X174860639Y-101564419D01*
X174935000Y-101190581D01*
X174935000Y-100809419D01*
X174860639Y-100435581D01*
X174714775Y-100083434D01*
X174503013Y-99766509D01*
X174233491Y-99496987D01*
X173916566Y-99285225D01*
X173564419Y-99139361D01*
X173190581Y-99065000D01*
X172809419Y-99065000D01*
X172435581Y-99139361D01*
X172083434Y-99285225D01*
X171766509Y-99496987D01*
X171496987Y-99766509D01*
X171285225Y-100083434D01*
X171139361Y-100435581D01*
X171065000Y-100809419D01*
X161185000Y-100809419D01*
X161185000Y-98852623D01*
X161210000Y-98726939D01*
X161210000Y-98523061D01*
X161185000Y-98397377D01*
X161185000Y-95809419D01*
X171065000Y-95809419D01*
X171065000Y-96190581D01*
X171139361Y-96564419D01*
X171285225Y-96916566D01*
X171496987Y-97233491D01*
X171766509Y-97503013D01*
X172083434Y-97714775D01*
X172435581Y-97860639D01*
X172809419Y-97935000D01*
X173190581Y-97935000D01*
X173564419Y-97860639D01*
X173916566Y-97714775D01*
X174233491Y-97503013D01*
X174503013Y-97233491D01*
X174714775Y-96916566D01*
X174860639Y-96564419D01*
X174935000Y-96190581D01*
X174935000Y-95809419D01*
X174860639Y-95435581D01*
X174714775Y-95083434D01*
X174503013Y-94766509D01*
X174233491Y-94496987D01*
X173916566Y-94285225D01*
X173564419Y-94139361D01*
X173190581Y-94065000D01*
X172809419Y-94065000D01*
X172435581Y-94139361D01*
X172083434Y-94285225D01*
X171766509Y-94496987D01*
X171496987Y-94766509D01*
X171285225Y-95083434D01*
X171139361Y-95435581D01*
X171065000Y-95809419D01*
X161185000Y-95809419D01*
X161185000Y-87000000D01*
X171061928Y-87000000D01*
X171061928Y-89600000D01*
X171074188Y-89724482D01*
X171110498Y-89844180D01*
X171169463Y-89954494D01*
X171248815Y-90051185D01*
X171345506Y-90130537D01*
X171455820Y-90189502D01*
X171575518Y-90225812D01*
X171700000Y-90238072D01*
X174300000Y-90238072D01*
X174424482Y-90225812D01*
X174544180Y-90189502D01*
X174654494Y-90130537D01*
X174751185Y-90051185D01*
X174830537Y-89954494D01*
X174889502Y-89844180D01*
X174925812Y-89724482D01*
X174938072Y-89600000D01*
X174938072Y-87000000D01*
X174925812Y-86875518D01*
X174889502Y-86755820D01*
X174830537Y-86645506D01*
X174751185Y-86548815D01*
X174654494Y-86469463D01*
X174544180Y-86410498D01*
X174424482Y-86374188D01*
X174300000Y-86361928D01*
X171700000Y-86361928D01*
X171575518Y-86374188D01*
X171455820Y-86410498D01*
X171345506Y-86469463D01*
X171248815Y-86548815D01*
X171169463Y-86645506D01*
X171110498Y-86755820D01*
X171074188Y-86875518D01*
X171061928Y-87000000D01*
X161185000Y-87000000D01*
X161185000Y-86177623D01*
X161210000Y-86051939D01*
X161210000Y-85848061D01*
X161185000Y-85722377D01*
X161185000Y-83109419D01*
X171065000Y-83109419D01*
X171065000Y-83490581D01*
X171139361Y-83864419D01*
X171285225Y-84216566D01*
X171496987Y-84533491D01*
X171766509Y-84803013D01*
X172083434Y-85014775D01*
X172435581Y-85160639D01*
X172809419Y-85235000D01*
X173190581Y-85235000D01*
X173564419Y-85160639D01*
X173916566Y-85014775D01*
X174233491Y-84803013D01*
X174503013Y-84533491D01*
X174714775Y-84216566D01*
X174860639Y-83864419D01*
X174935000Y-83490581D01*
X174935000Y-83109419D01*
X174860639Y-82735581D01*
X174714775Y-82383434D01*
X174503013Y-82066509D01*
X174233491Y-81796987D01*
X173916566Y-81585225D01*
X173564419Y-81439361D01*
X173190581Y-81365000D01*
X172809419Y-81365000D01*
X172435581Y-81439361D01*
X172083434Y-81585225D01*
X171766509Y-81796987D01*
X171496987Y-82066509D01*
X171285225Y-82383434D01*
X171139361Y-82735581D01*
X171065000Y-83109419D01*
X161185000Y-83109419D01*
X161185000Y-78109419D01*
X171065000Y-78109419D01*
X171065000Y-78490581D01*
X171139361Y-78864419D01*
X171285225Y-79216566D01*
X171496987Y-79533491D01*
X171766509Y-79803013D01*
X172083434Y-80014775D01*
X172435581Y-80160639D01*
X172809419Y-80235000D01*
X173190581Y-80235000D01*
X173564419Y-80160639D01*
X173916566Y-80014775D01*
X174233491Y-79803013D01*
X174503013Y-79533491D01*
X174714775Y-79216566D01*
X174860639Y-78864419D01*
X174935000Y-78490581D01*
X174935000Y-78109419D01*
X174860639Y-77735581D01*
X174714775Y-77383434D01*
X174503013Y-77066509D01*
X174233491Y-76796987D01*
X173916566Y-76585225D01*
X173564419Y-76439361D01*
X173190581Y-76365000D01*
X172809419Y-76365000D01*
X172435581Y-76439361D01*
X172083434Y-76585225D01*
X171766509Y-76796987D01*
X171496987Y-77066509D01*
X171285225Y-77383434D01*
X171139361Y-77735581D01*
X171065000Y-78109419D01*
X161185000Y-78109419D01*
X161185000Y-76127623D01*
X161210000Y-76001939D01*
X161210000Y-75798061D01*
X161170226Y-75598102D01*
X161092205Y-75409744D01*
X160978937Y-75240226D01*
X160834774Y-75096063D01*
X160665256Y-74982795D01*
X160476898Y-74904774D01*
X160276939Y-74865000D01*
X160073061Y-74865000D01*
X159873102Y-74904774D01*
X159684744Y-74982795D01*
X159515226Y-75096063D01*
X159371063Y-75240226D01*
X159257795Y-75409744D01*
X159179774Y-75598102D01*
X159140000Y-75798061D01*
X159140000Y-76001939D01*
X159165001Y-76127628D01*
X159165000Y-85722376D01*
X159140000Y-85848061D01*
X159140000Y-86051939D01*
X159165001Y-86177628D01*
X159165000Y-98397376D01*
X159140000Y-98523061D01*
X159140000Y-98726939D01*
X159165001Y-98852628D01*
X159165000Y-108472376D01*
X159140000Y-108598061D01*
X159140000Y-108801939D01*
X159165001Y-108927628D01*
X159165000Y-118397376D01*
X159140000Y-118523061D01*
X159140000Y-118726939D01*
X159165001Y-118852628D01*
X159165000Y-121256645D01*
X157456645Y-122965000D01*
X121952623Y-122965000D01*
X121826939Y-122940000D01*
X121623061Y-122940000D01*
X121423102Y-122979774D01*
X121234744Y-123057795D01*
X121065226Y-123171063D01*
X120921063Y-123315226D01*
X120807795Y-123484744D01*
X120729774Y-123673102D01*
X120690000Y-123873061D01*
X120690000Y-124076939D01*
X120729774Y-124276898D01*
X120807795Y-124465256D01*
X120824328Y-124490000D01*
X93260000Y-124490000D01*
X93260000Y-119700000D01*
X96361928Y-119700000D01*
X96361928Y-122300000D01*
X96374188Y-122424482D01*
X96410498Y-122544180D01*
X96469463Y-122654494D01*
X96548815Y-122751185D01*
X96645506Y-122830537D01*
X96755820Y-122889502D01*
X96875518Y-122925812D01*
X97000000Y-122938072D01*
X99600000Y-122938072D01*
X99724482Y-122925812D01*
X99844180Y-122889502D01*
X99954494Y-122830537D01*
X100051185Y-122751185D01*
X100130537Y-122654494D01*
X100189502Y-122544180D01*
X100225812Y-122424482D01*
X100238072Y-122300000D01*
X100238072Y-119700000D01*
X100225812Y-119575518D01*
X100189502Y-119455820D01*
X100130537Y-119345506D01*
X100051185Y-119248815D01*
X99954494Y-119169463D01*
X99844180Y-119110498D01*
X99724482Y-119074188D01*
X99600000Y-119061928D01*
X97000000Y-119061928D01*
X96875518Y-119074188D01*
X96755820Y-119110498D01*
X96645506Y-119169463D01*
X96548815Y-119248815D01*
X96469463Y-119345506D01*
X96410498Y-119455820D01*
X96374188Y-119575518D01*
X96361928Y-119700000D01*
X93260000Y-119700000D01*
X93260000Y-117349224D01*
X97130381Y-117349224D01*
X97262317Y-117644312D01*
X97603045Y-117815159D01*
X97970557Y-117916250D01*
X98350729Y-117943701D01*
X98728951Y-117896457D01*
X99090690Y-117776333D01*
X99337683Y-117644312D01*
X99427824Y-117442702D01*
X125536903Y-117442702D01*
X125608486Y-117686671D01*
X125863996Y-117807571D01*
X126138184Y-117876300D01*
X126420512Y-117890217D01*
X126700130Y-117848787D01*
X126966292Y-117753603D01*
X127091514Y-117686671D01*
X127163097Y-117442702D01*
X126350000Y-116629605D01*
X125536903Y-117442702D01*
X99427824Y-117442702D01*
X99469619Y-117349224D01*
X98300000Y-116179605D01*
X97130381Y-117349224D01*
X93260000Y-117349224D01*
X93260000Y-116050729D01*
X96356299Y-116050729D01*
X96403543Y-116428951D01*
X96523667Y-116790690D01*
X96655688Y-117037683D01*
X96950776Y-117169619D01*
X98120395Y-116000000D01*
X98479605Y-116000000D01*
X99649224Y-117169619D01*
X99944312Y-117037683D01*
X100115159Y-116696955D01*
X100163692Y-116520512D01*
X124909783Y-116520512D01*
X124951213Y-116800130D01*
X125046397Y-117066292D01*
X125113329Y-117191514D01*
X125357298Y-117263097D01*
X126170395Y-116450000D01*
X126529605Y-116450000D01*
X127342702Y-117263097D01*
X127586671Y-117191514D01*
X127707571Y-116936004D01*
X127776300Y-116661816D01*
X127790217Y-116379488D01*
X127748787Y-116099870D01*
X127653603Y-115833708D01*
X127586671Y-115708486D01*
X127342702Y-115636903D01*
X126529605Y-116450000D01*
X126170395Y-116450000D01*
X125357298Y-115636903D01*
X125113329Y-115708486D01*
X124992429Y-115963996D01*
X124923700Y-116238184D01*
X124909783Y-116520512D01*
X100163692Y-116520512D01*
X100216250Y-116329443D01*
X100243701Y-115949271D01*
X100196457Y-115571049D01*
X100076333Y-115209310D01*
X99944312Y-114962317D01*
X99649224Y-114830381D01*
X98479605Y-116000000D01*
X98120395Y-116000000D01*
X96950776Y-114830381D01*
X96655688Y-114962317D01*
X96484841Y-115303045D01*
X96383750Y-115670557D01*
X96356299Y-116050729D01*
X93260000Y-116050729D01*
X93260000Y-114650776D01*
X97130381Y-114650776D01*
X98300000Y-115820395D01*
X99469619Y-114650776D01*
X99337683Y-114355688D01*
X98996955Y-114184841D01*
X98629443Y-114083750D01*
X98249271Y-114056299D01*
X97871049Y-114103543D01*
X97509310Y-114223667D01*
X97262317Y-114355688D01*
X97130381Y-114650776D01*
X93260000Y-114650776D01*
X93260000Y-113150000D01*
X124911928Y-113150000D01*
X124911928Y-114750000D01*
X124924188Y-114874482D01*
X124960498Y-114994180D01*
X125019463Y-115104494D01*
X125098815Y-115201185D01*
X125195506Y-115280537D01*
X125305820Y-115339502D01*
X125425518Y-115375812D01*
X125550000Y-115388072D01*
X125557215Y-115388072D01*
X125536903Y-115457298D01*
X126350000Y-116270395D01*
X127163097Y-115457298D01*
X127142785Y-115388072D01*
X127150000Y-115388072D01*
X127274482Y-115375812D01*
X127394180Y-115339502D01*
X127504494Y-115280537D01*
X127601185Y-115201185D01*
X127680537Y-115104494D01*
X127739502Y-114994180D01*
X127775812Y-114874482D01*
X127788072Y-114750000D01*
X127788072Y-113150000D01*
X127775812Y-113025518D01*
X127739502Y-112905820D01*
X127680537Y-112795506D01*
X127601185Y-112698815D01*
X127504494Y-112619463D01*
X127394180Y-112560498D01*
X127274482Y-112524188D01*
X127150000Y-112511928D01*
X125550000Y-112511928D01*
X125425518Y-112524188D01*
X125305820Y-112560498D01*
X125195506Y-112619463D01*
X125098815Y-112698815D01*
X125019463Y-112795506D01*
X124960498Y-112905820D01*
X124924188Y-113025518D01*
X124911928Y-113150000D01*
X93260000Y-113150000D01*
X93260000Y-101050729D01*
X96356299Y-101050729D01*
X96403543Y-101428951D01*
X96523667Y-101790690D01*
X96655688Y-102037683D01*
X96950776Y-102169619D01*
X98120395Y-101000000D01*
X96950776Y-99830381D01*
X96655688Y-99962317D01*
X96484841Y-100303045D01*
X96383750Y-100670557D01*
X96356299Y-101050729D01*
X93260000Y-101050729D01*
X93260000Y-95809419D01*
X96365000Y-95809419D01*
X96365000Y-96190581D01*
X96439361Y-96564419D01*
X96585225Y-96916566D01*
X96796987Y-97233491D01*
X97066509Y-97503013D01*
X97383434Y-97714775D01*
X97735581Y-97860639D01*
X98109419Y-97935000D01*
X98490581Y-97935000D01*
X98864419Y-97860639D01*
X98895985Y-97847564D01*
X99165002Y-98116581D01*
X99165002Y-99269103D01*
X98996955Y-99184841D01*
X98629443Y-99083750D01*
X98249271Y-99056299D01*
X97871049Y-99103543D01*
X97509310Y-99223667D01*
X97262317Y-99355688D01*
X97130381Y-99650776D01*
X98300000Y-100820395D01*
X98314143Y-100806253D01*
X98493748Y-100985858D01*
X98479605Y-101000000D01*
X98493748Y-101014143D01*
X98314143Y-101193748D01*
X98300000Y-101179605D01*
X97130381Y-102349224D01*
X97262317Y-102644312D01*
X97603045Y-102815159D01*
X97970557Y-102916250D01*
X98350729Y-102943701D01*
X98728951Y-102896457D01*
X99090690Y-102776333D01*
X99165002Y-102736612D01*
X99165001Y-104263866D01*
X98864419Y-104139361D01*
X98490581Y-104065000D01*
X98109419Y-104065000D01*
X97735581Y-104139361D01*
X97383434Y-104285225D01*
X97066509Y-104496987D01*
X96796987Y-104766509D01*
X96585225Y-105083434D01*
X96439361Y-105435581D01*
X96365000Y-105809419D01*
X96365000Y-106190581D01*
X96439361Y-106564419D01*
X96585225Y-106916566D01*
X96796987Y-107233491D01*
X97066509Y-107503013D01*
X97383434Y-107714775D01*
X97735581Y-107860639D01*
X98109419Y-107935000D01*
X98490581Y-107935000D01*
X98864419Y-107860639D01*
X99165001Y-107736134D01*
X99165001Y-108883420D01*
X98895985Y-109152436D01*
X98864419Y-109139361D01*
X98490581Y-109065000D01*
X98109419Y-109065000D01*
X97735581Y-109139361D01*
X97383434Y-109285225D01*
X97066509Y-109496987D01*
X96796987Y-109766509D01*
X96585225Y-110083434D01*
X96439361Y-110435581D01*
X96365000Y-110809419D01*
X96365000Y-111190581D01*
X96439361Y-111564419D01*
X96585225Y-111916566D01*
X96796987Y-112233491D01*
X97066509Y-112503013D01*
X97383434Y-112714775D01*
X97735581Y-112860639D01*
X98109419Y-112935000D01*
X98490581Y-112935000D01*
X98864419Y-112860639D01*
X99216566Y-112714775D01*
X99533491Y-112503013D01*
X99803013Y-112233491D01*
X100014775Y-111916566D01*
X100160639Y-111564419D01*
X100235000Y-111190581D01*
X100235000Y-110809419D01*
X100160639Y-110435581D01*
X100147564Y-110404015D01*
X100645051Y-109906528D01*
X100678818Y-109878816D01*
X100711158Y-109839411D01*
X100789411Y-109744059D01*
X100789412Y-109744058D01*
X100871590Y-109590312D01*
X100922196Y-109423489D01*
X100935001Y-109293476D01*
X100935001Y-109293466D01*
X100939282Y-109250000D01*
X100935001Y-109206534D01*
X100935001Y-103500000D01*
X108711928Y-103500000D01*
X108711928Y-105500000D01*
X108724188Y-105624482D01*
X108760498Y-105744180D01*
X108819463Y-105854494D01*
X108898815Y-105951185D01*
X108995506Y-106030537D01*
X109105820Y-106089502D01*
X109225518Y-106125812D01*
X109350000Y-106138072D01*
X111350000Y-106138072D01*
X111474482Y-106125812D01*
X111594180Y-106089502D01*
X111704494Y-106030537D01*
X111801185Y-105951185D01*
X111880537Y-105854494D01*
X111939502Y-105744180D01*
X111972496Y-105635413D01*
X114394192Y-105635413D01*
X114489956Y-105899814D01*
X114779571Y-106040704D01*
X115091108Y-106122384D01*
X115412595Y-106141718D01*
X115731675Y-106097961D01*
X116036088Y-105992795D01*
X116210044Y-105899814D01*
X116305808Y-105635413D01*
X115350000Y-104679605D01*
X114394192Y-105635413D01*
X111972496Y-105635413D01*
X111975812Y-105624482D01*
X111988072Y-105500000D01*
X111988072Y-104562595D01*
X113708282Y-104562595D01*
X113752039Y-104881675D01*
X113857205Y-105186088D01*
X113950186Y-105360044D01*
X114214587Y-105455808D01*
X115170395Y-104500000D01*
X115529605Y-104500000D01*
X116485413Y-105455808D01*
X116749814Y-105360044D01*
X116890704Y-105070429D01*
X116972384Y-104758892D01*
X116991718Y-104437405D01*
X116947961Y-104118325D01*
X116842795Y-103813912D01*
X116749814Y-103639956D01*
X116485413Y-103544192D01*
X115529605Y-104500000D01*
X115170395Y-104500000D01*
X114214587Y-103544192D01*
X113950186Y-103639956D01*
X113809296Y-103929571D01*
X113727616Y-104241108D01*
X113708282Y-104562595D01*
X111988072Y-104562595D01*
X111988072Y-103500000D01*
X111975812Y-103375518D01*
X111972497Y-103364587D01*
X114394192Y-103364587D01*
X115350000Y-104320395D01*
X116305808Y-103364587D01*
X116210044Y-103100186D01*
X115920429Y-102959296D01*
X115608892Y-102877616D01*
X115287405Y-102858282D01*
X114968325Y-102902039D01*
X114663912Y-103007205D01*
X114489956Y-103100186D01*
X114394192Y-103364587D01*
X111972497Y-103364587D01*
X111939502Y-103255820D01*
X111880537Y-103145506D01*
X111801185Y-103048815D01*
X111704494Y-102969463D01*
X111594180Y-102910498D01*
X111474482Y-102874188D01*
X111350000Y-102861928D01*
X109350000Y-102861928D01*
X109225518Y-102874188D01*
X109105820Y-102910498D01*
X108995506Y-102969463D01*
X108898815Y-103048815D01*
X108819463Y-103145506D01*
X108760498Y-103255820D01*
X108724188Y-103375518D01*
X108711928Y-103500000D01*
X100935001Y-103500000D01*
X100935001Y-100706890D01*
X104708524Y-100706890D01*
X104753175Y-100854099D01*
X104878359Y-101116920D01*
X105052412Y-101350269D01*
X105268645Y-101545178D01*
X105518748Y-101694157D01*
X105793109Y-101791481D01*
X106023000Y-101670814D01*
X106023000Y-100477000D01*
X106277000Y-100477000D01*
X106277000Y-101670814D01*
X106506891Y-101791481D01*
X106781252Y-101694157D01*
X107031355Y-101545178D01*
X107247588Y-101350269D01*
X107421641Y-101116920D01*
X107546825Y-100854099D01*
X107591476Y-100706890D01*
X107470155Y-100477000D01*
X106277000Y-100477000D01*
X106023000Y-100477000D01*
X104829845Y-100477000D01*
X104708524Y-100706890D01*
X100935001Y-100706890D01*
X100935001Y-97793466D01*
X100939282Y-97750000D01*
X100935001Y-97706534D01*
X100935001Y-97706524D01*
X100922196Y-97576511D01*
X100871590Y-97409688D01*
X100789412Y-97255942D01*
X100747736Y-97205160D01*
X100706533Y-97154954D01*
X100706531Y-97154952D01*
X100678818Y-97121184D01*
X100645050Y-97093471D01*
X100147564Y-96595985D01*
X100160639Y-96564419D01*
X100235000Y-96190581D01*
X100235000Y-95809419D01*
X100160639Y-95435581D01*
X100014775Y-95083434D01*
X99803013Y-94766509D01*
X99533491Y-94496987D01*
X99216566Y-94285225D01*
X98864419Y-94139361D01*
X98490581Y-94065000D01*
X98109419Y-94065000D01*
X97735581Y-94139361D01*
X97383434Y-94285225D01*
X97066509Y-94496987D01*
X96796987Y-94766509D01*
X96585225Y-95083434D01*
X96439361Y-95435581D01*
X96365000Y-95809419D01*
X93260000Y-95809419D01*
X93260000Y-93127000D01*
X105390001Y-93127000D01*
X105390001Y-93781928D01*
X105300000Y-93781928D01*
X105175518Y-93794188D01*
X105055820Y-93830498D01*
X104945506Y-93889463D01*
X104848815Y-93968815D01*
X104769463Y-94065506D01*
X104710498Y-94175820D01*
X104674188Y-94295518D01*
X104661928Y-94420000D01*
X104661928Y-96120000D01*
X104674188Y-96244482D01*
X104710498Y-96364180D01*
X104769463Y-96474494D01*
X104848815Y-96571185D01*
X104945506Y-96650537D01*
X105055820Y-96709502D01*
X105128380Y-96731513D01*
X104996525Y-96863368D01*
X104834010Y-97106589D01*
X104722068Y-97376842D01*
X104665000Y-97663740D01*
X104665000Y-97956260D01*
X104722068Y-98243158D01*
X104834010Y-98513411D01*
X104996525Y-98756632D01*
X105203368Y-98963475D01*
X105385534Y-99085195D01*
X105268645Y-99154822D01*
X105052412Y-99349731D01*
X104878359Y-99583080D01*
X104753175Y-99845901D01*
X104708524Y-99993110D01*
X104829845Y-100223000D01*
X106023000Y-100223000D01*
X106023000Y-100203000D01*
X106277000Y-100203000D01*
X106277000Y-100223000D01*
X107470155Y-100223000D01*
X107591476Y-99993110D01*
X107546825Y-99845901D01*
X107421641Y-99583080D01*
X107247588Y-99349731D01*
X107031355Y-99154822D01*
X106914466Y-99085195D01*
X107096632Y-98963475D01*
X107303475Y-98756632D01*
X107465990Y-98513411D01*
X107577932Y-98243158D01*
X107635000Y-97956260D01*
X107635000Y-97663740D01*
X107577932Y-97376842D01*
X107465990Y-97106589D01*
X107303475Y-96863368D01*
X107171620Y-96731513D01*
X107244180Y-96709502D01*
X107354494Y-96650537D01*
X107451185Y-96571185D01*
X107530537Y-96474494D01*
X107589502Y-96364180D01*
X107625812Y-96244482D01*
X107638072Y-96120000D01*
X107638072Y-94420000D01*
X107625812Y-94295518D01*
X107589502Y-94175820D01*
X107530537Y-94065506D01*
X107451185Y-93968815D01*
X107354494Y-93889463D01*
X107244180Y-93830498D01*
X107124482Y-93794188D01*
X107000000Y-93781928D01*
X106910000Y-93781928D01*
X106910000Y-93127000D01*
X132075203Y-93127000D01*
X133067246Y-94119043D01*
X132996063Y-94190226D01*
X132882795Y-94359744D01*
X132804774Y-94548102D01*
X132765000Y-94748061D01*
X132765000Y-94951939D01*
X132804774Y-95151898D01*
X132882795Y-95340256D01*
X132996063Y-95509774D01*
X133140226Y-95653937D01*
X133309744Y-95767205D01*
X133498102Y-95845226D01*
X133554957Y-95856535D01*
X134015001Y-96316580D01*
X134015000Y-101665198D01*
X129713804Y-97364003D01*
X129690001Y-97334999D01*
X129574276Y-97240026D01*
X129442247Y-97169454D01*
X129298986Y-97125997D01*
X129187333Y-97115000D01*
X129187322Y-97115000D01*
X129150000Y-97111324D01*
X129112678Y-97115000D01*
X117378711Y-97115000D01*
X117334774Y-97071063D01*
X117165256Y-96957795D01*
X116976898Y-96879774D01*
X116776939Y-96840000D01*
X116573061Y-96840000D01*
X116373102Y-96879774D01*
X116184744Y-96957795D01*
X116015226Y-97071063D01*
X115871063Y-97215226D01*
X115757795Y-97384744D01*
X115679774Y-97573102D01*
X115640000Y-97773061D01*
X115640000Y-97976939D01*
X115679774Y-98176898D01*
X115757795Y-98365256D01*
X115871063Y-98534774D01*
X116015226Y-98678937D01*
X116184744Y-98792205D01*
X116373102Y-98870226D01*
X116573061Y-98910000D01*
X116776939Y-98910000D01*
X116976898Y-98870226D01*
X117165256Y-98792205D01*
X117334774Y-98678937D01*
X117378711Y-98635000D01*
X128835199Y-98635000D01*
X133115000Y-102914802D01*
X133115000Y-102976939D01*
X133154774Y-103176898D01*
X133232795Y-103365256D01*
X133346063Y-103534774D01*
X133490226Y-103678937D01*
X133659744Y-103792205D01*
X133848102Y-103870226D01*
X134048061Y-103910000D01*
X134251939Y-103910000D01*
X134451898Y-103870226D01*
X134640256Y-103792205D01*
X134809774Y-103678937D01*
X134885067Y-103603644D01*
X135315000Y-104033577D01*
X135314999Y-112209640D01*
X135090581Y-112165000D01*
X134709419Y-112165000D01*
X134335581Y-112239361D01*
X133983434Y-112385225D01*
X133666509Y-112596987D01*
X133396987Y-112866509D01*
X133185225Y-113183434D01*
X133039361Y-113535581D01*
X132965000Y-113909419D01*
X132965000Y-114290581D01*
X133039361Y-114664419D01*
X133185225Y-115016566D01*
X133396987Y-115333491D01*
X133663496Y-115600000D01*
X133396987Y-115866509D01*
X133185225Y-116183434D01*
X133039361Y-116535581D01*
X132965000Y-116909419D01*
X132965000Y-117290581D01*
X133039361Y-117664419D01*
X133185225Y-118016566D01*
X133396987Y-118333491D01*
X133666509Y-118603013D01*
X133983434Y-118814775D01*
X134335581Y-118960639D01*
X134709419Y-119035000D01*
X135090581Y-119035000D01*
X135464419Y-118960639D01*
X135816566Y-118814775D01*
X136133491Y-118603013D01*
X136403013Y-118333491D01*
X136614775Y-118016566D01*
X136760639Y-117664419D01*
X136835000Y-117290581D01*
X136835000Y-116909419D01*
X136760639Y-116535581D01*
X136614775Y-116183434D01*
X136403013Y-115866509D01*
X136136504Y-115600000D01*
X136403013Y-115333491D01*
X136614775Y-115016566D01*
X136760639Y-114664419D01*
X136835000Y-114290581D01*
X136835000Y-113909419D01*
X136760639Y-113535581D01*
X136747564Y-113504015D01*
X136795049Y-113456530D01*
X136828816Y-113428818D01*
X136856532Y-113395046D01*
X140495051Y-109756528D01*
X140528817Y-109728817D01*
X140620416Y-109617205D01*
X140639411Y-109594059D01*
X140641414Y-109590311D01*
X140721589Y-109440313D01*
X140772195Y-109273490D01*
X140785000Y-109143477D01*
X140785000Y-109143469D01*
X140789281Y-109100000D01*
X140785000Y-109056531D01*
X140785000Y-108038454D01*
X140817205Y-107990256D01*
X140895226Y-107801898D01*
X140935000Y-107601939D01*
X140935000Y-107398061D01*
X140931708Y-107381509D01*
X146053946Y-112503748D01*
X145923102Y-112529774D01*
X145734744Y-112607795D01*
X145565226Y-112721063D01*
X145421063Y-112865226D01*
X145307795Y-113034744D01*
X145229774Y-113223102D01*
X145190000Y-113423061D01*
X145190000Y-113626939D01*
X145229774Y-113826898D01*
X145307795Y-114015256D01*
X145421063Y-114184774D01*
X145565226Y-114328937D01*
X145734744Y-114442205D01*
X145923102Y-114520226D01*
X146123061Y-114560000D01*
X146185199Y-114560000D01*
X152161201Y-120536003D01*
X152184999Y-120565001D01*
X152213997Y-120588799D01*
X152300723Y-120659974D01*
X152432753Y-120730546D01*
X152576014Y-120774003D01*
X152687667Y-120785000D01*
X152687676Y-120785000D01*
X152724999Y-120788676D01*
X152762322Y-120785000D01*
X154696289Y-120785000D01*
X154740226Y-120828937D01*
X154909744Y-120942205D01*
X155098102Y-121020226D01*
X155298061Y-121060000D01*
X155501939Y-121060000D01*
X155701898Y-121020226D01*
X155890256Y-120942205D01*
X156059774Y-120828937D01*
X156203937Y-120684774D01*
X156317205Y-120515256D01*
X156395226Y-120326898D01*
X156435000Y-120126939D01*
X156435000Y-119923061D01*
X156395226Y-119723102D01*
X156317205Y-119534744D01*
X156203937Y-119365226D01*
X156059774Y-119221063D01*
X155890256Y-119107795D01*
X155701898Y-119029774D01*
X155501939Y-118990000D01*
X155298061Y-118990000D01*
X155098102Y-119029774D01*
X154909744Y-119107795D01*
X154740226Y-119221063D01*
X154696289Y-119265000D01*
X153039802Y-119265000D01*
X149846054Y-116071252D01*
X149976898Y-116045226D01*
X150165256Y-115967205D01*
X150334774Y-115853937D01*
X150478937Y-115709774D01*
X150592205Y-115540256D01*
X150670226Y-115351898D01*
X150710000Y-115151939D01*
X150710000Y-114948061D01*
X150670226Y-114748102D01*
X150592205Y-114559744D01*
X150478937Y-114390226D01*
X150334774Y-114246063D01*
X150165256Y-114132795D01*
X149976898Y-114054774D01*
X149776939Y-114015000D01*
X149714802Y-114015000D01*
X143609801Y-107910000D01*
X146371289Y-107910000D01*
X146415226Y-107953937D01*
X146584744Y-108067205D01*
X146773102Y-108145226D01*
X146973061Y-108185000D01*
X147176939Y-108185000D01*
X147376898Y-108145226D01*
X147565256Y-108067205D01*
X147690001Y-107983853D01*
X147690000Y-110146289D01*
X147646063Y-110190226D01*
X147532795Y-110359744D01*
X147454774Y-110548102D01*
X147415000Y-110748061D01*
X147415000Y-110951939D01*
X147454774Y-111151898D01*
X147532795Y-111340256D01*
X147646063Y-111509774D01*
X147790226Y-111653937D01*
X147959744Y-111767205D01*
X148148102Y-111845226D01*
X148348061Y-111885000D01*
X148551939Y-111885000D01*
X148751898Y-111845226D01*
X148940256Y-111767205D01*
X149109774Y-111653937D01*
X149253937Y-111509774D01*
X149367205Y-111340256D01*
X149445226Y-111151898D01*
X149485000Y-110951939D01*
X149485000Y-110748061D01*
X149445226Y-110548102D01*
X149367205Y-110359744D01*
X149253937Y-110190226D01*
X149210000Y-110146289D01*
X149210000Y-107489320D01*
X149213676Y-107451997D01*
X149210000Y-107414674D01*
X149210000Y-107414665D01*
X149199003Y-107303012D01*
X149155546Y-107159751D01*
X149084974Y-107027722D01*
X148990001Y-106911997D01*
X148961003Y-106888199D01*
X147060000Y-104987197D01*
X147060000Y-104978711D01*
X147103937Y-104934774D01*
X147217205Y-104765256D01*
X147295226Y-104576898D01*
X147335000Y-104376939D01*
X147335000Y-104173061D01*
X147295226Y-103973102D01*
X147217205Y-103784744D01*
X147103937Y-103615226D01*
X147022018Y-103533307D01*
X151236004Y-99319322D01*
X151265001Y-99295525D01*
X151359974Y-99179800D01*
X151430546Y-99047771D01*
X151474003Y-98904510D01*
X151485000Y-98792857D01*
X151485000Y-98792856D01*
X151488677Y-98755524D01*
X151485000Y-98718191D01*
X151485000Y-92303711D01*
X151528937Y-92259774D01*
X151642205Y-92090256D01*
X151720226Y-91901898D01*
X151760000Y-91701939D01*
X151760000Y-91498061D01*
X151720226Y-91298102D01*
X151642205Y-91109744D01*
X151528937Y-90940226D01*
X151384774Y-90796063D01*
X151215256Y-90682795D01*
X151026898Y-90604774D01*
X150826939Y-90565000D01*
X150623061Y-90565000D01*
X150423102Y-90604774D01*
X150234744Y-90682795D01*
X150065226Y-90796063D01*
X149921063Y-90940226D01*
X149807795Y-91109744D01*
X149729774Y-91298102D01*
X149690000Y-91498061D01*
X149690000Y-91701939D01*
X149729774Y-91901898D01*
X149807795Y-92090256D01*
X149921063Y-92259774D01*
X149965001Y-92303712D01*
X149965000Y-98440722D01*
X147101430Y-101304292D01*
X147095226Y-101273102D01*
X147017205Y-101084744D01*
X146903937Y-100915226D01*
X146860000Y-100871289D01*
X146860000Y-99523470D01*
X146878109Y-99535570D01*
X147066467Y-99613591D01*
X147266426Y-99653365D01*
X147470304Y-99653365D01*
X147670263Y-99613591D01*
X147858621Y-99535570D01*
X148028139Y-99422302D01*
X148172302Y-99278139D01*
X148285570Y-99108621D01*
X148363591Y-98920263D01*
X148403365Y-98720304D01*
X148403365Y-98516426D01*
X148363591Y-98316467D01*
X148335041Y-98247541D01*
X148403967Y-98276091D01*
X148603926Y-98315865D01*
X148807804Y-98315865D01*
X149007763Y-98276091D01*
X149196121Y-98198070D01*
X149365639Y-98084802D01*
X149509802Y-97940639D01*
X149623070Y-97771121D01*
X149701091Y-97582763D01*
X149740865Y-97382804D01*
X149740865Y-97178926D01*
X149701091Y-96978967D01*
X149623070Y-96790609D01*
X149509802Y-96621091D01*
X149465865Y-96577154D01*
X149465865Y-93343187D01*
X149469541Y-93305864D01*
X149465865Y-93268541D01*
X149465865Y-93268532D01*
X149454868Y-93156879D01*
X149411411Y-93013618D01*
X149340839Y-92881589D01*
X149303856Y-92836525D01*
X149269664Y-92794861D01*
X149269660Y-92794857D01*
X149245866Y-92765864D01*
X149216874Y-92742071D01*
X148291210Y-91816408D01*
X148335000Y-91596260D01*
X148335000Y-91303740D01*
X148277932Y-91016842D01*
X148165990Y-90746589D01*
X148003475Y-90503368D01*
X147796632Y-90296525D01*
X147622240Y-90180000D01*
X147796632Y-90063475D01*
X148003475Y-89856632D01*
X148165990Y-89613411D01*
X148277932Y-89343158D01*
X148335000Y-89056260D01*
X148335000Y-88763740D01*
X148277932Y-88476842D01*
X148165990Y-88206589D01*
X148003475Y-87963368D01*
X147796632Y-87756525D01*
X147553411Y-87594010D01*
X147283158Y-87482068D01*
X146996260Y-87425000D01*
X146703740Y-87425000D01*
X146631040Y-87439461D01*
X146173973Y-86982395D01*
X146146256Y-86948622D01*
X146011498Y-86838028D01*
X145857752Y-86755850D01*
X145690929Y-86705244D01*
X145560916Y-86692439D01*
X145560908Y-86692439D01*
X145517439Y-86688158D01*
X145473970Y-86692439D01*
X141663433Y-86692439D01*
X141615235Y-86660234D01*
X141426877Y-86582213D01*
X141226918Y-86542439D01*
X141150000Y-86542439D01*
X141150000Y-80257323D01*
X141153676Y-80220000D01*
X141150000Y-80182677D01*
X141150000Y-80182667D01*
X141139003Y-80071014D01*
X141095546Y-79927753D01*
X141032604Y-79809998D01*
X141024974Y-79795723D01*
X140953799Y-79708997D01*
X140930001Y-79679999D01*
X140901004Y-79656202D01*
X140727000Y-79482198D01*
X140727000Y-73109419D01*
X171065000Y-73109419D01*
X171065000Y-73490581D01*
X171139361Y-73864419D01*
X171285225Y-74216566D01*
X171496987Y-74533491D01*
X171766509Y-74803013D01*
X172083434Y-75014775D01*
X172435581Y-75160639D01*
X172809419Y-75235000D01*
X173190581Y-75235000D01*
X173564419Y-75160639D01*
X173916566Y-75014775D01*
X174233491Y-74803013D01*
X174503013Y-74533491D01*
X174714775Y-74216566D01*
X174860639Y-73864419D01*
X174935000Y-73490581D01*
X174935000Y-73109419D01*
X174860639Y-72735581D01*
X174714775Y-72383434D01*
X174503013Y-72066509D01*
X174233491Y-71796987D01*
X173916566Y-71585225D01*
X173564419Y-71439361D01*
X173190581Y-71365000D01*
X172809419Y-71365000D01*
X172435581Y-71439361D01*
X172083434Y-71585225D01*
X171766509Y-71796987D01*
X171496987Y-72066509D01*
X171285225Y-72383434D01*
X171139361Y-72735581D01*
X171065000Y-73109419D01*
X140727000Y-73109419D01*
X140727000Y-68109419D01*
X171065000Y-68109419D01*
X171065000Y-68490581D01*
X171139361Y-68864419D01*
X171285225Y-69216566D01*
X171496987Y-69533491D01*
X171766509Y-69803013D01*
X172083434Y-70014775D01*
X172435581Y-70160639D01*
X172809419Y-70235000D01*
X173190581Y-70235000D01*
X173564419Y-70160639D01*
X173916566Y-70014775D01*
X174233491Y-69803013D01*
X174503013Y-69533491D01*
X174714775Y-69216566D01*
X174860639Y-68864419D01*
X174935000Y-68490581D01*
X174935000Y-68109419D01*
X174860639Y-67735581D01*
X174714775Y-67383434D01*
X174503013Y-67066509D01*
X174233491Y-66796987D01*
X173916566Y-66585225D01*
X173564419Y-66439361D01*
X173190581Y-66365000D01*
X172809419Y-66365000D01*
X172435581Y-66439361D01*
X172083434Y-66585225D01*
X171766509Y-66796987D01*
X171496987Y-67066509D01*
X171285225Y-67383434D01*
X171139361Y-67735581D01*
X171065000Y-68109419D01*
X140727000Y-68109419D01*
X140727000Y-63109419D01*
X171065000Y-63109419D01*
X171065000Y-63490581D01*
X171139361Y-63864419D01*
X171285225Y-64216566D01*
X171496987Y-64533491D01*
X171766509Y-64803013D01*
X172083434Y-65014775D01*
X172435581Y-65160639D01*
X172809419Y-65235000D01*
X173190581Y-65235000D01*
X173564419Y-65160639D01*
X173916566Y-65014775D01*
X174233491Y-64803013D01*
X174503013Y-64533491D01*
X174714775Y-64216566D01*
X174860639Y-63864419D01*
X174935000Y-63490581D01*
X174935000Y-63109419D01*
X174860639Y-62735581D01*
X174714775Y-62383434D01*
X174503013Y-62066509D01*
X174233491Y-61796987D01*
X173916566Y-61585225D01*
X173564419Y-61439361D01*
X173190581Y-61365000D01*
X172809419Y-61365000D01*
X172435581Y-61439361D01*
X172083434Y-61585225D01*
X171766509Y-61796987D01*
X171496987Y-62066509D01*
X171285225Y-62383434D01*
X171139361Y-62735581D01*
X171065000Y-63109419D01*
X140727000Y-63109419D01*
X140727000Y-59810000D01*
X177440001Y-59810000D01*
X177440000Y-124490000D01*
G37*
%TD.AperFunction*%
D24*
X137327000Y-94923000D02*
X137347000Y-94923000D01*
X137347000Y-95177000D01*
X137327000Y-95177000D01*
X137327000Y-96401250D01*
X137485750Y-96560000D01*
X137890002Y-96561480D01*
X137890002Y-96585196D01*
X137185199Y-97290000D01*
X137123061Y-97290000D01*
X136923102Y-97329774D01*
X136734744Y-97407795D01*
X136565226Y-97521063D01*
X136421063Y-97665226D01*
X136307795Y-97834744D01*
X136235011Y-98010459D01*
X136235011Y-96562486D01*
X136914250Y-96560000D01*
X137073000Y-96401250D01*
X137073000Y-95177000D01*
X137053000Y-95177000D01*
X137053000Y-94923000D01*
X137073000Y-94923000D01*
X137073000Y-94903000D01*
X137327000Y-94903000D01*
X137327000Y-94923000D01*
%TA.AperFunction,Conductor*%
D25*
G36*
X137327000Y-94923000D02*
G01*
X137347000Y-94923000D01*
X137347000Y-95177000D01*
X137327000Y-95177000D01*
X137327000Y-96401250D01*
X137485750Y-96560000D01*
X137890002Y-96561480D01*
X137890002Y-96585196D01*
X137185199Y-97290000D01*
X137123061Y-97290000D01*
X136923102Y-97329774D01*
X136734744Y-97407795D01*
X136565226Y-97521063D01*
X136421063Y-97665226D01*
X136307795Y-97834744D01*
X136235011Y-98010459D01*
X136235011Y-96562486D01*
X136914250Y-96560000D01*
X137073000Y-96401250D01*
X137073000Y-95177000D01*
X137053000Y-95177000D01*
X137053000Y-94923000D01*
X137073000Y-94923000D01*
X137073000Y-94903000D01*
X137327000Y-94903000D01*
X137327000Y-94923000D01*
G37*
%TD.AperFunction*%
D24*
X146977000Y-93863000D02*
X146997000Y-93863000D01*
X146997000Y-94117000D01*
X146977000Y-94117000D01*
X146977000Y-95310814D01*
X147206891Y-95431481D01*
X147481252Y-95334157D01*
X147731355Y-95185178D01*
X147945865Y-94991822D01*
X147945866Y-96577153D01*
X147901928Y-96621091D01*
X147788660Y-96790609D01*
X147788588Y-96790784D01*
X146434999Y-95437196D01*
X146434999Y-95410868D01*
X146493109Y-95431481D01*
X146723000Y-95310814D01*
X146723000Y-94117000D01*
X146703000Y-94117000D01*
X146703000Y-93863000D01*
X146723000Y-93863000D01*
X146723000Y-93843000D01*
X146977000Y-93843000D01*
X146977000Y-93863000D01*
%TA.AperFunction,Conductor*%
D25*
G36*
X146977000Y-93863000D02*
G01*
X146997000Y-93863000D01*
X146997000Y-94117000D01*
X146977000Y-94117000D01*
X146977000Y-95310814D01*
X147206891Y-95431481D01*
X147481252Y-95334157D01*
X147731355Y-95185178D01*
X147945865Y-94991822D01*
X147945866Y-96577153D01*
X147901928Y-96621091D01*
X147788660Y-96790609D01*
X147788588Y-96790784D01*
X146434999Y-95437196D01*
X146434999Y-95410868D01*
X146493109Y-95431481D01*
X146723000Y-95310814D01*
X146723000Y-94117000D01*
X146703000Y-94117000D01*
X146703000Y-93863000D01*
X146723000Y-93863000D01*
X146723000Y-93843000D01*
X146977000Y-93843000D01*
X146977000Y-93863000D01*
G37*
%TD.AperFunction*%
%TD*%
M02*
