%TF.GenerationSoftware,KiCad,Pcbnew,(5.1.8)-1*%
%TF.CreationDate,2021-05-16T23:23:04+02:00*%
%TF.ProjectId,Modbus,4d6f6462-7573-42e6-9b69-6361645f7063,rev?*%
%TF.SameCoordinates,Original*%
%TF.FileFunction,Soldermask,Bot*%
%TF.FilePolarity,Negative*%
%FSLAX46Y46*%
G04 Gerber Fmt 4.6, Leading zero omitted, Abs format (unit mm)*
G04 Created by KiCad (PCBNEW (5.1.8)-1) date 2021-05-16 23:23:04*
%MOMM*%
%LPD*%
G01*
G04 APERTURE LIST*
%ADD10R,2.000000X2.000000*%
%ADD11C,2.000000*%
%ADD12R,1.600000X1.600000*%
%ADD13C,1.600000*%
%ADD14C,2.600000*%
%ADD15R,2.600000X2.600000*%
%ADD16R,1.700000X1.700000*%
%ADD17O,1.700000X1.700000*%
%ADD18O,2.250000X1.750000*%
%ADD19R,2.250000X1.750000*%
G04 APERTURE END LIST*
D10*
%TO.C,C7*%
X110350000Y-104500000D03*
D11*
X115350000Y-104500000D03*
%TD*%
D12*
%TO.C,C8*%
X126350000Y-113950000D03*
D13*
X126350000Y-116450000D03*
%TD*%
D14*
%TO.C,J1*%
X173000000Y-96000000D03*
X173000000Y-101000000D03*
X173000000Y-106000000D03*
X173000000Y-111000000D03*
X173000000Y-116000000D03*
D15*
X173000000Y-121000000D03*
%TD*%
%TO.C,J2*%
X173000000Y-88300000D03*
D14*
X173000000Y-83300000D03*
X173000000Y-78300000D03*
X173000000Y-73300000D03*
X173000000Y-68300000D03*
X173000000Y-63300000D03*
%TD*%
%TO.C,J3*%
X98300000Y-96000000D03*
X98300000Y-101000000D03*
X98300000Y-106000000D03*
X98300000Y-111000000D03*
X98300000Y-116000000D03*
D15*
X98300000Y-121000000D03*
%TD*%
D16*
%TO.C,ICSP*%
X144310000Y-88910000D03*
D17*
X146850000Y-88910000D03*
X144310000Y-91450000D03*
X146850000Y-91450000D03*
X144310000Y-93990000D03*
X146850000Y-93990000D03*
%TD*%
D16*
%TO.C,J5*%
X106150000Y-95270000D03*
D17*
X106150000Y-97810000D03*
X106150000Y-100350000D03*
%TD*%
D15*
%TO.C,J6*%
X98300000Y-88300000D03*
D14*
X98300000Y-83300000D03*
X98300000Y-78300000D03*
X98300000Y-73300000D03*
X98300000Y-68300000D03*
X98300000Y-63300000D03*
%TD*%
%TO.C,L1*%
X134900000Y-117100000D03*
X134900000Y-114100000D03*
%TD*%
D18*
%TO.C,PS1*%
X137200000Y-87430000D03*
X137200000Y-89970000D03*
X137200000Y-92510000D03*
D19*
X137200000Y-95050000D03*
%TD*%
M02*
