%TF.GenerationSoftware,KiCad,Pcbnew,(5.1.8)-1*%
%TF.CreationDate,2021-05-16T23:23:04+02:00*%
%TF.ProjectId,Modbus,4d6f6462-7573-42e6-9b69-6361645f7063,rev?*%
%TF.SameCoordinates,Original*%
%TF.FileFunction,Legend,Top*%
%TF.FilePolarity,Positive*%
%FSLAX46Y46*%
G04 Gerber Fmt 4.6, Leading zero omitted, Abs format (unit mm)*
G04 Created by KiCad (PCBNEW (5.1.8)-1) date 2021-05-16 23:23:04*
%MOMM*%
%LPD*%
G01*
G04 APERTURE LIST*
%ADD10C,0.150000*%
%ADD11C,0.120000*%
G04 APERTURE END LIST*
D10*
X146366666Y-61352380D02*
X146366666Y-60352380D01*
X146700000Y-61066666D01*
X147033333Y-60352380D01*
X147033333Y-61352380D01*
X147652380Y-61352380D02*
X147557142Y-61304761D01*
X147509523Y-61257142D01*
X147461904Y-61161904D01*
X147461904Y-60876190D01*
X147509523Y-60780952D01*
X147557142Y-60733333D01*
X147652380Y-60685714D01*
X147795238Y-60685714D01*
X147890476Y-60733333D01*
X147938095Y-60780952D01*
X147985714Y-60876190D01*
X147985714Y-61161904D01*
X147938095Y-61257142D01*
X147890476Y-61304761D01*
X147795238Y-61352380D01*
X147652380Y-61352380D01*
X148842857Y-61352380D02*
X148842857Y-60352380D01*
X148842857Y-61304761D02*
X148747619Y-61352380D01*
X148557142Y-61352380D01*
X148461904Y-61304761D01*
X148414285Y-61257142D01*
X148366666Y-61161904D01*
X148366666Y-60876190D01*
X148414285Y-60780952D01*
X148461904Y-60733333D01*
X148557142Y-60685714D01*
X148747619Y-60685714D01*
X148842857Y-60733333D01*
X149319047Y-61352380D02*
X149319047Y-60352380D01*
X149319047Y-60733333D02*
X149414285Y-60685714D01*
X149604761Y-60685714D01*
X149700000Y-60733333D01*
X149747619Y-60780952D01*
X149795238Y-60876190D01*
X149795238Y-61161904D01*
X149747619Y-61257142D01*
X149700000Y-61304761D01*
X149604761Y-61352380D01*
X149414285Y-61352380D01*
X149319047Y-61304761D01*
X150652380Y-60685714D02*
X150652380Y-61352380D01*
X150223809Y-60685714D02*
X150223809Y-61209523D01*
X150271428Y-61304761D01*
X150366666Y-61352380D01*
X150509523Y-61352380D01*
X150604761Y-61304761D01*
X150652380Y-61257142D01*
X151080952Y-61304761D02*
X151176190Y-61352380D01*
X151366666Y-61352380D01*
X151461904Y-61304761D01*
X151509523Y-61209523D01*
X151509523Y-61161904D01*
X151461904Y-61066666D01*
X151366666Y-61019047D01*
X151223809Y-61019047D01*
X151128571Y-60971428D01*
X151080952Y-60876190D01*
X151080952Y-60828571D01*
X151128571Y-60733333D01*
X151223809Y-60685714D01*
X151366666Y-60685714D01*
X151461904Y-60733333D01*
X152700000Y-60352380D02*
X152700000Y-61161904D01*
X152747619Y-61257142D01*
X152795238Y-61304761D01*
X152890476Y-61352380D01*
X153080952Y-61352380D01*
X153176190Y-61304761D01*
X153223809Y-61257142D01*
X153271428Y-61161904D01*
X153271428Y-60352380D01*
X153747619Y-60685714D02*
X153747619Y-61352380D01*
X153747619Y-60780952D02*
X153795238Y-60733333D01*
X153890476Y-60685714D01*
X154033333Y-60685714D01*
X154128571Y-60733333D01*
X154176190Y-60828571D01*
X154176190Y-61352380D01*
X154652380Y-61352380D02*
X154652380Y-60685714D01*
X154652380Y-60352380D02*
X154604761Y-60400000D01*
X154652380Y-60447619D01*
X154700000Y-60400000D01*
X154652380Y-60352380D01*
X154652380Y-60447619D01*
X155033333Y-60685714D02*
X155271428Y-61352380D01*
X155509523Y-60685714D01*
X156271428Y-61304761D02*
X156176190Y-61352380D01*
X155985714Y-61352380D01*
X155890476Y-61304761D01*
X155842857Y-61209523D01*
X155842857Y-60828571D01*
X155890476Y-60733333D01*
X155985714Y-60685714D01*
X156176190Y-60685714D01*
X156271428Y-60733333D01*
X156319047Y-60828571D01*
X156319047Y-60923809D01*
X155842857Y-61019047D01*
X156747619Y-61352380D02*
X156747619Y-60685714D01*
X156747619Y-60876190D02*
X156795238Y-60780952D01*
X156842857Y-60733333D01*
X156938095Y-60685714D01*
X157033333Y-60685714D01*
X157319047Y-61304761D02*
X157414285Y-61352380D01*
X157604761Y-61352380D01*
X157700000Y-61304761D01*
X157747619Y-61209523D01*
X157747619Y-61161904D01*
X157700000Y-61066666D01*
X157604761Y-61019047D01*
X157461904Y-61019047D01*
X157366666Y-60971428D01*
X157319047Y-60876190D01*
X157319047Y-60828571D01*
X157366666Y-60733333D01*
X157461904Y-60685714D01*
X157604761Y-60685714D01*
X157700000Y-60733333D01*
X158604761Y-61352380D02*
X158604761Y-60828571D01*
X158557142Y-60733333D01*
X158461904Y-60685714D01*
X158271428Y-60685714D01*
X158176190Y-60733333D01*
X158604761Y-61304761D02*
X158509523Y-61352380D01*
X158271428Y-61352380D01*
X158176190Y-61304761D01*
X158128571Y-61209523D01*
X158128571Y-61114285D01*
X158176190Y-61019047D01*
X158271428Y-60971428D01*
X158509523Y-60971428D01*
X158604761Y-60923809D01*
X159223809Y-61352380D02*
X159128571Y-61304761D01*
X159080952Y-61209523D01*
X159080952Y-60352380D01*
X160271428Y-60685714D02*
X160509523Y-61352380D01*
X160747619Y-60685714D01*
X161652380Y-61352380D02*
X161080952Y-61352380D01*
X161366666Y-61352380D02*
X161366666Y-60352380D01*
X161271428Y-60495238D01*
X161176190Y-60590476D01*
X161080952Y-60638095D01*
X162080952Y-61257142D02*
X162128571Y-61304761D01*
X162080952Y-61352380D01*
X162033333Y-61304761D01*
X162080952Y-61257142D01*
X162080952Y-61352380D01*
X162747619Y-60352380D02*
X162842857Y-60352380D01*
X162938095Y-60400000D01*
X162985714Y-60447619D01*
X163033333Y-60542857D01*
X163080952Y-60733333D01*
X163080952Y-60971428D01*
X163033333Y-61161904D01*
X162985714Y-61257142D01*
X162938095Y-61304761D01*
X162842857Y-61352380D01*
X162747619Y-61352380D01*
X162652380Y-61304761D01*
X162604761Y-61257142D01*
X162557142Y-61161904D01*
X162509523Y-60971428D01*
X162509523Y-60733333D01*
X162557142Y-60542857D01*
X162604761Y-60447619D01*
X162652380Y-60400000D01*
X162747619Y-60352380D01*
X148295238Y-63002380D02*
X147819047Y-63002380D01*
X147819047Y-62002380D01*
X149057142Y-62335714D02*
X149057142Y-63002380D01*
X148628571Y-62335714D02*
X148628571Y-62859523D01*
X148676190Y-62954761D01*
X148771428Y-63002380D01*
X148914285Y-63002380D01*
X149009523Y-62954761D01*
X149057142Y-62907142D01*
X149390476Y-62335714D02*
X149771428Y-62335714D01*
X149533333Y-62002380D02*
X149533333Y-62859523D01*
X149580952Y-62954761D01*
X149676190Y-63002380D01*
X149771428Y-63002380D01*
X150009523Y-62335714D02*
X150533333Y-62335714D01*
X150009523Y-63002380D01*
X150533333Y-63002380D01*
X152009523Y-62478571D02*
X152152380Y-62526190D01*
X152200000Y-62573809D01*
X152247619Y-62669047D01*
X152247619Y-62811904D01*
X152200000Y-62907142D01*
X152152380Y-62954761D01*
X152057142Y-63002380D01*
X151676190Y-63002380D01*
X151676190Y-62002380D01*
X152009523Y-62002380D01*
X152104761Y-62050000D01*
X152152380Y-62097619D01*
X152200000Y-62192857D01*
X152200000Y-62288095D01*
X152152380Y-62383333D01*
X152104761Y-62430952D01*
X152009523Y-62478571D01*
X151676190Y-62478571D01*
X153104761Y-63002380D02*
X153104761Y-62478571D01*
X153057142Y-62383333D01*
X152961904Y-62335714D01*
X152771428Y-62335714D01*
X152676190Y-62383333D01*
X153104761Y-62954761D02*
X153009523Y-63002380D01*
X152771428Y-63002380D01*
X152676190Y-62954761D01*
X152628571Y-62859523D01*
X152628571Y-62764285D01*
X152676190Y-62669047D01*
X152771428Y-62621428D01*
X153009523Y-62621428D01*
X153104761Y-62573809D01*
X153580952Y-63002380D02*
X153580952Y-62002380D01*
X154009523Y-63002380D02*
X154009523Y-62478571D01*
X153961904Y-62383333D01*
X153866666Y-62335714D01*
X153723809Y-62335714D01*
X153628571Y-62383333D01*
X153580952Y-62430952D01*
X154485714Y-63002380D02*
X154485714Y-62335714D01*
X154485714Y-62526190D02*
X154533333Y-62430952D01*
X154580952Y-62383333D01*
X154676190Y-62335714D01*
X154771428Y-62335714D01*
X156057142Y-62002380D02*
X156152380Y-62002380D01*
X156247619Y-62050000D01*
X156295238Y-62097619D01*
X156342857Y-62192857D01*
X156390476Y-62383333D01*
X156390476Y-62621428D01*
X156342857Y-62811904D01*
X156295238Y-62907142D01*
X156247619Y-62954761D01*
X156152380Y-63002380D01*
X156057142Y-63002380D01*
X155961904Y-62954761D01*
X155914285Y-62907142D01*
X155866666Y-62811904D01*
X155819047Y-62621428D01*
X155819047Y-62383333D01*
X155866666Y-62192857D01*
X155914285Y-62097619D01*
X155961904Y-62050000D01*
X156057142Y-62002380D01*
X157295238Y-62002380D02*
X156819047Y-62002380D01*
X156771428Y-62478571D01*
X156819047Y-62430952D01*
X156914285Y-62383333D01*
X157152380Y-62383333D01*
X157247619Y-62430952D01*
X157295238Y-62478571D01*
X157342857Y-62573809D01*
X157342857Y-62811904D01*
X157295238Y-62907142D01*
X157247619Y-62954761D01*
X157152380Y-63002380D01*
X156914285Y-63002380D01*
X156819047Y-62954761D01*
X156771428Y-62907142D01*
X157771428Y-62907142D02*
X157819047Y-62954761D01*
X157771428Y-63002380D01*
X157723809Y-62954761D01*
X157771428Y-62907142D01*
X157771428Y-63002380D01*
X158200000Y-62097619D02*
X158247619Y-62050000D01*
X158342857Y-62002380D01*
X158580952Y-62002380D01*
X158676190Y-62050000D01*
X158723809Y-62097619D01*
X158771428Y-62192857D01*
X158771428Y-62288095D01*
X158723809Y-62430952D01*
X158152380Y-63002380D01*
X158771428Y-63002380D01*
X159390476Y-62002380D02*
X159485714Y-62002380D01*
X159580952Y-62050000D01*
X159628571Y-62097619D01*
X159676190Y-62192857D01*
X159723809Y-62383333D01*
X159723809Y-62621428D01*
X159676190Y-62811904D01*
X159628571Y-62907142D01*
X159580952Y-62954761D01*
X159485714Y-63002380D01*
X159390476Y-63002380D01*
X159295238Y-62954761D01*
X159247619Y-62907142D01*
X159200000Y-62811904D01*
X159152380Y-62621428D01*
X159152380Y-62383333D01*
X159200000Y-62192857D01*
X159247619Y-62097619D01*
X159295238Y-62050000D01*
X159390476Y-62002380D01*
X160104761Y-62097619D02*
X160152380Y-62050000D01*
X160247619Y-62002380D01*
X160485714Y-62002380D01*
X160580952Y-62050000D01*
X160628571Y-62097619D01*
X160676190Y-62192857D01*
X160676190Y-62288095D01*
X160628571Y-62430952D01*
X160057142Y-63002380D01*
X160676190Y-63002380D01*
X161628571Y-63002380D02*
X161057142Y-63002380D01*
X161342857Y-63002380D02*
X161342857Y-62002380D01*
X161247619Y-62145238D01*
X161152380Y-62240476D01*
X161057142Y-62288095D01*
X146313095Y-95250000D02*
X146217857Y-95202380D01*
X146075000Y-95202380D01*
X145932142Y-95250000D01*
X145836904Y-95345238D01*
X145789285Y-95440476D01*
X145741666Y-95630952D01*
X145741666Y-95773809D01*
X145789285Y-95964285D01*
X145836904Y-96059523D01*
X145932142Y-96154761D01*
X146075000Y-96202380D01*
X146170238Y-96202380D01*
X146313095Y-96154761D01*
X146360714Y-96107142D01*
X146360714Y-95773809D01*
X146170238Y-95773809D01*
X146789285Y-96202380D02*
X146789285Y-95202380D01*
X147360714Y-96202380D01*
X147360714Y-95202380D01*
X147836904Y-96202380D02*
X147836904Y-95202380D01*
X148075000Y-95202380D01*
X148217857Y-95250000D01*
X148313095Y-95345238D01*
X148360714Y-95440476D01*
X148408333Y-95630952D01*
X148408333Y-95773809D01*
X148360714Y-95964285D01*
X148313095Y-96059523D01*
X148217857Y-96154761D01*
X148075000Y-96202380D01*
X147836904Y-96202380D01*
D11*
%TO.C,C1*%
X134386252Y-108390000D02*
X133863748Y-108390000D01*
X134386252Y-109810000D02*
X133863748Y-109810000D01*
%TO.C,C2*%
X133711252Y-100035000D02*
X133188748Y-100035000D01*
X133711252Y-98615000D02*
X133188748Y-98615000D01*
%TO.C,C3*%
X133711252Y-100690000D02*
X133188748Y-100690000D01*
X133711252Y-102110000D02*
X133188748Y-102110000D01*
%TO.C,C4*%
X107218748Y-85290000D02*
X107741252Y-85290000D01*
X107218748Y-86710000D02*
X107741252Y-86710000D01*
%TO.C,C5*%
X120563748Y-86710000D02*
X121086252Y-86710000D01*
X120563748Y-85290000D02*
X121086252Y-85290000D01*
%TO.C,C6*%
X120563748Y-71290000D02*
X121086252Y-71290000D01*
X120563748Y-72710000D02*
X121086252Y-72710000D01*
%TO.C,C7*%
X107870354Y-101125000D02*
X107870354Y-102125000D01*
X107370354Y-101625000D02*
X108370354Y-101625000D01*
X117931000Y-103901000D02*
X117931000Y-105099000D01*
X117891000Y-103638000D02*
X117891000Y-105362000D01*
X117851000Y-103438000D02*
X117851000Y-105562000D01*
X117811000Y-103270000D02*
X117811000Y-105730000D01*
X117771000Y-103122000D02*
X117771000Y-105878000D01*
X117731000Y-102990000D02*
X117731000Y-106010000D01*
X117691000Y-102870000D02*
X117691000Y-106130000D01*
X117651000Y-102758000D02*
X117651000Y-106242000D01*
X117611000Y-102654000D02*
X117611000Y-106346000D01*
X117571000Y-102556000D02*
X117571000Y-106444000D01*
X117531000Y-102463000D02*
X117531000Y-106537000D01*
X117491000Y-102375000D02*
X117491000Y-106625000D01*
X117451000Y-102291000D02*
X117451000Y-106709000D01*
X117411000Y-102211000D02*
X117411000Y-106789000D01*
X117371000Y-102135000D02*
X117371000Y-106865000D01*
X117331000Y-102061000D02*
X117331000Y-106939000D01*
X117291000Y-101990000D02*
X117291000Y-107010000D01*
X117251000Y-101921000D02*
X117251000Y-107079000D01*
X117211000Y-101855000D02*
X117211000Y-107145000D01*
X117171000Y-101791000D02*
X117171000Y-107209000D01*
X117131000Y-101730000D02*
X117131000Y-107270000D01*
X117091000Y-101670000D02*
X117091000Y-107330000D01*
X117051000Y-101611000D02*
X117051000Y-107389000D01*
X117011000Y-101555000D02*
X117011000Y-107445000D01*
X116971000Y-101500000D02*
X116971000Y-107500000D01*
X116931000Y-101446000D02*
X116931000Y-107554000D01*
X116891000Y-101394000D02*
X116891000Y-107606000D01*
X116851000Y-101344000D02*
X116851000Y-107656000D01*
X116811000Y-101294000D02*
X116811000Y-107706000D01*
X116771000Y-101246000D02*
X116771000Y-107754000D01*
X116731000Y-101199000D02*
X116731000Y-107801000D01*
X116691000Y-101153000D02*
X116691000Y-107847000D01*
X116651000Y-101108000D02*
X116651000Y-107892000D01*
X116611000Y-101064000D02*
X116611000Y-107936000D01*
X116571000Y-105741000D02*
X116571000Y-107978000D01*
X116571000Y-101022000D02*
X116571000Y-103259000D01*
X116531000Y-105741000D02*
X116531000Y-108020000D01*
X116531000Y-100980000D02*
X116531000Y-103259000D01*
X116491000Y-105741000D02*
X116491000Y-108061000D01*
X116491000Y-100939000D02*
X116491000Y-103259000D01*
X116451000Y-105741000D02*
X116451000Y-108101000D01*
X116451000Y-100899000D02*
X116451000Y-103259000D01*
X116411000Y-105741000D02*
X116411000Y-108140000D01*
X116411000Y-100860000D02*
X116411000Y-103259000D01*
X116371000Y-105741000D02*
X116371000Y-108179000D01*
X116371000Y-100821000D02*
X116371000Y-103259000D01*
X116331000Y-105741000D02*
X116331000Y-108216000D01*
X116331000Y-100784000D02*
X116331000Y-103259000D01*
X116291000Y-105741000D02*
X116291000Y-108253000D01*
X116291000Y-100747000D02*
X116291000Y-103259000D01*
X116251000Y-105741000D02*
X116251000Y-108289000D01*
X116251000Y-100711000D02*
X116251000Y-103259000D01*
X116211000Y-105741000D02*
X116211000Y-108324000D01*
X116211000Y-100676000D02*
X116211000Y-103259000D01*
X116171000Y-105741000D02*
X116171000Y-108358000D01*
X116171000Y-100642000D02*
X116171000Y-103259000D01*
X116131000Y-105741000D02*
X116131000Y-108392000D01*
X116131000Y-100608000D02*
X116131000Y-103259000D01*
X116091000Y-105741000D02*
X116091000Y-108425000D01*
X116091000Y-100575000D02*
X116091000Y-103259000D01*
X116051000Y-105741000D02*
X116051000Y-108457000D01*
X116051000Y-100543000D02*
X116051000Y-103259000D01*
X116011000Y-105741000D02*
X116011000Y-108489000D01*
X116011000Y-100511000D02*
X116011000Y-103259000D01*
X115971000Y-105741000D02*
X115971000Y-108520000D01*
X115971000Y-100480000D02*
X115971000Y-103259000D01*
X115931000Y-105741000D02*
X115931000Y-108550000D01*
X115931000Y-100450000D02*
X115931000Y-103259000D01*
X115891000Y-105741000D02*
X115891000Y-108580000D01*
X115891000Y-100420000D02*
X115891000Y-103259000D01*
X115851000Y-105741000D02*
X115851000Y-108610000D01*
X115851000Y-100390000D02*
X115851000Y-103259000D01*
X115811000Y-105741000D02*
X115811000Y-108638000D01*
X115811000Y-100362000D02*
X115811000Y-103259000D01*
X115771000Y-105741000D02*
X115771000Y-108666000D01*
X115771000Y-100334000D02*
X115771000Y-103259000D01*
X115731000Y-105741000D02*
X115731000Y-108694000D01*
X115731000Y-100306000D02*
X115731000Y-103259000D01*
X115691000Y-105741000D02*
X115691000Y-108721000D01*
X115691000Y-100279000D02*
X115691000Y-103259000D01*
X115651000Y-105741000D02*
X115651000Y-108747000D01*
X115651000Y-100253000D02*
X115651000Y-103259000D01*
X115611000Y-105741000D02*
X115611000Y-108773000D01*
X115611000Y-100227000D02*
X115611000Y-103259000D01*
X115571000Y-105741000D02*
X115571000Y-108798000D01*
X115571000Y-100202000D02*
X115571000Y-103259000D01*
X115531000Y-105741000D02*
X115531000Y-108823000D01*
X115531000Y-100177000D02*
X115531000Y-103259000D01*
X115491000Y-105741000D02*
X115491000Y-108847000D01*
X115491000Y-100153000D02*
X115491000Y-103259000D01*
X115451000Y-105741000D02*
X115451000Y-108871000D01*
X115451000Y-100129000D02*
X115451000Y-103259000D01*
X115411000Y-105741000D02*
X115411000Y-108895000D01*
X115411000Y-100105000D02*
X115411000Y-103259000D01*
X115371000Y-105741000D02*
X115371000Y-108917000D01*
X115371000Y-100083000D02*
X115371000Y-103259000D01*
X115331000Y-105741000D02*
X115331000Y-108940000D01*
X115331000Y-100060000D02*
X115331000Y-103259000D01*
X115291000Y-105741000D02*
X115291000Y-108962000D01*
X115291000Y-100038000D02*
X115291000Y-103259000D01*
X115251000Y-105741000D02*
X115251000Y-108983000D01*
X115251000Y-100017000D02*
X115251000Y-103259000D01*
X115211000Y-105741000D02*
X115211000Y-109004000D01*
X115211000Y-99996000D02*
X115211000Y-103259000D01*
X115171000Y-105741000D02*
X115171000Y-109025000D01*
X115171000Y-99975000D02*
X115171000Y-103259000D01*
X115131000Y-105741000D02*
X115131000Y-109045000D01*
X115131000Y-99955000D02*
X115131000Y-103259000D01*
X115091000Y-105741000D02*
X115091000Y-109064000D01*
X115091000Y-99936000D02*
X115091000Y-103259000D01*
X115051000Y-105741000D02*
X115051000Y-109084000D01*
X115051000Y-99916000D02*
X115051000Y-103259000D01*
X115011000Y-105741000D02*
X115011000Y-109103000D01*
X115011000Y-99897000D02*
X115011000Y-103259000D01*
X114971000Y-105741000D02*
X114971000Y-109121000D01*
X114971000Y-99879000D02*
X114971000Y-103259000D01*
X114931000Y-105741000D02*
X114931000Y-109139000D01*
X114931000Y-99861000D02*
X114931000Y-103259000D01*
X114891000Y-105741000D02*
X114891000Y-109157000D01*
X114891000Y-99843000D02*
X114891000Y-103259000D01*
X114851000Y-105741000D02*
X114851000Y-109174000D01*
X114851000Y-99826000D02*
X114851000Y-103259000D01*
X114811000Y-105741000D02*
X114811000Y-109190000D01*
X114811000Y-99810000D02*
X114811000Y-103259000D01*
X114771000Y-105741000D02*
X114771000Y-109207000D01*
X114771000Y-99793000D02*
X114771000Y-103259000D01*
X114731000Y-105741000D02*
X114731000Y-109223000D01*
X114731000Y-99777000D02*
X114731000Y-103259000D01*
X114691000Y-105741000D02*
X114691000Y-109238000D01*
X114691000Y-99762000D02*
X114691000Y-103259000D01*
X114651000Y-105741000D02*
X114651000Y-109254000D01*
X114651000Y-99746000D02*
X114651000Y-103259000D01*
X114611000Y-105741000D02*
X114611000Y-109268000D01*
X114611000Y-99732000D02*
X114611000Y-103259000D01*
X114571000Y-105741000D02*
X114571000Y-109283000D01*
X114571000Y-99717000D02*
X114571000Y-103259000D01*
X114531000Y-105741000D02*
X114531000Y-109297000D01*
X114531000Y-99703000D02*
X114531000Y-103259000D01*
X114491000Y-105741000D02*
X114491000Y-109311000D01*
X114491000Y-99689000D02*
X114491000Y-103259000D01*
X114451000Y-105741000D02*
X114451000Y-109324000D01*
X114451000Y-99676000D02*
X114451000Y-103259000D01*
X114411000Y-105741000D02*
X114411000Y-109337000D01*
X114411000Y-99663000D02*
X114411000Y-103259000D01*
X114371000Y-105741000D02*
X114371000Y-109350000D01*
X114371000Y-99650000D02*
X114371000Y-103259000D01*
X114331000Y-105741000D02*
X114331000Y-109362000D01*
X114331000Y-99638000D02*
X114331000Y-103259000D01*
X114291000Y-105741000D02*
X114291000Y-109374000D01*
X114291000Y-99626000D02*
X114291000Y-103259000D01*
X114251000Y-105741000D02*
X114251000Y-109385000D01*
X114251000Y-99615000D02*
X114251000Y-103259000D01*
X114211000Y-105741000D02*
X114211000Y-109397000D01*
X114211000Y-99603000D02*
X114211000Y-103259000D01*
X114171000Y-105741000D02*
X114171000Y-109407000D01*
X114171000Y-99593000D02*
X114171000Y-103259000D01*
X114131000Y-105741000D02*
X114131000Y-109418000D01*
X114131000Y-99582000D02*
X114131000Y-103259000D01*
X114091000Y-99572000D02*
X114091000Y-109428000D01*
X114051000Y-99562000D02*
X114051000Y-109438000D01*
X114011000Y-99553000D02*
X114011000Y-109447000D01*
X113971000Y-99544000D02*
X113971000Y-109456000D01*
X113931000Y-99535000D02*
X113931000Y-109465000D01*
X113891000Y-99526000D02*
X113891000Y-109474000D01*
X113851000Y-99518000D02*
X113851000Y-109482000D01*
X113811000Y-99510000D02*
X113811000Y-109490000D01*
X113771000Y-99503000D02*
X113771000Y-109497000D01*
X113731000Y-99496000D02*
X113731000Y-109504000D01*
X113691000Y-99489000D02*
X113691000Y-109511000D01*
X113651000Y-99482000D02*
X113651000Y-109518000D01*
X113611000Y-99476000D02*
X113611000Y-109524000D01*
X113571000Y-99470000D02*
X113571000Y-109530000D01*
X113530000Y-99465000D02*
X113530000Y-109535000D01*
X113490000Y-99460000D02*
X113490000Y-109540000D01*
X113450000Y-99455000D02*
X113450000Y-109545000D01*
X113410000Y-99450000D02*
X113410000Y-109550000D01*
X113370000Y-99446000D02*
X113370000Y-109554000D01*
X113330000Y-99442000D02*
X113330000Y-109558000D01*
X113290000Y-99438000D02*
X113290000Y-109562000D01*
X113250000Y-99435000D02*
X113250000Y-109565000D01*
X113210000Y-99432000D02*
X113210000Y-109568000D01*
X113170000Y-99430000D02*
X113170000Y-109570000D01*
X113130000Y-99427000D02*
X113130000Y-109573000D01*
X113090000Y-99425000D02*
X113090000Y-109575000D01*
X113050000Y-99423000D02*
X113050000Y-109577000D01*
X113010000Y-99422000D02*
X113010000Y-109578000D01*
X112970000Y-99421000D02*
X112970000Y-109579000D01*
X112930000Y-99420000D02*
X112930000Y-109580000D01*
X112890000Y-99420000D02*
X112890000Y-109580000D01*
X112850000Y-99420000D02*
X112850000Y-109580000D01*
X117970000Y-104500000D02*
G75*
G03*
X117970000Y-104500000I-5120000J0D01*
G01*
%TO.C,C8*%
X128504000Y-112014759D02*
X127874000Y-112014759D01*
X128189000Y-111699759D02*
X128189000Y-112329759D01*
X126752000Y-118441000D02*
X125948000Y-118441000D01*
X126983000Y-118401000D02*
X125717000Y-118401000D01*
X127152000Y-118361000D02*
X125548000Y-118361000D01*
X127290000Y-118321000D02*
X125410000Y-118321000D01*
X127409000Y-118281000D02*
X125291000Y-118281000D01*
X127515000Y-118241000D02*
X125185000Y-118241000D01*
X127612000Y-118201000D02*
X125088000Y-118201000D01*
X127700000Y-118161000D02*
X125000000Y-118161000D01*
X127782000Y-118121000D02*
X124918000Y-118121000D01*
X127859000Y-118081000D02*
X124841000Y-118081000D01*
X127931000Y-118041000D02*
X124769000Y-118041000D01*
X128000000Y-118001000D02*
X124700000Y-118001000D01*
X128064000Y-117961000D02*
X124636000Y-117961000D01*
X128126000Y-117921000D02*
X124574000Y-117921000D01*
X128184000Y-117881000D02*
X124516000Y-117881000D01*
X128240000Y-117841000D02*
X124460000Y-117841000D01*
X128294000Y-117801000D02*
X124406000Y-117801000D01*
X128345000Y-117761000D02*
X124355000Y-117761000D01*
X128394000Y-117721000D02*
X124306000Y-117721000D01*
X128442000Y-117681000D02*
X124258000Y-117681000D01*
X128487000Y-117641000D02*
X124213000Y-117641000D01*
X128532000Y-117601000D02*
X124168000Y-117601000D01*
X128574000Y-117561000D02*
X124126000Y-117561000D01*
X128615000Y-117521000D02*
X124085000Y-117521000D01*
X125310000Y-117481000D02*
X124045000Y-117481000D01*
X128655000Y-117481000D02*
X127390000Y-117481000D01*
X125310000Y-117441000D02*
X124007000Y-117441000D01*
X128693000Y-117441000D02*
X127390000Y-117441000D01*
X125310000Y-117401000D02*
X123970000Y-117401000D01*
X128730000Y-117401000D02*
X127390000Y-117401000D01*
X125310000Y-117361000D02*
X123934000Y-117361000D01*
X128766000Y-117361000D02*
X127390000Y-117361000D01*
X125310000Y-117321000D02*
X123900000Y-117321000D01*
X128800000Y-117321000D02*
X127390000Y-117321000D01*
X125310000Y-117281000D02*
X123866000Y-117281000D01*
X128834000Y-117281000D02*
X127390000Y-117281000D01*
X125310000Y-117241000D02*
X123834000Y-117241000D01*
X128866000Y-117241000D02*
X127390000Y-117241000D01*
X125310000Y-117201000D02*
X123802000Y-117201000D01*
X128898000Y-117201000D02*
X127390000Y-117201000D01*
X125310000Y-117161000D02*
X123772000Y-117161000D01*
X128928000Y-117161000D02*
X127390000Y-117161000D01*
X125310000Y-117121000D02*
X123743000Y-117121000D01*
X128957000Y-117121000D02*
X127390000Y-117121000D01*
X125310000Y-117081000D02*
X123714000Y-117081000D01*
X128986000Y-117081000D02*
X127390000Y-117081000D01*
X125310000Y-117041000D02*
X123686000Y-117041000D01*
X129014000Y-117041000D02*
X127390000Y-117041000D01*
X125310000Y-117001000D02*
X123660000Y-117001000D01*
X129040000Y-117001000D02*
X127390000Y-117001000D01*
X125310000Y-116961000D02*
X123634000Y-116961000D01*
X129066000Y-116961000D02*
X127390000Y-116961000D01*
X125310000Y-116921000D02*
X123608000Y-116921000D01*
X129092000Y-116921000D02*
X127390000Y-116921000D01*
X125310000Y-116881000D02*
X123584000Y-116881000D01*
X129116000Y-116881000D02*
X127390000Y-116881000D01*
X125310000Y-116841000D02*
X123560000Y-116841000D01*
X129140000Y-116841000D02*
X127390000Y-116841000D01*
X125310000Y-116801000D02*
X123538000Y-116801000D01*
X129162000Y-116801000D02*
X127390000Y-116801000D01*
X125310000Y-116761000D02*
X123516000Y-116761000D01*
X129184000Y-116761000D02*
X127390000Y-116761000D01*
X125310000Y-116721000D02*
X123494000Y-116721000D01*
X129206000Y-116721000D02*
X127390000Y-116721000D01*
X125310000Y-116681000D02*
X123474000Y-116681000D01*
X129226000Y-116681000D02*
X127390000Y-116681000D01*
X125310000Y-116641000D02*
X123454000Y-116641000D01*
X129246000Y-116641000D02*
X127390000Y-116641000D01*
X125310000Y-116601000D02*
X123434000Y-116601000D01*
X129266000Y-116601000D02*
X127390000Y-116601000D01*
X125310000Y-116561000D02*
X123416000Y-116561000D01*
X129284000Y-116561000D02*
X127390000Y-116561000D01*
X125310000Y-116521000D02*
X123398000Y-116521000D01*
X129302000Y-116521000D02*
X127390000Y-116521000D01*
X125310000Y-116481000D02*
X123380000Y-116481000D01*
X129320000Y-116481000D02*
X127390000Y-116481000D01*
X125310000Y-116441000D02*
X123364000Y-116441000D01*
X129336000Y-116441000D02*
X127390000Y-116441000D01*
X125310000Y-116401000D02*
X123348000Y-116401000D01*
X129352000Y-116401000D02*
X127390000Y-116401000D01*
X125310000Y-116361000D02*
X123332000Y-116361000D01*
X129368000Y-116361000D02*
X127390000Y-116361000D01*
X125310000Y-116321000D02*
X123317000Y-116321000D01*
X129383000Y-116321000D02*
X127390000Y-116321000D01*
X125310000Y-116281000D02*
X123303000Y-116281000D01*
X129397000Y-116281000D02*
X127390000Y-116281000D01*
X125310000Y-116241000D02*
X123289000Y-116241000D01*
X129411000Y-116241000D02*
X127390000Y-116241000D01*
X125310000Y-116201000D02*
X123276000Y-116201000D01*
X129424000Y-116201000D02*
X127390000Y-116201000D01*
X125310000Y-116161000D02*
X123264000Y-116161000D01*
X129436000Y-116161000D02*
X127390000Y-116161000D01*
X125310000Y-116121000D02*
X123252000Y-116121000D01*
X129448000Y-116121000D02*
X127390000Y-116121000D01*
X125310000Y-116081000D02*
X123240000Y-116081000D01*
X129460000Y-116081000D02*
X127390000Y-116081000D01*
X125310000Y-116041000D02*
X123229000Y-116041000D01*
X129471000Y-116041000D02*
X127390000Y-116041000D01*
X125310000Y-116001000D02*
X123219000Y-116001000D01*
X129481000Y-116001000D02*
X127390000Y-116001000D01*
X125310000Y-115961000D02*
X123209000Y-115961000D01*
X129491000Y-115961000D02*
X127390000Y-115961000D01*
X125310000Y-115921000D02*
X123200000Y-115921000D01*
X129500000Y-115921000D02*
X127390000Y-115921000D01*
X125310000Y-115880000D02*
X123191000Y-115880000D01*
X129509000Y-115880000D02*
X127390000Y-115880000D01*
X125310000Y-115840000D02*
X123183000Y-115840000D01*
X129517000Y-115840000D02*
X127390000Y-115840000D01*
X125310000Y-115800000D02*
X123175000Y-115800000D01*
X129525000Y-115800000D02*
X127390000Y-115800000D01*
X125310000Y-115760000D02*
X123168000Y-115760000D01*
X129532000Y-115760000D02*
X127390000Y-115760000D01*
X125310000Y-115720000D02*
X123161000Y-115720000D01*
X129539000Y-115720000D02*
X127390000Y-115720000D01*
X125310000Y-115680000D02*
X123155000Y-115680000D01*
X129545000Y-115680000D02*
X127390000Y-115680000D01*
X125310000Y-115640000D02*
X123149000Y-115640000D01*
X129551000Y-115640000D02*
X127390000Y-115640000D01*
X125310000Y-115600000D02*
X123144000Y-115600000D01*
X129556000Y-115600000D02*
X127390000Y-115600000D01*
X125310000Y-115560000D02*
X123139000Y-115560000D01*
X129561000Y-115560000D02*
X127390000Y-115560000D01*
X125310000Y-115520000D02*
X123135000Y-115520000D01*
X129565000Y-115520000D02*
X127390000Y-115520000D01*
X125310000Y-115480000D02*
X123132000Y-115480000D01*
X129568000Y-115480000D02*
X127390000Y-115480000D01*
X125310000Y-115440000D02*
X123128000Y-115440000D01*
X129572000Y-115440000D02*
X127390000Y-115440000D01*
X129574000Y-115400000D02*
X123126000Y-115400000D01*
X129577000Y-115360000D02*
X123123000Y-115360000D01*
X129578000Y-115320000D02*
X123122000Y-115320000D01*
X129580000Y-115280000D02*
X123120000Y-115280000D01*
X129580000Y-115240000D02*
X123120000Y-115240000D01*
X129580000Y-115200000D02*
X123120000Y-115200000D01*
X129620000Y-115200000D02*
G75*
G03*
X129620000Y-115200000I-3270000J0D01*
G01*
%TO.C,D1*%
X145140000Y-118735000D02*
X148000000Y-118735000D01*
X145140000Y-116815000D02*
X145140000Y-118735000D01*
X148000000Y-116815000D02*
X145140000Y-116815000D01*
%TO.C,D2*%
X122950000Y-119250000D02*
X129850000Y-119250000D01*
X122950000Y-122550000D02*
X129850000Y-122550000D01*
X122950000Y-119250000D02*
X122950000Y-122550000D01*
%TO.C,D3*%
X148000000Y-118990000D02*
X145140000Y-118990000D01*
X145140000Y-118990000D02*
X145140000Y-120910000D01*
X145140000Y-120910000D02*
X148000000Y-120910000D01*
%TO.C,D4*%
X156800000Y-115350000D02*
X156800000Y-118650000D01*
X156800000Y-118650000D02*
X163700000Y-118650000D01*
X156800000Y-115350000D02*
X163700000Y-115350000D01*
%TO.C,D5*%
X156800000Y-95350000D02*
X163700000Y-95350000D01*
X156800000Y-98650000D02*
X163700000Y-98650000D01*
X156800000Y-95350000D02*
X156800000Y-98650000D01*
%TO.C,D6*%
X156800000Y-72650000D02*
X156800000Y-75950000D01*
X156800000Y-75950000D02*
X163700000Y-75950000D01*
X156800000Y-72650000D02*
X163700000Y-72650000D01*
%TO.C,D7*%
X156800000Y-105350000D02*
X163700000Y-105350000D01*
X156800000Y-108650000D02*
X163700000Y-108650000D01*
X156800000Y-105350000D02*
X156800000Y-108650000D01*
%TO.C,D8*%
X156800000Y-82650000D02*
X156800000Y-85950000D01*
X156800000Y-85950000D02*
X163700000Y-85950000D01*
X156800000Y-82650000D02*
X163700000Y-82650000D01*
%TO.C,J1*%
X174680253Y-120971195D02*
G75*
G02*
X174535000Y-121684000I-1680253J-28805D01*
G01*
X173683042Y-122535426D02*
G75*
G02*
X172316000Y-122535000I-683042J1535426D01*
G01*
X171464574Y-121683042D02*
G75*
G02*
X171465000Y-120316000I1535426J683042D01*
G01*
X172316958Y-119464574D02*
G75*
G02*
X173684000Y-119465000I683042J-1535426D01*
G01*
X174534756Y-120316682D02*
G75*
G02*
X174680000Y-121000000I-1534756J-683318D01*
G01*
X174680000Y-116000000D02*
G75*
G03*
X174680000Y-116000000I-1680000J0D01*
G01*
X174680000Y-111000000D02*
G75*
G03*
X174680000Y-111000000I-1680000J0D01*
G01*
X174680000Y-106000000D02*
G75*
G03*
X174680000Y-106000000I-1680000J0D01*
G01*
X174680000Y-101000000D02*
G75*
G03*
X174680000Y-101000000I-1680000J0D01*
G01*
X174680000Y-96000000D02*
G75*
G03*
X174680000Y-96000000I-1680000J0D01*
G01*
X177100000Y-123560000D02*
X177100000Y-93440000D01*
X175600000Y-123560000D02*
X175600000Y-93440000D01*
X170699000Y-123560000D02*
X170699000Y-93440000D01*
X167739000Y-123560000D02*
X167739000Y-93440000D01*
X177660000Y-123560000D02*
X177660000Y-93440000D01*
X167739000Y-123560000D02*
X177660000Y-123560000D01*
X167739000Y-93440000D02*
X177660000Y-93440000D01*
X171931000Y-114725000D02*
X171977000Y-114772000D01*
X174239000Y-117034000D02*
X174274000Y-117069000D01*
X171725000Y-114930000D02*
X171761000Y-114965000D01*
X174023000Y-117227000D02*
X174069000Y-117274000D01*
X171931000Y-109725000D02*
X171977000Y-109772000D01*
X174239000Y-112034000D02*
X174274000Y-112069000D01*
X171725000Y-109930000D02*
X171761000Y-109965000D01*
X174023000Y-112227000D02*
X174069000Y-112274000D01*
X171931000Y-104725000D02*
X171977000Y-104772000D01*
X174239000Y-107034000D02*
X174274000Y-107069000D01*
X171725000Y-104930000D02*
X171761000Y-104965000D01*
X174023000Y-107227000D02*
X174069000Y-107274000D01*
X171931000Y-99725000D02*
X171977000Y-99772000D01*
X174239000Y-102034000D02*
X174274000Y-102069000D01*
X171725000Y-99930000D02*
X171761000Y-99965000D01*
X174023000Y-102227000D02*
X174069000Y-102274000D01*
X171931000Y-94725000D02*
X171977000Y-94772000D01*
X174239000Y-97034000D02*
X174274000Y-97069000D01*
X171725000Y-94930000D02*
X171761000Y-94965000D01*
X174023000Y-97227000D02*
X174069000Y-97274000D01*
X177160000Y-123800000D02*
X177900000Y-123800000D01*
X177900000Y-123800000D02*
X177900000Y-123300000D01*
%TO.C,J2*%
X177900000Y-91100000D02*
X177900000Y-90600000D01*
X177160000Y-91100000D02*
X177900000Y-91100000D01*
X174023000Y-64527000D02*
X174069000Y-64574000D01*
X171725000Y-62230000D02*
X171761000Y-62265000D01*
X174239000Y-64334000D02*
X174274000Y-64369000D01*
X171931000Y-62025000D02*
X171977000Y-62072000D01*
X174023000Y-69527000D02*
X174069000Y-69574000D01*
X171725000Y-67230000D02*
X171761000Y-67265000D01*
X174239000Y-69334000D02*
X174274000Y-69369000D01*
X171931000Y-67025000D02*
X171977000Y-67072000D01*
X174023000Y-74527000D02*
X174069000Y-74574000D01*
X171725000Y-72230000D02*
X171761000Y-72265000D01*
X174239000Y-74334000D02*
X174274000Y-74369000D01*
X171931000Y-72025000D02*
X171977000Y-72072000D01*
X174023000Y-79527000D02*
X174069000Y-79574000D01*
X171725000Y-77230000D02*
X171761000Y-77265000D01*
X174239000Y-79334000D02*
X174274000Y-79369000D01*
X171931000Y-77025000D02*
X171977000Y-77072000D01*
X174023000Y-84527000D02*
X174069000Y-84574000D01*
X171725000Y-82230000D02*
X171761000Y-82265000D01*
X174239000Y-84334000D02*
X174274000Y-84369000D01*
X171931000Y-82025000D02*
X171977000Y-82072000D01*
X167739000Y-60740000D02*
X177660000Y-60740000D01*
X167739000Y-90860000D02*
X177660000Y-90860000D01*
X177660000Y-90860000D02*
X177660000Y-60740000D01*
X167739000Y-90860000D02*
X167739000Y-60740000D01*
X170699000Y-90860000D02*
X170699000Y-60740000D01*
X175600000Y-90860000D02*
X175600000Y-60740000D01*
X177100000Y-90860000D02*
X177100000Y-60740000D01*
X174680000Y-63300000D02*
G75*
G03*
X174680000Y-63300000I-1680000J0D01*
G01*
X174680000Y-68300000D02*
G75*
G03*
X174680000Y-68300000I-1680000J0D01*
G01*
X174680000Y-73300000D02*
G75*
G03*
X174680000Y-73300000I-1680000J0D01*
G01*
X174680000Y-78300000D02*
G75*
G03*
X174680000Y-78300000I-1680000J0D01*
G01*
X174680000Y-83300000D02*
G75*
G03*
X174680000Y-83300000I-1680000J0D01*
G01*
X174534756Y-87616682D02*
G75*
G02*
X174680000Y-88300000I-1534756J-683318D01*
G01*
X172316958Y-86764574D02*
G75*
G02*
X173684000Y-86765000I683042J-1535426D01*
G01*
X171464574Y-88983042D02*
G75*
G02*
X171465000Y-87616000I1535426J683042D01*
G01*
X173683042Y-89835426D02*
G75*
G02*
X172316000Y-89835000I-683042J1535426D01*
G01*
X174680253Y-88271195D02*
G75*
G02*
X174535000Y-88984000I-1680253J-28805D01*
G01*
%TO.C,J3*%
X99980253Y-120971195D02*
G75*
G02*
X99835000Y-121684000I-1680253J-28805D01*
G01*
X98983042Y-122535426D02*
G75*
G02*
X97616000Y-122535000I-683042J1535426D01*
G01*
X96764574Y-121683042D02*
G75*
G02*
X96765000Y-120316000I1535426J683042D01*
G01*
X97616958Y-119464574D02*
G75*
G02*
X98984000Y-119465000I683042J-1535426D01*
G01*
X99834756Y-120316682D02*
G75*
G02*
X99980000Y-121000000I-1534756J-683318D01*
G01*
X99980000Y-116000000D02*
G75*
G03*
X99980000Y-116000000I-1680000J0D01*
G01*
X99980000Y-111000000D02*
G75*
G03*
X99980000Y-111000000I-1680000J0D01*
G01*
X99980000Y-106000000D02*
G75*
G03*
X99980000Y-106000000I-1680000J0D01*
G01*
X99980000Y-101000000D02*
G75*
G03*
X99980000Y-101000000I-1680000J0D01*
G01*
X99980000Y-96000000D02*
G75*
G03*
X99980000Y-96000000I-1680000J0D01*
G01*
X102400000Y-123560000D02*
X102400000Y-93440000D01*
X100900000Y-123560000D02*
X100900000Y-93440000D01*
X95999000Y-123560000D02*
X95999000Y-93440000D01*
X93039000Y-123560000D02*
X93039000Y-93440000D01*
X102960000Y-123560000D02*
X102960000Y-93440000D01*
X93039000Y-123560000D02*
X102960000Y-123560000D01*
X93039000Y-93440000D02*
X102960000Y-93440000D01*
X97231000Y-114725000D02*
X97277000Y-114772000D01*
X99539000Y-117034000D02*
X99574000Y-117069000D01*
X97025000Y-114930000D02*
X97061000Y-114965000D01*
X99323000Y-117227000D02*
X99369000Y-117274000D01*
X97231000Y-109725000D02*
X97277000Y-109772000D01*
X99539000Y-112034000D02*
X99574000Y-112069000D01*
X97025000Y-109930000D02*
X97061000Y-109965000D01*
X99323000Y-112227000D02*
X99369000Y-112274000D01*
X97231000Y-104725000D02*
X97277000Y-104772000D01*
X99539000Y-107034000D02*
X99574000Y-107069000D01*
X97025000Y-104930000D02*
X97061000Y-104965000D01*
X99323000Y-107227000D02*
X99369000Y-107274000D01*
X97231000Y-99725000D02*
X97277000Y-99772000D01*
X99539000Y-102034000D02*
X99574000Y-102069000D01*
X97025000Y-99930000D02*
X97061000Y-99965000D01*
X99323000Y-102227000D02*
X99369000Y-102274000D01*
X97231000Y-94725000D02*
X97277000Y-94772000D01*
X99539000Y-97034000D02*
X99574000Y-97069000D01*
X97025000Y-94930000D02*
X97061000Y-94965000D01*
X99323000Y-97227000D02*
X99369000Y-97274000D01*
X102460000Y-123800000D02*
X103200000Y-123800000D01*
X103200000Y-123800000D02*
X103200000Y-123300000D01*
%TO.C,ICSP*%
X142980000Y-87580000D02*
X144310000Y-87580000D01*
X142980000Y-88910000D02*
X142980000Y-87580000D01*
X145580000Y-87580000D02*
X148180000Y-87580000D01*
X145580000Y-90180000D02*
X145580000Y-87580000D01*
X142980000Y-90180000D02*
X145580000Y-90180000D01*
X148180000Y-87580000D02*
X148180000Y-95320000D01*
X142980000Y-90180000D02*
X142980000Y-95320000D01*
X142980000Y-95320000D02*
X148180000Y-95320000D01*
%TO.C,J5*%
X104820000Y-93940000D02*
X106150000Y-93940000D01*
X104820000Y-95270000D02*
X104820000Y-93940000D01*
X104820000Y-96540000D02*
X107480000Y-96540000D01*
X107480000Y-96540000D02*
X107480000Y-101680000D01*
X104820000Y-96540000D02*
X104820000Y-101680000D01*
X104820000Y-101680000D02*
X107480000Y-101680000D01*
%TO.C,J6*%
X103200000Y-91100000D02*
X103200000Y-90600000D01*
X102460000Y-91100000D02*
X103200000Y-91100000D01*
X99323000Y-64527000D02*
X99369000Y-64574000D01*
X97025000Y-62230000D02*
X97061000Y-62265000D01*
X99539000Y-64334000D02*
X99574000Y-64369000D01*
X97231000Y-62025000D02*
X97277000Y-62072000D01*
X99323000Y-69527000D02*
X99369000Y-69574000D01*
X97025000Y-67230000D02*
X97061000Y-67265000D01*
X99539000Y-69334000D02*
X99574000Y-69369000D01*
X97231000Y-67025000D02*
X97277000Y-67072000D01*
X99323000Y-74527000D02*
X99369000Y-74574000D01*
X97025000Y-72230000D02*
X97061000Y-72265000D01*
X99539000Y-74334000D02*
X99574000Y-74369000D01*
X97231000Y-72025000D02*
X97277000Y-72072000D01*
X99323000Y-79527000D02*
X99369000Y-79574000D01*
X97025000Y-77230000D02*
X97061000Y-77265000D01*
X99539000Y-79334000D02*
X99574000Y-79369000D01*
X97231000Y-77025000D02*
X97277000Y-77072000D01*
X99323000Y-84527000D02*
X99369000Y-84574000D01*
X97025000Y-82230000D02*
X97061000Y-82265000D01*
X99539000Y-84334000D02*
X99574000Y-84369000D01*
X97231000Y-82025000D02*
X97277000Y-82072000D01*
X93039000Y-60740000D02*
X102960000Y-60740000D01*
X93039000Y-90860000D02*
X102960000Y-90860000D01*
X102960000Y-90860000D02*
X102960000Y-60740000D01*
X93039000Y-90860000D02*
X93039000Y-60740000D01*
X95999000Y-90860000D02*
X95999000Y-60740000D01*
X100900000Y-90860000D02*
X100900000Y-60740000D01*
X102400000Y-90860000D02*
X102400000Y-60740000D01*
X99980000Y-63300000D02*
G75*
G03*
X99980000Y-63300000I-1680000J0D01*
G01*
X99980000Y-68300000D02*
G75*
G03*
X99980000Y-68300000I-1680000J0D01*
G01*
X99980000Y-73300000D02*
G75*
G03*
X99980000Y-73300000I-1680000J0D01*
G01*
X99980000Y-78300000D02*
G75*
G03*
X99980000Y-78300000I-1680000J0D01*
G01*
X99980000Y-83300000D02*
G75*
G03*
X99980000Y-83300000I-1680000J0D01*
G01*
X99834756Y-87616682D02*
G75*
G02*
X99980000Y-88300000I-1534756J-683318D01*
G01*
X97616958Y-86764574D02*
G75*
G02*
X98984000Y-86765000I683042J-1535426D01*
G01*
X96764574Y-88983042D02*
G75*
G02*
X96765000Y-87616000I1535426J683042D01*
G01*
X98983042Y-89835426D02*
G75*
G02*
X97616000Y-89835000I-683042J1535426D01*
G01*
X99980253Y-88271195D02*
G75*
G02*
X99835000Y-88984000I-1680253J-28805D01*
G01*
%TO.C,L1*%
X138520000Y-115600000D02*
G75*
G03*
X138520000Y-115600000I-3620000J0D01*
G01*
%TO.C,PS1*%
X138700000Y-97500000D02*
X138700000Y-96300000D01*
X137500000Y-97500000D02*
X138700000Y-97500000D01*
X132110000Y-85480000D02*
X138450000Y-85480000D01*
X138450000Y-97250000D02*
X138450000Y-85480000D01*
X132110000Y-97250000D02*
X138450000Y-97250000D01*
X132110000Y-97250000D02*
X132110000Y-85480000D01*
%TO.C,Q1*%
X163760000Y-102580000D02*
X163760000Y-101650000D01*
X163760000Y-99420000D02*
X163760000Y-100350000D01*
X163760000Y-99420000D02*
X160600000Y-99420000D01*
X163760000Y-102580000D02*
X162300000Y-102580000D01*
%TO.C,Q2*%
X163760000Y-122580000D02*
X162300000Y-122580000D01*
X163760000Y-119420000D02*
X160600000Y-119420000D01*
X163760000Y-119420000D02*
X163760000Y-120350000D01*
X163760000Y-122580000D02*
X163760000Y-121650000D01*
%TO.C,Q3*%
X163760000Y-112580000D02*
X163760000Y-111650000D01*
X163760000Y-109420000D02*
X163760000Y-110350000D01*
X163760000Y-109420000D02*
X160600000Y-109420000D01*
X163760000Y-112580000D02*
X162300000Y-112580000D01*
%TO.C,Q4*%
X163760000Y-89880000D02*
X162300000Y-89880000D01*
X163760000Y-86720000D02*
X160600000Y-86720000D01*
X163760000Y-86720000D02*
X163760000Y-87650000D01*
X163760000Y-89880000D02*
X163760000Y-88950000D01*
%TO.C,Q5*%
X163760000Y-79880000D02*
X162300000Y-79880000D01*
X163760000Y-76720000D02*
X160600000Y-76720000D01*
X163760000Y-76720000D02*
X163760000Y-77650000D01*
X163760000Y-79880000D02*
X163760000Y-78950000D01*
%TO.C,R1*%
X111068748Y-85290000D02*
X111591252Y-85290000D01*
X111068748Y-86710000D02*
X111591252Y-86710000D01*
%TO.C,R2*%
X128263748Y-85290000D02*
X128786252Y-85290000D01*
X128263748Y-86710000D02*
X128786252Y-86710000D01*
%TO.C,R3*%
X128263748Y-72710000D02*
X128786252Y-72710000D01*
X128263748Y-71290000D02*
X128786252Y-71290000D01*
%TO.C,R4*%
X115441252Y-85290000D02*
X114918748Y-85290000D01*
X115441252Y-86710000D02*
X114918748Y-86710000D01*
%TO.C,R5*%
X124936252Y-86710000D02*
X124413748Y-86710000D01*
X124936252Y-85290000D02*
X124413748Y-85290000D01*
%TO.C,R6*%
X124936252Y-71290000D02*
X124413748Y-71290000D01*
X124936252Y-72710000D02*
X124413748Y-72710000D01*
%TO.C,R7*%
X108130000Y-69323748D02*
X108130000Y-69846252D01*
X106710000Y-69323748D02*
X106710000Y-69846252D01*
%TO.C,R8*%
X106110000Y-69836252D02*
X106110000Y-69313748D01*
X104690000Y-69836252D02*
X104690000Y-69313748D01*
%TO.C,R9*%
X106586252Y-71760000D02*
X106063748Y-71760000D01*
X106586252Y-73180000D02*
X106063748Y-73180000D01*
%TO.C,R10*%
X142663748Y-118485000D02*
X143186252Y-118485000D01*
X142663748Y-117065000D02*
X143186252Y-117065000D01*
%TO.C,R11*%
X145311252Y-86260000D02*
X144788748Y-86260000D01*
X145311252Y-84840000D02*
X144788748Y-84840000D01*
%TO.C,R12*%
X153236252Y-95710000D02*
X152713748Y-95710000D01*
X153236252Y-94290000D02*
X152713748Y-94290000D01*
%TO.C,R13*%
X152713748Y-97710000D02*
X153236252Y-97710000D01*
X152713748Y-96290000D02*
X153236252Y-96290000D01*
%TO.C,R14*%
X153236252Y-115710000D02*
X152713748Y-115710000D01*
X153236252Y-114290000D02*
X152713748Y-114290000D01*
%TO.C,R15*%
X152713748Y-117710000D02*
X153236252Y-117710000D01*
X152713748Y-116290000D02*
X153236252Y-116290000D01*
%TO.C,R16*%
X153236252Y-105710000D02*
X152713748Y-105710000D01*
X153236252Y-104290000D02*
X152713748Y-104290000D01*
%TO.C,R17*%
X152713748Y-107710000D02*
X153236252Y-107710000D01*
X152713748Y-106290000D02*
X153236252Y-106290000D01*
%TO.C,R18*%
X153236252Y-83010000D02*
X152713748Y-83010000D01*
X153236252Y-81590000D02*
X152713748Y-81590000D01*
%TO.C,R19*%
X152713748Y-85010000D02*
X153236252Y-85010000D01*
X152713748Y-83590000D02*
X153236252Y-83590000D01*
%TO.C,R20*%
X142663748Y-120660000D02*
X143186252Y-120660000D01*
X142663748Y-119240000D02*
X143186252Y-119240000D01*
%TO.C,R21*%
X158236252Y-120710000D02*
X157713748Y-120710000D01*
X158236252Y-119290000D02*
X157713748Y-119290000D01*
%TO.C,R22*%
X158236252Y-100710000D02*
X157713748Y-100710000D01*
X158236252Y-99290000D02*
X157713748Y-99290000D01*
%TO.C,R23*%
X158236252Y-76590000D02*
X157713748Y-76590000D01*
X158236252Y-78010000D02*
X157713748Y-78010000D01*
%TO.C,R24*%
X157713748Y-122710000D02*
X158236252Y-122710000D01*
X157713748Y-121290000D02*
X158236252Y-121290000D01*
%TO.C,R25*%
X157713748Y-101290000D02*
X158236252Y-101290000D01*
X157713748Y-102710000D02*
X158236252Y-102710000D01*
%TO.C,R26*%
X157713748Y-80010000D02*
X158236252Y-80010000D01*
X157713748Y-78590000D02*
X158236252Y-78590000D01*
%TO.C,R27*%
X153236252Y-73010000D02*
X152713748Y-73010000D01*
X153236252Y-71590000D02*
X152713748Y-71590000D01*
%TO.C,R28*%
X152713748Y-75010000D02*
X153236252Y-75010000D01*
X152713748Y-73590000D02*
X153236252Y-73590000D01*
%TO.C,R29*%
X158236252Y-109290000D02*
X157713748Y-109290000D01*
X158236252Y-110710000D02*
X157713748Y-110710000D01*
%TO.C,R30*%
X158236252Y-88010000D02*
X157713748Y-88010000D01*
X158236252Y-86590000D02*
X157713748Y-86590000D01*
%TO.C,R31*%
X157713748Y-111240000D02*
X158236252Y-111240000D01*
X157713748Y-112660000D02*
X158236252Y-112660000D01*
%TO.C,R32*%
X157713748Y-88590000D02*
X158236252Y-88590000D01*
X157713748Y-90010000D02*
X158236252Y-90010000D01*
%TO.C,Reset*%
X146810000Y-81360000D02*
X143190000Y-81360000D01*
X146810000Y-75240000D02*
X146810000Y-81360000D01*
X143190000Y-75240000D02*
X146810000Y-75240000D01*
X143190000Y-81360000D02*
X143190000Y-75240000D01*
%TO.C,U1*%
X111905000Y-74260000D02*
G75*
G02*
X109905000Y-74260000I-1000000J0D01*
G01*
X109905000Y-74260000D02*
X108370000Y-74260000D01*
X108370000Y-74260000D02*
X108370000Y-84540000D01*
X108370000Y-84540000D02*
X113440000Y-84540000D01*
X113440000Y-84540000D02*
X113440000Y-74260000D01*
X113440000Y-74260000D02*
X111905000Y-74260000D01*
X104670000Y-74200000D02*
X104670000Y-84600000D01*
X104670000Y-84600000D02*
X117140000Y-84600000D01*
X117140000Y-84600000D02*
X117140000Y-74200000D01*
X117140000Y-74200000D02*
X104670000Y-74200000D01*
%TO.C,U2*%
X118015000Y-84600000D02*
X130485000Y-84600000D01*
X118015000Y-74200000D02*
X118015000Y-84600000D01*
X130485000Y-74200000D02*
X118015000Y-74200000D01*
X130485000Y-84600000D02*
X130485000Y-74200000D01*
X121715000Y-84540000D02*
X123250000Y-84540000D01*
X121715000Y-74260000D02*
X121715000Y-84540000D01*
X126785000Y-74260000D02*
X121715000Y-74260000D01*
X126785000Y-84540000D02*
X126785000Y-74260000D01*
X125250000Y-84540000D02*
X126785000Y-84540000D01*
X123250000Y-84540000D02*
G75*
G02*
X125250000Y-84540000I1000000J0D01*
G01*
%TO.C,U3*%
X118015000Y-70600000D02*
X130485000Y-70600000D01*
X118015000Y-60200000D02*
X118015000Y-70600000D01*
X130485000Y-60200000D02*
X118015000Y-60200000D01*
X130485000Y-70600000D02*
X130485000Y-60200000D01*
X121715000Y-70540000D02*
X123250000Y-70540000D01*
X121715000Y-60260000D02*
X121715000Y-70540000D01*
X126785000Y-60260000D02*
X121715000Y-60260000D01*
X126785000Y-70540000D02*
X126785000Y-60260000D01*
X125250000Y-70540000D02*
X126785000Y-70540000D01*
X123250000Y-70540000D02*
G75*
G02*
X125250000Y-70540000I1000000J0D01*
G01*
%TO.C,U4*%
X109425000Y-67045000D02*
X112875000Y-67045000D01*
X109425000Y-67045000D02*
X107475000Y-67045000D01*
X109425000Y-61925000D02*
X111375000Y-61925000D01*
X109425000Y-61925000D02*
X107475000Y-61925000D01*
D10*
%TO.C,U5*%
X135732575Y-104909099D02*
X134724948Y-105916726D01*
X140700000Y-99623476D02*
X140470190Y-99853286D01*
X145826524Y-104750000D02*
X145596714Y-104979810D01*
X140700000Y-109876524D02*
X140929810Y-109646714D01*
X135573476Y-104750000D02*
X135803286Y-104520190D01*
X140700000Y-109876524D02*
X140470190Y-109646714D01*
X145826524Y-104750000D02*
X145596714Y-104520190D01*
X140700000Y-99623476D02*
X140929810Y-99853286D01*
X135573476Y-104750000D02*
X135732575Y-104909099D01*
D11*
%TO.C,U6*%
X116275000Y-112850000D02*
X117375000Y-112850000D01*
X116275000Y-111900000D02*
X116275000Y-112850000D01*
X114775000Y-111900000D02*
X116275000Y-111900000D01*
X116275000Y-121350000D02*
X121400000Y-121350000D01*
X116275000Y-122300000D02*
X116275000Y-121350000D01*
X114775000Y-122300000D02*
X116275000Y-122300000D01*
%TO.C,Y1*%
X126100000Y-90912500D02*
X126100000Y-106887500D01*
X131200000Y-90912500D02*
X126100000Y-90912500D01*
X131200000Y-106887500D02*
X131200000Y-90912500D01*
%TO.C,C1*%
D10*
X133958333Y-111257142D02*
X133910714Y-111304761D01*
X133767857Y-111352380D01*
X133672619Y-111352380D01*
X133529761Y-111304761D01*
X133434523Y-111209523D01*
X133386904Y-111114285D01*
X133339285Y-110923809D01*
X133339285Y-110780952D01*
X133386904Y-110590476D01*
X133434523Y-110495238D01*
X133529761Y-110400000D01*
X133672619Y-110352380D01*
X133767857Y-110352380D01*
X133910714Y-110400000D01*
X133958333Y-110447619D01*
X134910714Y-111352380D02*
X134339285Y-111352380D01*
X134625000Y-111352380D02*
X134625000Y-110352380D01*
X134529761Y-110495238D01*
X134434523Y-110590476D01*
X134339285Y-110638095D01*
%TO.C,C2*%
X133208333Y-98357142D02*
X133160714Y-98404761D01*
X133017857Y-98452380D01*
X132922619Y-98452380D01*
X132779761Y-98404761D01*
X132684523Y-98309523D01*
X132636904Y-98214285D01*
X132589285Y-98023809D01*
X132589285Y-97880952D01*
X132636904Y-97690476D01*
X132684523Y-97595238D01*
X132779761Y-97500000D01*
X132922619Y-97452380D01*
X133017857Y-97452380D01*
X133160714Y-97500000D01*
X133208333Y-97547619D01*
X133589285Y-97547619D02*
X133636904Y-97500000D01*
X133732142Y-97452380D01*
X133970238Y-97452380D01*
X134065476Y-97500000D01*
X134113095Y-97547619D01*
X134160714Y-97642857D01*
X134160714Y-97738095D01*
X134113095Y-97880952D01*
X133541666Y-98452380D01*
X134160714Y-98452380D01*
%TO.C,C3*%
X133283333Y-103407142D02*
X133235714Y-103454761D01*
X133092857Y-103502380D01*
X132997619Y-103502380D01*
X132854761Y-103454761D01*
X132759523Y-103359523D01*
X132711904Y-103264285D01*
X132664285Y-103073809D01*
X132664285Y-102930952D01*
X132711904Y-102740476D01*
X132759523Y-102645238D01*
X132854761Y-102550000D01*
X132997619Y-102502380D01*
X133092857Y-102502380D01*
X133235714Y-102550000D01*
X133283333Y-102597619D01*
X133616666Y-102502380D02*
X134235714Y-102502380D01*
X133902380Y-102883333D01*
X134045238Y-102883333D01*
X134140476Y-102930952D01*
X134188095Y-102978571D01*
X134235714Y-103073809D01*
X134235714Y-103311904D01*
X134188095Y-103407142D01*
X134140476Y-103454761D01*
X134045238Y-103502380D01*
X133759523Y-103502380D01*
X133664285Y-103454761D01*
X133616666Y-103407142D01*
%TO.C,C4*%
X107033333Y-88232142D02*
X106985714Y-88279761D01*
X106842857Y-88327380D01*
X106747619Y-88327380D01*
X106604761Y-88279761D01*
X106509523Y-88184523D01*
X106461904Y-88089285D01*
X106414285Y-87898809D01*
X106414285Y-87755952D01*
X106461904Y-87565476D01*
X106509523Y-87470238D01*
X106604761Y-87375000D01*
X106747619Y-87327380D01*
X106842857Y-87327380D01*
X106985714Y-87375000D01*
X107033333Y-87422619D01*
X107890476Y-87660714D02*
X107890476Y-88327380D01*
X107652380Y-87279761D02*
X107414285Y-87994047D01*
X108033333Y-87994047D01*
%TO.C,C5*%
X120783333Y-88157142D02*
X120735714Y-88204761D01*
X120592857Y-88252380D01*
X120497619Y-88252380D01*
X120354761Y-88204761D01*
X120259523Y-88109523D01*
X120211904Y-88014285D01*
X120164285Y-87823809D01*
X120164285Y-87680952D01*
X120211904Y-87490476D01*
X120259523Y-87395238D01*
X120354761Y-87300000D01*
X120497619Y-87252380D01*
X120592857Y-87252380D01*
X120735714Y-87300000D01*
X120783333Y-87347619D01*
X121688095Y-87252380D02*
X121211904Y-87252380D01*
X121164285Y-87728571D01*
X121211904Y-87680952D01*
X121307142Y-87633333D01*
X121545238Y-87633333D01*
X121640476Y-87680952D01*
X121688095Y-87728571D01*
X121735714Y-87823809D01*
X121735714Y-88061904D01*
X121688095Y-88157142D01*
X121640476Y-88204761D01*
X121545238Y-88252380D01*
X121307142Y-88252380D01*
X121211904Y-88204761D01*
X121164285Y-88157142D01*
%TO.C,C6*%
X120658333Y-74032142D02*
X120610714Y-74079761D01*
X120467857Y-74127380D01*
X120372619Y-74127380D01*
X120229761Y-74079761D01*
X120134523Y-73984523D01*
X120086904Y-73889285D01*
X120039285Y-73698809D01*
X120039285Y-73555952D01*
X120086904Y-73365476D01*
X120134523Y-73270238D01*
X120229761Y-73175000D01*
X120372619Y-73127380D01*
X120467857Y-73127380D01*
X120610714Y-73175000D01*
X120658333Y-73222619D01*
X121515476Y-73127380D02*
X121325000Y-73127380D01*
X121229761Y-73175000D01*
X121182142Y-73222619D01*
X121086904Y-73365476D01*
X121039285Y-73555952D01*
X121039285Y-73936904D01*
X121086904Y-74032142D01*
X121134523Y-74079761D01*
X121229761Y-74127380D01*
X121420238Y-74127380D01*
X121515476Y-74079761D01*
X121563095Y-74032142D01*
X121610714Y-73936904D01*
X121610714Y-73698809D01*
X121563095Y-73603571D01*
X121515476Y-73555952D01*
X121420238Y-73508333D01*
X121229761Y-73508333D01*
X121134523Y-73555952D01*
X121086904Y-73603571D01*
X121039285Y-73698809D01*
%TO.C,C7*%
X112683333Y-98607142D02*
X112635714Y-98654761D01*
X112492857Y-98702380D01*
X112397619Y-98702380D01*
X112254761Y-98654761D01*
X112159523Y-98559523D01*
X112111904Y-98464285D01*
X112064285Y-98273809D01*
X112064285Y-98130952D01*
X112111904Y-97940476D01*
X112159523Y-97845238D01*
X112254761Y-97750000D01*
X112397619Y-97702380D01*
X112492857Y-97702380D01*
X112635714Y-97750000D01*
X112683333Y-97797619D01*
X113016666Y-97702380D02*
X113683333Y-97702380D01*
X113254761Y-98702380D01*
%TO.C,C8*%
X124058333Y-111482142D02*
X124010714Y-111529761D01*
X123867857Y-111577380D01*
X123772619Y-111577380D01*
X123629761Y-111529761D01*
X123534523Y-111434523D01*
X123486904Y-111339285D01*
X123439285Y-111148809D01*
X123439285Y-111005952D01*
X123486904Y-110815476D01*
X123534523Y-110720238D01*
X123629761Y-110625000D01*
X123772619Y-110577380D01*
X123867857Y-110577380D01*
X124010714Y-110625000D01*
X124058333Y-110672619D01*
X124629761Y-111005952D02*
X124534523Y-110958333D01*
X124486904Y-110910714D01*
X124439285Y-110815476D01*
X124439285Y-110767857D01*
X124486904Y-110672619D01*
X124534523Y-110625000D01*
X124629761Y-110577380D01*
X124820238Y-110577380D01*
X124915476Y-110625000D01*
X124963095Y-110672619D01*
X125010714Y-110767857D01*
X125010714Y-110815476D01*
X124963095Y-110910714D01*
X124915476Y-110958333D01*
X124820238Y-111005952D01*
X124629761Y-111005952D01*
X124534523Y-111053571D01*
X124486904Y-111101190D01*
X124439285Y-111196428D01*
X124439285Y-111386904D01*
X124486904Y-111482142D01*
X124534523Y-111529761D01*
X124629761Y-111577380D01*
X124820238Y-111577380D01*
X124915476Y-111529761D01*
X124963095Y-111482142D01*
X125010714Y-111386904D01*
X125010714Y-111196428D01*
X124963095Y-111101190D01*
X124915476Y-111053571D01*
X124820238Y-111005952D01*
%TO.C,D1*%
X146261904Y-116577380D02*
X146261904Y-115577380D01*
X146500000Y-115577380D01*
X146642857Y-115625000D01*
X146738095Y-115720238D01*
X146785714Y-115815476D01*
X146833333Y-116005952D01*
X146833333Y-116148809D01*
X146785714Y-116339285D01*
X146738095Y-116434523D01*
X146642857Y-116529761D01*
X146500000Y-116577380D01*
X146261904Y-116577380D01*
X147785714Y-116577380D02*
X147214285Y-116577380D01*
X147500000Y-116577380D02*
X147500000Y-115577380D01*
X147404761Y-115720238D01*
X147309523Y-115815476D01*
X147214285Y-115863095D01*
%TO.C,D2*%
X126636904Y-124152380D02*
X126636904Y-123152380D01*
X126875000Y-123152380D01*
X127017857Y-123200000D01*
X127113095Y-123295238D01*
X127160714Y-123390476D01*
X127208333Y-123580952D01*
X127208333Y-123723809D01*
X127160714Y-123914285D01*
X127113095Y-124009523D01*
X127017857Y-124104761D01*
X126875000Y-124152380D01*
X126636904Y-124152380D01*
X127589285Y-123247619D02*
X127636904Y-123200000D01*
X127732142Y-123152380D01*
X127970238Y-123152380D01*
X128065476Y-123200000D01*
X128113095Y-123247619D01*
X128160714Y-123342857D01*
X128160714Y-123438095D01*
X128113095Y-123580952D01*
X127541666Y-124152380D01*
X128160714Y-124152380D01*
%TO.C,D3*%
X146261904Y-122202380D02*
X146261904Y-121202380D01*
X146500000Y-121202380D01*
X146642857Y-121250000D01*
X146738095Y-121345238D01*
X146785714Y-121440476D01*
X146833333Y-121630952D01*
X146833333Y-121773809D01*
X146785714Y-121964285D01*
X146738095Y-122059523D01*
X146642857Y-122154761D01*
X146500000Y-122202380D01*
X146261904Y-122202380D01*
X147166666Y-121202380D02*
X147785714Y-121202380D01*
X147452380Y-121583333D01*
X147595238Y-121583333D01*
X147690476Y-121630952D01*
X147738095Y-121678571D01*
X147785714Y-121773809D01*
X147785714Y-122011904D01*
X147738095Y-122107142D01*
X147690476Y-122154761D01*
X147595238Y-122202380D01*
X147309523Y-122202380D01*
X147214285Y-122154761D01*
X147166666Y-122107142D01*
%TO.C,D4*%
X160461904Y-114952380D02*
X160461904Y-113952380D01*
X160700000Y-113952380D01*
X160842857Y-114000000D01*
X160938095Y-114095238D01*
X160985714Y-114190476D01*
X161033333Y-114380952D01*
X161033333Y-114523809D01*
X160985714Y-114714285D01*
X160938095Y-114809523D01*
X160842857Y-114904761D01*
X160700000Y-114952380D01*
X160461904Y-114952380D01*
X161890476Y-114285714D02*
X161890476Y-114952380D01*
X161652380Y-113904761D02*
X161414285Y-114619047D01*
X162033333Y-114619047D01*
%TO.C,D5*%
X160461904Y-94952380D02*
X160461904Y-93952380D01*
X160700000Y-93952380D01*
X160842857Y-94000000D01*
X160938095Y-94095238D01*
X160985714Y-94190476D01*
X161033333Y-94380952D01*
X161033333Y-94523809D01*
X160985714Y-94714285D01*
X160938095Y-94809523D01*
X160842857Y-94904761D01*
X160700000Y-94952380D01*
X160461904Y-94952380D01*
X161938095Y-93952380D02*
X161461904Y-93952380D01*
X161414285Y-94428571D01*
X161461904Y-94380952D01*
X161557142Y-94333333D01*
X161795238Y-94333333D01*
X161890476Y-94380952D01*
X161938095Y-94428571D01*
X161985714Y-94523809D01*
X161985714Y-94761904D01*
X161938095Y-94857142D01*
X161890476Y-94904761D01*
X161795238Y-94952380D01*
X161557142Y-94952380D01*
X161461904Y-94904761D01*
X161414285Y-94857142D01*
%TO.C,D6*%
X160461904Y-72252380D02*
X160461904Y-71252380D01*
X160700000Y-71252380D01*
X160842857Y-71300000D01*
X160938095Y-71395238D01*
X160985714Y-71490476D01*
X161033333Y-71680952D01*
X161033333Y-71823809D01*
X160985714Y-72014285D01*
X160938095Y-72109523D01*
X160842857Y-72204761D01*
X160700000Y-72252380D01*
X160461904Y-72252380D01*
X161890476Y-71252380D02*
X161700000Y-71252380D01*
X161604761Y-71300000D01*
X161557142Y-71347619D01*
X161461904Y-71490476D01*
X161414285Y-71680952D01*
X161414285Y-72061904D01*
X161461904Y-72157142D01*
X161509523Y-72204761D01*
X161604761Y-72252380D01*
X161795238Y-72252380D01*
X161890476Y-72204761D01*
X161938095Y-72157142D01*
X161985714Y-72061904D01*
X161985714Y-71823809D01*
X161938095Y-71728571D01*
X161890476Y-71680952D01*
X161795238Y-71633333D01*
X161604761Y-71633333D01*
X161509523Y-71680952D01*
X161461904Y-71728571D01*
X161414285Y-71823809D01*
%TO.C,D7*%
X160461904Y-104952380D02*
X160461904Y-103952380D01*
X160700000Y-103952380D01*
X160842857Y-104000000D01*
X160938095Y-104095238D01*
X160985714Y-104190476D01*
X161033333Y-104380952D01*
X161033333Y-104523809D01*
X160985714Y-104714285D01*
X160938095Y-104809523D01*
X160842857Y-104904761D01*
X160700000Y-104952380D01*
X160461904Y-104952380D01*
X161366666Y-103952380D02*
X162033333Y-103952380D01*
X161604761Y-104952380D01*
%TO.C,D8*%
X160461904Y-82252380D02*
X160461904Y-81252380D01*
X160700000Y-81252380D01*
X160842857Y-81300000D01*
X160938095Y-81395238D01*
X160985714Y-81490476D01*
X161033333Y-81680952D01*
X161033333Y-81823809D01*
X160985714Y-82014285D01*
X160938095Y-82109523D01*
X160842857Y-82204761D01*
X160700000Y-82252380D01*
X160461904Y-82252380D01*
X161604761Y-81680952D02*
X161509523Y-81633333D01*
X161461904Y-81585714D01*
X161414285Y-81490476D01*
X161414285Y-81442857D01*
X161461904Y-81347619D01*
X161509523Y-81300000D01*
X161604761Y-81252380D01*
X161795238Y-81252380D01*
X161890476Y-81300000D01*
X161938095Y-81347619D01*
X161985714Y-81442857D01*
X161985714Y-81490476D01*
X161938095Y-81585714D01*
X161890476Y-81633333D01*
X161795238Y-81680952D01*
X161604761Y-81680952D01*
X161509523Y-81728571D01*
X161461904Y-81776190D01*
X161414285Y-81871428D01*
X161414285Y-82061904D01*
X161461904Y-82157142D01*
X161509523Y-82204761D01*
X161604761Y-82252380D01*
X161795238Y-82252380D01*
X161890476Y-82204761D01*
X161938095Y-82157142D01*
X161985714Y-82061904D01*
X161985714Y-81871428D01*
X161938095Y-81776190D01*
X161890476Y-81728571D01*
X161795238Y-81680952D01*
%TO.C,J1*%
X179252380Y-109108333D02*
X179966666Y-109108333D01*
X180109523Y-109155952D01*
X180204761Y-109251190D01*
X180252380Y-109394047D01*
X180252380Y-109489285D01*
X180252380Y-108108333D02*
X180252380Y-108679761D01*
X180252380Y-108394047D02*
X179252380Y-108394047D01*
X179395238Y-108489285D01*
X179490476Y-108584523D01*
X179538095Y-108679761D01*
%TO.C,J2*%
X178752380Y-76383333D02*
X179466666Y-76383333D01*
X179609523Y-76430952D01*
X179704761Y-76526190D01*
X179752380Y-76669047D01*
X179752380Y-76764285D01*
X178847619Y-75954761D02*
X178800000Y-75907142D01*
X178752380Y-75811904D01*
X178752380Y-75573809D01*
X178800000Y-75478571D01*
X178847619Y-75430952D01*
X178942857Y-75383333D01*
X179038095Y-75383333D01*
X179180952Y-75430952D01*
X179752380Y-76002380D01*
X179752380Y-75383333D01*
%TO.C,J3*%
X91492380Y-108833333D02*
X92206666Y-108833333D01*
X92349523Y-108880952D01*
X92444761Y-108976190D01*
X92492380Y-109119047D01*
X92492380Y-109214285D01*
X91492380Y-108452380D02*
X91492380Y-107833333D01*
X91873333Y-108166666D01*
X91873333Y-108023809D01*
X91920952Y-107928571D01*
X91968571Y-107880952D01*
X92063809Y-107833333D01*
X92301904Y-107833333D01*
X92397142Y-107880952D01*
X92444761Y-107928571D01*
X92492380Y-108023809D01*
X92492380Y-108309523D01*
X92444761Y-108404761D01*
X92397142Y-108452380D01*
%TO.C,ICSP*%
X149652380Y-92651190D02*
X148652380Y-92651190D01*
X149557142Y-91603571D02*
X149604761Y-91651190D01*
X149652380Y-91794047D01*
X149652380Y-91889285D01*
X149604761Y-92032142D01*
X149509523Y-92127380D01*
X149414285Y-92175000D01*
X149223809Y-92222619D01*
X149080952Y-92222619D01*
X148890476Y-92175000D01*
X148795238Y-92127380D01*
X148700000Y-92032142D01*
X148652380Y-91889285D01*
X148652380Y-91794047D01*
X148700000Y-91651190D01*
X148747619Y-91603571D01*
X149604761Y-91222619D02*
X149652380Y-91079761D01*
X149652380Y-90841666D01*
X149604761Y-90746428D01*
X149557142Y-90698809D01*
X149461904Y-90651190D01*
X149366666Y-90651190D01*
X149271428Y-90698809D01*
X149223809Y-90746428D01*
X149176190Y-90841666D01*
X149128571Y-91032142D01*
X149080952Y-91127380D01*
X149033333Y-91175000D01*
X148938095Y-91222619D01*
X148842857Y-91222619D01*
X148747619Y-91175000D01*
X148700000Y-91127380D01*
X148652380Y-91032142D01*
X148652380Y-90794047D01*
X148700000Y-90651190D01*
X149652380Y-90222619D02*
X148652380Y-90222619D01*
X148652380Y-89841666D01*
X148700000Y-89746428D01*
X148747619Y-89698809D01*
X148842857Y-89651190D01*
X148985714Y-89651190D01*
X149080952Y-89698809D01*
X149128571Y-89746428D01*
X149176190Y-89841666D01*
X149176190Y-90222619D01*
%TO.C,J5*%
X105816666Y-92392380D02*
X105816666Y-93106666D01*
X105769047Y-93249523D01*
X105673809Y-93344761D01*
X105530952Y-93392380D01*
X105435714Y-93392380D01*
X106769047Y-92392380D02*
X106292857Y-92392380D01*
X106245238Y-92868571D01*
X106292857Y-92820952D01*
X106388095Y-92773333D01*
X106626190Y-92773333D01*
X106721428Y-92820952D01*
X106769047Y-92868571D01*
X106816666Y-92963809D01*
X106816666Y-93201904D01*
X106769047Y-93297142D01*
X106721428Y-93344761D01*
X106626190Y-93392380D01*
X106388095Y-93392380D01*
X106292857Y-93344761D01*
X106245238Y-93297142D01*
%TO.C,J6*%
X91492380Y-76133333D02*
X92206666Y-76133333D01*
X92349523Y-76180952D01*
X92444761Y-76276190D01*
X92492380Y-76419047D01*
X92492380Y-76514285D01*
X91492380Y-75228571D02*
X91492380Y-75419047D01*
X91540000Y-75514285D01*
X91587619Y-75561904D01*
X91730476Y-75657142D01*
X91920952Y-75704761D01*
X92301904Y-75704761D01*
X92397142Y-75657142D01*
X92444761Y-75609523D01*
X92492380Y-75514285D01*
X92492380Y-75323809D01*
X92444761Y-75228571D01*
X92397142Y-75180952D01*
X92301904Y-75133333D01*
X92063809Y-75133333D01*
X91968571Y-75180952D01*
X91920952Y-75228571D01*
X91873333Y-75323809D01*
X91873333Y-75514285D01*
X91920952Y-75609523D01*
X91968571Y-75657142D01*
X92063809Y-75704761D01*
%TO.C,L1*%
X134808333Y-120902380D02*
X134332142Y-120902380D01*
X134332142Y-119902380D01*
X135665476Y-120902380D02*
X135094047Y-120902380D01*
X135379761Y-120902380D02*
X135379761Y-119902380D01*
X135284523Y-120045238D01*
X135189285Y-120140476D01*
X135094047Y-120188095D01*
%TO.C,PS1*%
X140052380Y-95839285D02*
X139052380Y-95839285D01*
X139052380Y-95458333D01*
X139100000Y-95363095D01*
X139147619Y-95315476D01*
X139242857Y-95267857D01*
X139385714Y-95267857D01*
X139480952Y-95315476D01*
X139528571Y-95363095D01*
X139576190Y-95458333D01*
X139576190Y-95839285D01*
X140004761Y-94886904D02*
X140052380Y-94744047D01*
X140052380Y-94505952D01*
X140004761Y-94410714D01*
X139957142Y-94363095D01*
X139861904Y-94315476D01*
X139766666Y-94315476D01*
X139671428Y-94363095D01*
X139623809Y-94410714D01*
X139576190Y-94505952D01*
X139528571Y-94696428D01*
X139480952Y-94791666D01*
X139433333Y-94839285D01*
X139338095Y-94886904D01*
X139242857Y-94886904D01*
X139147619Y-94839285D01*
X139100000Y-94791666D01*
X139052380Y-94696428D01*
X139052380Y-94458333D01*
X139100000Y-94315476D01*
X140052380Y-93363095D02*
X140052380Y-93934523D01*
X140052380Y-93648809D02*
X139052380Y-93648809D01*
X139195238Y-93744047D01*
X139290476Y-93839285D01*
X139338095Y-93934523D01*
%TO.C,Q1*%
X165079761Y-103222619D02*
X164984523Y-103175000D01*
X164889285Y-103079761D01*
X164746428Y-102936904D01*
X164651190Y-102889285D01*
X164555952Y-102889285D01*
X164603571Y-103127380D02*
X164508333Y-103079761D01*
X164413095Y-102984523D01*
X164365476Y-102794047D01*
X164365476Y-102460714D01*
X164413095Y-102270238D01*
X164508333Y-102175000D01*
X164603571Y-102127380D01*
X164794047Y-102127380D01*
X164889285Y-102175000D01*
X164984523Y-102270238D01*
X165032142Y-102460714D01*
X165032142Y-102794047D01*
X164984523Y-102984523D01*
X164889285Y-103079761D01*
X164794047Y-103127380D01*
X164603571Y-103127380D01*
X165984523Y-103127380D02*
X165413095Y-103127380D01*
X165698809Y-103127380D02*
X165698809Y-102127380D01*
X165603571Y-102270238D01*
X165508333Y-102365476D01*
X165413095Y-102413095D01*
%TO.C,Q2*%
X165004761Y-123097619D02*
X164909523Y-123050000D01*
X164814285Y-122954761D01*
X164671428Y-122811904D01*
X164576190Y-122764285D01*
X164480952Y-122764285D01*
X164528571Y-123002380D02*
X164433333Y-122954761D01*
X164338095Y-122859523D01*
X164290476Y-122669047D01*
X164290476Y-122335714D01*
X164338095Y-122145238D01*
X164433333Y-122050000D01*
X164528571Y-122002380D01*
X164719047Y-122002380D01*
X164814285Y-122050000D01*
X164909523Y-122145238D01*
X164957142Y-122335714D01*
X164957142Y-122669047D01*
X164909523Y-122859523D01*
X164814285Y-122954761D01*
X164719047Y-123002380D01*
X164528571Y-123002380D01*
X165338095Y-122097619D02*
X165385714Y-122050000D01*
X165480952Y-122002380D01*
X165719047Y-122002380D01*
X165814285Y-122050000D01*
X165861904Y-122097619D01*
X165909523Y-122192857D01*
X165909523Y-122288095D01*
X165861904Y-122430952D01*
X165290476Y-123002380D01*
X165909523Y-123002380D01*
%TO.C,Q3*%
X165179761Y-113222619D02*
X165084523Y-113175000D01*
X164989285Y-113079761D01*
X164846428Y-112936904D01*
X164751190Y-112889285D01*
X164655952Y-112889285D01*
X164703571Y-113127380D02*
X164608333Y-113079761D01*
X164513095Y-112984523D01*
X164465476Y-112794047D01*
X164465476Y-112460714D01*
X164513095Y-112270238D01*
X164608333Y-112175000D01*
X164703571Y-112127380D01*
X164894047Y-112127380D01*
X164989285Y-112175000D01*
X165084523Y-112270238D01*
X165132142Y-112460714D01*
X165132142Y-112794047D01*
X165084523Y-112984523D01*
X164989285Y-113079761D01*
X164894047Y-113127380D01*
X164703571Y-113127380D01*
X165465476Y-112127380D02*
X166084523Y-112127380D01*
X165751190Y-112508333D01*
X165894047Y-112508333D01*
X165989285Y-112555952D01*
X166036904Y-112603571D01*
X166084523Y-112698809D01*
X166084523Y-112936904D01*
X166036904Y-113032142D01*
X165989285Y-113079761D01*
X165894047Y-113127380D01*
X165608333Y-113127380D01*
X165513095Y-113079761D01*
X165465476Y-113032142D01*
%TO.C,Q4*%
X164904761Y-90472619D02*
X164809523Y-90425000D01*
X164714285Y-90329761D01*
X164571428Y-90186904D01*
X164476190Y-90139285D01*
X164380952Y-90139285D01*
X164428571Y-90377380D02*
X164333333Y-90329761D01*
X164238095Y-90234523D01*
X164190476Y-90044047D01*
X164190476Y-89710714D01*
X164238095Y-89520238D01*
X164333333Y-89425000D01*
X164428571Y-89377380D01*
X164619047Y-89377380D01*
X164714285Y-89425000D01*
X164809523Y-89520238D01*
X164857142Y-89710714D01*
X164857142Y-90044047D01*
X164809523Y-90234523D01*
X164714285Y-90329761D01*
X164619047Y-90377380D01*
X164428571Y-90377380D01*
X165714285Y-89710714D02*
X165714285Y-90377380D01*
X165476190Y-89329761D02*
X165238095Y-90044047D01*
X165857142Y-90044047D01*
%TO.C,Q5*%
X164879761Y-80397619D02*
X164784523Y-80350000D01*
X164689285Y-80254761D01*
X164546428Y-80111904D01*
X164451190Y-80064285D01*
X164355952Y-80064285D01*
X164403571Y-80302380D02*
X164308333Y-80254761D01*
X164213095Y-80159523D01*
X164165476Y-79969047D01*
X164165476Y-79635714D01*
X164213095Y-79445238D01*
X164308333Y-79350000D01*
X164403571Y-79302380D01*
X164594047Y-79302380D01*
X164689285Y-79350000D01*
X164784523Y-79445238D01*
X164832142Y-79635714D01*
X164832142Y-79969047D01*
X164784523Y-80159523D01*
X164689285Y-80254761D01*
X164594047Y-80302380D01*
X164403571Y-80302380D01*
X165736904Y-79302380D02*
X165260714Y-79302380D01*
X165213095Y-79778571D01*
X165260714Y-79730952D01*
X165355952Y-79683333D01*
X165594047Y-79683333D01*
X165689285Y-79730952D01*
X165736904Y-79778571D01*
X165784523Y-79873809D01*
X165784523Y-80111904D01*
X165736904Y-80207142D01*
X165689285Y-80254761D01*
X165594047Y-80302380D01*
X165355952Y-80302380D01*
X165260714Y-80254761D01*
X165213095Y-80207142D01*
%TO.C,R1*%
X111058333Y-88577380D02*
X110725000Y-88101190D01*
X110486904Y-88577380D02*
X110486904Y-87577380D01*
X110867857Y-87577380D01*
X110963095Y-87625000D01*
X111010714Y-87672619D01*
X111058333Y-87767857D01*
X111058333Y-87910714D01*
X111010714Y-88005952D01*
X110963095Y-88053571D01*
X110867857Y-88101190D01*
X110486904Y-88101190D01*
X112010714Y-88577380D02*
X111439285Y-88577380D01*
X111725000Y-88577380D02*
X111725000Y-87577380D01*
X111629761Y-87720238D01*
X111534523Y-87815476D01*
X111439285Y-87863095D01*
%TO.C,R2*%
X128383333Y-88102380D02*
X128050000Y-87626190D01*
X127811904Y-88102380D02*
X127811904Y-87102380D01*
X128192857Y-87102380D01*
X128288095Y-87150000D01*
X128335714Y-87197619D01*
X128383333Y-87292857D01*
X128383333Y-87435714D01*
X128335714Y-87530952D01*
X128288095Y-87578571D01*
X128192857Y-87626190D01*
X127811904Y-87626190D01*
X128764285Y-87197619D02*
X128811904Y-87150000D01*
X128907142Y-87102380D01*
X129145238Y-87102380D01*
X129240476Y-87150000D01*
X129288095Y-87197619D01*
X129335714Y-87292857D01*
X129335714Y-87388095D01*
X129288095Y-87530952D01*
X128716666Y-88102380D01*
X129335714Y-88102380D01*
%TO.C,R3*%
X128383333Y-74002380D02*
X128050000Y-73526190D01*
X127811904Y-74002380D02*
X127811904Y-73002380D01*
X128192857Y-73002380D01*
X128288095Y-73050000D01*
X128335714Y-73097619D01*
X128383333Y-73192857D01*
X128383333Y-73335714D01*
X128335714Y-73430952D01*
X128288095Y-73478571D01*
X128192857Y-73526190D01*
X127811904Y-73526190D01*
X128716666Y-73002380D02*
X129335714Y-73002380D01*
X129002380Y-73383333D01*
X129145238Y-73383333D01*
X129240476Y-73430952D01*
X129288095Y-73478571D01*
X129335714Y-73573809D01*
X129335714Y-73811904D01*
X129288095Y-73907142D01*
X129240476Y-73954761D01*
X129145238Y-74002380D01*
X128859523Y-74002380D01*
X128764285Y-73954761D01*
X128716666Y-73907142D01*
%TO.C,R4*%
X115013333Y-88102380D02*
X114680000Y-87626190D01*
X114441904Y-88102380D02*
X114441904Y-87102380D01*
X114822857Y-87102380D01*
X114918095Y-87150000D01*
X114965714Y-87197619D01*
X115013333Y-87292857D01*
X115013333Y-87435714D01*
X114965714Y-87530952D01*
X114918095Y-87578571D01*
X114822857Y-87626190D01*
X114441904Y-87626190D01*
X115870476Y-87435714D02*
X115870476Y-88102380D01*
X115632380Y-87054761D02*
X115394285Y-87769047D01*
X116013333Y-87769047D01*
%TO.C,R5*%
X124508333Y-88102380D02*
X124175000Y-87626190D01*
X123936904Y-88102380D02*
X123936904Y-87102380D01*
X124317857Y-87102380D01*
X124413095Y-87150000D01*
X124460714Y-87197619D01*
X124508333Y-87292857D01*
X124508333Y-87435714D01*
X124460714Y-87530952D01*
X124413095Y-87578571D01*
X124317857Y-87626190D01*
X123936904Y-87626190D01*
X125413095Y-87102380D02*
X124936904Y-87102380D01*
X124889285Y-87578571D01*
X124936904Y-87530952D01*
X125032142Y-87483333D01*
X125270238Y-87483333D01*
X125365476Y-87530952D01*
X125413095Y-87578571D01*
X125460714Y-87673809D01*
X125460714Y-87911904D01*
X125413095Y-88007142D01*
X125365476Y-88054761D01*
X125270238Y-88102380D01*
X125032142Y-88102380D01*
X124936904Y-88054761D01*
X124889285Y-88007142D01*
%TO.C,R6*%
X124583333Y-73902380D02*
X124250000Y-73426190D01*
X124011904Y-73902380D02*
X124011904Y-72902380D01*
X124392857Y-72902380D01*
X124488095Y-72950000D01*
X124535714Y-72997619D01*
X124583333Y-73092857D01*
X124583333Y-73235714D01*
X124535714Y-73330952D01*
X124488095Y-73378571D01*
X124392857Y-73426190D01*
X124011904Y-73426190D01*
X125440476Y-72902380D02*
X125250000Y-72902380D01*
X125154761Y-72950000D01*
X125107142Y-72997619D01*
X125011904Y-73140476D01*
X124964285Y-73330952D01*
X124964285Y-73711904D01*
X125011904Y-73807142D01*
X125059523Y-73854761D01*
X125154761Y-73902380D01*
X125345238Y-73902380D01*
X125440476Y-73854761D01*
X125488095Y-73807142D01*
X125535714Y-73711904D01*
X125535714Y-73473809D01*
X125488095Y-73378571D01*
X125440476Y-73330952D01*
X125345238Y-73283333D01*
X125154761Y-73283333D01*
X125059523Y-73330952D01*
X125011904Y-73378571D01*
X124964285Y-73473809D01*
%TO.C,R7*%
X109522380Y-69751666D02*
X109046190Y-70085000D01*
X109522380Y-70323095D02*
X108522380Y-70323095D01*
X108522380Y-69942142D01*
X108570000Y-69846904D01*
X108617619Y-69799285D01*
X108712857Y-69751666D01*
X108855714Y-69751666D01*
X108950952Y-69799285D01*
X108998571Y-69846904D01*
X109046190Y-69942142D01*
X109046190Y-70323095D01*
X108522380Y-69418333D02*
X108522380Y-68751666D01*
X109522380Y-69180238D01*
%TO.C,R8*%
X104202380Y-69741666D02*
X103726190Y-70075000D01*
X104202380Y-70313095D02*
X103202380Y-70313095D01*
X103202380Y-69932142D01*
X103250000Y-69836904D01*
X103297619Y-69789285D01*
X103392857Y-69741666D01*
X103535714Y-69741666D01*
X103630952Y-69789285D01*
X103678571Y-69836904D01*
X103726190Y-69932142D01*
X103726190Y-70313095D01*
X103630952Y-69170238D02*
X103583333Y-69265476D01*
X103535714Y-69313095D01*
X103440476Y-69360714D01*
X103392857Y-69360714D01*
X103297619Y-69313095D01*
X103250000Y-69265476D01*
X103202380Y-69170238D01*
X103202380Y-68979761D01*
X103250000Y-68884523D01*
X103297619Y-68836904D01*
X103392857Y-68789285D01*
X103440476Y-68789285D01*
X103535714Y-68836904D01*
X103583333Y-68884523D01*
X103630952Y-68979761D01*
X103630952Y-69170238D01*
X103678571Y-69265476D01*
X103726190Y-69313095D01*
X103821428Y-69360714D01*
X104011904Y-69360714D01*
X104107142Y-69313095D01*
X104154761Y-69265476D01*
X104202380Y-69170238D01*
X104202380Y-68979761D01*
X104154761Y-68884523D01*
X104107142Y-68836904D01*
X104011904Y-68789285D01*
X103821428Y-68789285D01*
X103726190Y-68836904D01*
X103678571Y-68884523D01*
X103630952Y-68979761D01*
%TO.C,R9*%
X104127380Y-72591666D02*
X103651190Y-72925000D01*
X104127380Y-73163095D02*
X103127380Y-73163095D01*
X103127380Y-72782142D01*
X103175000Y-72686904D01*
X103222619Y-72639285D01*
X103317857Y-72591666D01*
X103460714Y-72591666D01*
X103555952Y-72639285D01*
X103603571Y-72686904D01*
X103651190Y-72782142D01*
X103651190Y-73163095D01*
X104127380Y-72115476D02*
X104127380Y-71925000D01*
X104079761Y-71829761D01*
X104032142Y-71782142D01*
X103889285Y-71686904D01*
X103698809Y-71639285D01*
X103317857Y-71639285D01*
X103222619Y-71686904D01*
X103175000Y-71734523D01*
X103127380Y-71829761D01*
X103127380Y-72020238D01*
X103175000Y-72115476D01*
X103222619Y-72163095D01*
X103317857Y-72210714D01*
X103555952Y-72210714D01*
X103651190Y-72163095D01*
X103698809Y-72115476D01*
X103746428Y-72020238D01*
X103746428Y-71829761D01*
X103698809Y-71734523D01*
X103651190Y-71686904D01*
X103555952Y-71639285D01*
%TO.C,R10*%
X142282142Y-116577380D02*
X141948809Y-116101190D01*
X141710714Y-116577380D02*
X141710714Y-115577380D01*
X142091666Y-115577380D01*
X142186904Y-115625000D01*
X142234523Y-115672619D01*
X142282142Y-115767857D01*
X142282142Y-115910714D01*
X142234523Y-116005952D01*
X142186904Y-116053571D01*
X142091666Y-116101190D01*
X141710714Y-116101190D01*
X143234523Y-116577380D02*
X142663095Y-116577380D01*
X142948809Y-116577380D02*
X142948809Y-115577380D01*
X142853571Y-115720238D01*
X142758333Y-115815476D01*
X142663095Y-115863095D01*
X143853571Y-115577380D02*
X143948809Y-115577380D01*
X144044047Y-115625000D01*
X144091666Y-115672619D01*
X144139285Y-115767857D01*
X144186904Y-115958333D01*
X144186904Y-116196428D01*
X144139285Y-116386904D01*
X144091666Y-116482142D01*
X144044047Y-116529761D01*
X143948809Y-116577380D01*
X143853571Y-116577380D01*
X143758333Y-116529761D01*
X143710714Y-116482142D01*
X143663095Y-116386904D01*
X143615476Y-116196428D01*
X143615476Y-115958333D01*
X143663095Y-115767857D01*
X143710714Y-115672619D01*
X143758333Y-115625000D01*
X143853571Y-115577380D01*
%TO.C,R11*%
X147782142Y-86052380D02*
X147448809Y-85576190D01*
X147210714Y-86052380D02*
X147210714Y-85052380D01*
X147591666Y-85052380D01*
X147686904Y-85100000D01*
X147734523Y-85147619D01*
X147782142Y-85242857D01*
X147782142Y-85385714D01*
X147734523Y-85480952D01*
X147686904Y-85528571D01*
X147591666Y-85576190D01*
X147210714Y-85576190D01*
X148734523Y-86052380D02*
X148163095Y-86052380D01*
X148448809Y-86052380D02*
X148448809Y-85052380D01*
X148353571Y-85195238D01*
X148258333Y-85290476D01*
X148163095Y-85338095D01*
X149686904Y-86052380D02*
X149115476Y-86052380D01*
X149401190Y-86052380D02*
X149401190Y-85052380D01*
X149305952Y-85195238D01*
X149210714Y-85290476D01*
X149115476Y-85338095D01*
%TO.C,R12*%
X152332142Y-99352380D02*
X151998809Y-98876190D01*
X151760714Y-99352380D02*
X151760714Y-98352380D01*
X152141666Y-98352380D01*
X152236904Y-98400000D01*
X152284523Y-98447619D01*
X152332142Y-98542857D01*
X152332142Y-98685714D01*
X152284523Y-98780952D01*
X152236904Y-98828571D01*
X152141666Y-98876190D01*
X151760714Y-98876190D01*
X153284523Y-99352380D02*
X152713095Y-99352380D01*
X152998809Y-99352380D02*
X152998809Y-98352380D01*
X152903571Y-98495238D01*
X152808333Y-98590476D01*
X152713095Y-98638095D01*
X153665476Y-98447619D02*
X153713095Y-98400000D01*
X153808333Y-98352380D01*
X154046428Y-98352380D01*
X154141666Y-98400000D01*
X154189285Y-98447619D01*
X154236904Y-98542857D01*
X154236904Y-98638095D01*
X154189285Y-98780952D01*
X153617857Y-99352380D01*
X154236904Y-99352380D01*
%TO.C,R13*%
X152332142Y-93702380D02*
X151998809Y-93226190D01*
X151760714Y-93702380D02*
X151760714Y-92702380D01*
X152141666Y-92702380D01*
X152236904Y-92750000D01*
X152284523Y-92797619D01*
X152332142Y-92892857D01*
X152332142Y-93035714D01*
X152284523Y-93130952D01*
X152236904Y-93178571D01*
X152141666Y-93226190D01*
X151760714Y-93226190D01*
X153284523Y-93702380D02*
X152713095Y-93702380D01*
X152998809Y-93702380D02*
X152998809Y-92702380D01*
X152903571Y-92845238D01*
X152808333Y-92940476D01*
X152713095Y-92988095D01*
X153617857Y-92702380D02*
X154236904Y-92702380D01*
X153903571Y-93083333D01*
X154046428Y-93083333D01*
X154141666Y-93130952D01*
X154189285Y-93178571D01*
X154236904Y-93273809D01*
X154236904Y-93511904D01*
X154189285Y-93607142D01*
X154141666Y-93654761D01*
X154046428Y-93702380D01*
X153760714Y-93702380D01*
X153665476Y-93654761D01*
X153617857Y-93607142D01*
%TO.C,R14*%
X152332142Y-119277380D02*
X151998809Y-118801190D01*
X151760714Y-119277380D02*
X151760714Y-118277380D01*
X152141666Y-118277380D01*
X152236904Y-118325000D01*
X152284523Y-118372619D01*
X152332142Y-118467857D01*
X152332142Y-118610714D01*
X152284523Y-118705952D01*
X152236904Y-118753571D01*
X152141666Y-118801190D01*
X151760714Y-118801190D01*
X153284523Y-119277380D02*
X152713095Y-119277380D01*
X152998809Y-119277380D02*
X152998809Y-118277380D01*
X152903571Y-118420238D01*
X152808333Y-118515476D01*
X152713095Y-118563095D01*
X154141666Y-118610714D02*
X154141666Y-119277380D01*
X153903571Y-118229761D02*
X153665476Y-118944047D01*
X154284523Y-118944047D01*
%TO.C,R15*%
X152332142Y-113727380D02*
X151998809Y-113251190D01*
X151760714Y-113727380D02*
X151760714Y-112727380D01*
X152141666Y-112727380D01*
X152236904Y-112775000D01*
X152284523Y-112822619D01*
X152332142Y-112917857D01*
X152332142Y-113060714D01*
X152284523Y-113155952D01*
X152236904Y-113203571D01*
X152141666Y-113251190D01*
X151760714Y-113251190D01*
X153284523Y-113727380D02*
X152713095Y-113727380D01*
X152998809Y-113727380D02*
X152998809Y-112727380D01*
X152903571Y-112870238D01*
X152808333Y-112965476D01*
X152713095Y-113013095D01*
X154189285Y-112727380D02*
X153713095Y-112727380D01*
X153665476Y-113203571D01*
X153713095Y-113155952D01*
X153808333Y-113108333D01*
X154046428Y-113108333D01*
X154141666Y-113155952D01*
X154189285Y-113203571D01*
X154236904Y-113298809D01*
X154236904Y-113536904D01*
X154189285Y-113632142D01*
X154141666Y-113679761D01*
X154046428Y-113727380D01*
X153808333Y-113727380D01*
X153713095Y-113679761D01*
X153665476Y-113632142D01*
%TO.C,R16*%
X152332142Y-109227380D02*
X151998809Y-108751190D01*
X151760714Y-109227380D02*
X151760714Y-108227380D01*
X152141666Y-108227380D01*
X152236904Y-108275000D01*
X152284523Y-108322619D01*
X152332142Y-108417857D01*
X152332142Y-108560714D01*
X152284523Y-108655952D01*
X152236904Y-108703571D01*
X152141666Y-108751190D01*
X151760714Y-108751190D01*
X153284523Y-109227380D02*
X152713095Y-109227380D01*
X152998809Y-109227380D02*
X152998809Y-108227380D01*
X152903571Y-108370238D01*
X152808333Y-108465476D01*
X152713095Y-108513095D01*
X154141666Y-108227380D02*
X153951190Y-108227380D01*
X153855952Y-108275000D01*
X153808333Y-108322619D01*
X153713095Y-108465476D01*
X153665476Y-108655952D01*
X153665476Y-109036904D01*
X153713095Y-109132142D01*
X153760714Y-109179761D01*
X153855952Y-109227380D01*
X154046428Y-109227380D01*
X154141666Y-109179761D01*
X154189285Y-109132142D01*
X154236904Y-109036904D01*
X154236904Y-108798809D01*
X154189285Y-108703571D01*
X154141666Y-108655952D01*
X154046428Y-108608333D01*
X153855952Y-108608333D01*
X153760714Y-108655952D01*
X153713095Y-108703571D01*
X153665476Y-108798809D01*
%TO.C,R17*%
X152332142Y-103652380D02*
X151998809Y-103176190D01*
X151760714Y-103652380D02*
X151760714Y-102652380D01*
X152141666Y-102652380D01*
X152236904Y-102700000D01*
X152284523Y-102747619D01*
X152332142Y-102842857D01*
X152332142Y-102985714D01*
X152284523Y-103080952D01*
X152236904Y-103128571D01*
X152141666Y-103176190D01*
X151760714Y-103176190D01*
X153284523Y-103652380D02*
X152713095Y-103652380D01*
X152998809Y-103652380D02*
X152998809Y-102652380D01*
X152903571Y-102795238D01*
X152808333Y-102890476D01*
X152713095Y-102938095D01*
X153617857Y-102652380D02*
X154284523Y-102652380D01*
X153855952Y-103652380D01*
%TO.C,R18*%
X152332142Y-86627380D02*
X151998809Y-86151190D01*
X151760714Y-86627380D02*
X151760714Y-85627380D01*
X152141666Y-85627380D01*
X152236904Y-85675000D01*
X152284523Y-85722619D01*
X152332142Y-85817857D01*
X152332142Y-85960714D01*
X152284523Y-86055952D01*
X152236904Y-86103571D01*
X152141666Y-86151190D01*
X151760714Y-86151190D01*
X153284523Y-86627380D02*
X152713095Y-86627380D01*
X152998809Y-86627380D02*
X152998809Y-85627380D01*
X152903571Y-85770238D01*
X152808333Y-85865476D01*
X152713095Y-85913095D01*
X153855952Y-86055952D02*
X153760714Y-86008333D01*
X153713095Y-85960714D01*
X153665476Y-85865476D01*
X153665476Y-85817857D01*
X153713095Y-85722619D01*
X153760714Y-85675000D01*
X153855952Y-85627380D01*
X154046428Y-85627380D01*
X154141666Y-85675000D01*
X154189285Y-85722619D01*
X154236904Y-85817857D01*
X154236904Y-85865476D01*
X154189285Y-85960714D01*
X154141666Y-86008333D01*
X154046428Y-86055952D01*
X153855952Y-86055952D01*
X153760714Y-86103571D01*
X153713095Y-86151190D01*
X153665476Y-86246428D01*
X153665476Y-86436904D01*
X153713095Y-86532142D01*
X153760714Y-86579761D01*
X153855952Y-86627380D01*
X154046428Y-86627380D01*
X154141666Y-86579761D01*
X154189285Y-86532142D01*
X154236904Y-86436904D01*
X154236904Y-86246428D01*
X154189285Y-86151190D01*
X154141666Y-86103571D01*
X154046428Y-86055952D01*
%TO.C,R19*%
X152332142Y-80852380D02*
X151998809Y-80376190D01*
X151760714Y-80852380D02*
X151760714Y-79852380D01*
X152141666Y-79852380D01*
X152236904Y-79900000D01*
X152284523Y-79947619D01*
X152332142Y-80042857D01*
X152332142Y-80185714D01*
X152284523Y-80280952D01*
X152236904Y-80328571D01*
X152141666Y-80376190D01*
X151760714Y-80376190D01*
X153284523Y-80852380D02*
X152713095Y-80852380D01*
X152998809Y-80852380D02*
X152998809Y-79852380D01*
X152903571Y-79995238D01*
X152808333Y-80090476D01*
X152713095Y-80138095D01*
X153760714Y-80852380D02*
X153951190Y-80852380D01*
X154046428Y-80804761D01*
X154094047Y-80757142D01*
X154189285Y-80614285D01*
X154236904Y-80423809D01*
X154236904Y-80042857D01*
X154189285Y-79947619D01*
X154141666Y-79900000D01*
X154046428Y-79852380D01*
X153855952Y-79852380D01*
X153760714Y-79900000D01*
X153713095Y-79947619D01*
X153665476Y-80042857D01*
X153665476Y-80280952D01*
X153713095Y-80376190D01*
X153760714Y-80423809D01*
X153855952Y-80471428D01*
X154046428Y-80471428D01*
X154141666Y-80423809D01*
X154189285Y-80376190D01*
X154236904Y-80280952D01*
%TO.C,R20*%
X142282142Y-122152380D02*
X141948809Y-121676190D01*
X141710714Y-122152380D02*
X141710714Y-121152380D01*
X142091666Y-121152380D01*
X142186904Y-121200000D01*
X142234523Y-121247619D01*
X142282142Y-121342857D01*
X142282142Y-121485714D01*
X142234523Y-121580952D01*
X142186904Y-121628571D01*
X142091666Y-121676190D01*
X141710714Y-121676190D01*
X142663095Y-121247619D02*
X142710714Y-121200000D01*
X142805952Y-121152380D01*
X143044047Y-121152380D01*
X143139285Y-121200000D01*
X143186904Y-121247619D01*
X143234523Y-121342857D01*
X143234523Y-121438095D01*
X143186904Y-121580952D01*
X142615476Y-122152380D01*
X143234523Y-122152380D01*
X143853571Y-121152380D02*
X143948809Y-121152380D01*
X144044047Y-121200000D01*
X144091666Y-121247619D01*
X144139285Y-121342857D01*
X144186904Y-121533333D01*
X144186904Y-121771428D01*
X144139285Y-121961904D01*
X144091666Y-122057142D01*
X144044047Y-122104761D01*
X143948809Y-122152380D01*
X143853571Y-122152380D01*
X143758333Y-122104761D01*
X143710714Y-122057142D01*
X143663095Y-121961904D01*
X143615476Y-121771428D01*
X143615476Y-121533333D01*
X143663095Y-121342857D01*
X143710714Y-121247619D01*
X143758333Y-121200000D01*
X143853571Y-121152380D01*
%TO.C,R21*%
X157382142Y-124177380D02*
X157048809Y-123701190D01*
X156810714Y-124177380D02*
X156810714Y-123177380D01*
X157191666Y-123177380D01*
X157286904Y-123225000D01*
X157334523Y-123272619D01*
X157382142Y-123367857D01*
X157382142Y-123510714D01*
X157334523Y-123605952D01*
X157286904Y-123653571D01*
X157191666Y-123701190D01*
X156810714Y-123701190D01*
X157763095Y-123272619D02*
X157810714Y-123225000D01*
X157905952Y-123177380D01*
X158144047Y-123177380D01*
X158239285Y-123225000D01*
X158286904Y-123272619D01*
X158334523Y-123367857D01*
X158334523Y-123463095D01*
X158286904Y-123605952D01*
X157715476Y-124177380D01*
X158334523Y-124177380D01*
X159286904Y-124177380D02*
X158715476Y-124177380D01*
X159001190Y-124177380D02*
X159001190Y-123177380D01*
X158905952Y-123320238D01*
X158810714Y-123415476D01*
X158715476Y-123463095D01*
%TO.C,R22*%
X157307142Y-104127380D02*
X156973809Y-103651190D01*
X156735714Y-104127380D02*
X156735714Y-103127380D01*
X157116666Y-103127380D01*
X157211904Y-103175000D01*
X157259523Y-103222619D01*
X157307142Y-103317857D01*
X157307142Y-103460714D01*
X157259523Y-103555952D01*
X157211904Y-103603571D01*
X157116666Y-103651190D01*
X156735714Y-103651190D01*
X157688095Y-103222619D02*
X157735714Y-103175000D01*
X157830952Y-103127380D01*
X158069047Y-103127380D01*
X158164285Y-103175000D01*
X158211904Y-103222619D01*
X158259523Y-103317857D01*
X158259523Y-103413095D01*
X158211904Y-103555952D01*
X157640476Y-104127380D01*
X158259523Y-104127380D01*
X158640476Y-103222619D02*
X158688095Y-103175000D01*
X158783333Y-103127380D01*
X159021428Y-103127380D01*
X159116666Y-103175000D01*
X159164285Y-103222619D01*
X159211904Y-103317857D01*
X159211904Y-103413095D01*
X159164285Y-103555952D01*
X158592857Y-104127380D01*
X159211904Y-104127380D01*
%TO.C,R23*%
X157332142Y-81527380D02*
X156998809Y-81051190D01*
X156760714Y-81527380D02*
X156760714Y-80527380D01*
X157141666Y-80527380D01*
X157236904Y-80575000D01*
X157284523Y-80622619D01*
X157332142Y-80717857D01*
X157332142Y-80860714D01*
X157284523Y-80955952D01*
X157236904Y-81003571D01*
X157141666Y-81051190D01*
X156760714Y-81051190D01*
X157713095Y-80622619D02*
X157760714Y-80575000D01*
X157855952Y-80527380D01*
X158094047Y-80527380D01*
X158189285Y-80575000D01*
X158236904Y-80622619D01*
X158284523Y-80717857D01*
X158284523Y-80813095D01*
X158236904Y-80955952D01*
X157665476Y-81527380D01*
X158284523Y-81527380D01*
X158617857Y-80527380D02*
X159236904Y-80527380D01*
X158903571Y-80908333D01*
X159046428Y-80908333D01*
X159141666Y-80955952D01*
X159189285Y-81003571D01*
X159236904Y-81098809D01*
X159236904Y-81336904D01*
X159189285Y-81432142D01*
X159141666Y-81479761D01*
X159046428Y-81527380D01*
X158760714Y-81527380D01*
X158665476Y-81479761D01*
X158617857Y-81432142D01*
%TO.C,R24*%
X155877380Y-120267857D02*
X155401190Y-120601190D01*
X155877380Y-120839285D02*
X154877380Y-120839285D01*
X154877380Y-120458333D01*
X154925000Y-120363095D01*
X154972619Y-120315476D01*
X155067857Y-120267857D01*
X155210714Y-120267857D01*
X155305952Y-120315476D01*
X155353571Y-120363095D01*
X155401190Y-120458333D01*
X155401190Y-120839285D01*
X154972619Y-119886904D02*
X154925000Y-119839285D01*
X154877380Y-119744047D01*
X154877380Y-119505952D01*
X154925000Y-119410714D01*
X154972619Y-119363095D01*
X155067857Y-119315476D01*
X155163095Y-119315476D01*
X155305952Y-119363095D01*
X155877380Y-119934523D01*
X155877380Y-119315476D01*
X155210714Y-118458333D02*
X155877380Y-118458333D01*
X154829761Y-118696428D02*
X155544047Y-118934523D01*
X155544047Y-118315476D01*
%TO.C,R25*%
X155727380Y-100517857D02*
X155251190Y-100851190D01*
X155727380Y-101089285D02*
X154727380Y-101089285D01*
X154727380Y-100708333D01*
X154775000Y-100613095D01*
X154822619Y-100565476D01*
X154917857Y-100517857D01*
X155060714Y-100517857D01*
X155155952Y-100565476D01*
X155203571Y-100613095D01*
X155251190Y-100708333D01*
X155251190Y-101089285D01*
X154822619Y-100136904D02*
X154775000Y-100089285D01*
X154727380Y-99994047D01*
X154727380Y-99755952D01*
X154775000Y-99660714D01*
X154822619Y-99613095D01*
X154917857Y-99565476D01*
X155013095Y-99565476D01*
X155155952Y-99613095D01*
X155727380Y-100184523D01*
X155727380Y-99565476D01*
X154727380Y-98660714D02*
X154727380Y-99136904D01*
X155203571Y-99184523D01*
X155155952Y-99136904D01*
X155108333Y-99041666D01*
X155108333Y-98803571D01*
X155155952Y-98708333D01*
X155203571Y-98660714D01*
X155298809Y-98613095D01*
X155536904Y-98613095D01*
X155632142Y-98660714D01*
X155679761Y-98708333D01*
X155727380Y-98803571D01*
X155727380Y-99041666D01*
X155679761Y-99136904D01*
X155632142Y-99184523D01*
%TO.C,R26*%
X155927380Y-77967857D02*
X155451190Y-78301190D01*
X155927380Y-78539285D02*
X154927380Y-78539285D01*
X154927380Y-78158333D01*
X154975000Y-78063095D01*
X155022619Y-78015476D01*
X155117857Y-77967857D01*
X155260714Y-77967857D01*
X155355952Y-78015476D01*
X155403571Y-78063095D01*
X155451190Y-78158333D01*
X155451190Y-78539285D01*
X155022619Y-77586904D02*
X154975000Y-77539285D01*
X154927380Y-77444047D01*
X154927380Y-77205952D01*
X154975000Y-77110714D01*
X155022619Y-77063095D01*
X155117857Y-77015476D01*
X155213095Y-77015476D01*
X155355952Y-77063095D01*
X155927380Y-77634523D01*
X155927380Y-77015476D01*
X154927380Y-76158333D02*
X154927380Y-76348809D01*
X154975000Y-76444047D01*
X155022619Y-76491666D01*
X155165476Y-76586904D01*
X155355952Y-76634523D01*
X155736904Y-76634523D01*
X155832142Y-76586904D01*
X155879761Y-76539285D01*
X155927380Y-76444047D01*
X155927380Y-76253571D01*
X155879761Y-76158333D01*
X155832142Y-76110714D01*
X155736904Y-76063095D01*
X155498809Y-76063095D01*
X155403571Y-76110714D01*
X155355952Y-76158333D01*
X155308333Y-76253571D01*
X155308333Y-76444047D01*
X155355952Y-76539285D01*
X155403571Y-76586904D01*
X155498809Y-76634523D01*
%TO.C,R27*%
X152332142Y-76652380D02*
X151998809Y-76176190D01*
X151760714Y-76652380D02*
X151760714Y-75652380D01*
X152141666Y-75652380D01*
X152236904Y-75700000D01*
X152284523Y-75747619D01*
X152332142Y-75842857D01*
X152332142Y-75985714D01*
X152284523Y-76080952D01*
X152236904Y-76128571D01*
X152141666Y-76176190D01*
X151760714Y-76176190D01*
X152713095Y-75747619D02*
X152760714Y-75700000D01*
X152855952Y-75652380D01*
X153094047Y-75652380D01*
X153189285Y-75700000D01*
X153236904Y-75747619D01*
X153284523Y-75842857D01*
X153284523Y-75938095D01*
X153236904Y-76080952D01*
X152665476Y-76652380D01*
X153284523Y-76652380D01*
X153617857Y-75652380D02*
X154284523Y-75652380D01*
X153855952Y-76652380D01*
%TO.C,R28*%
X152332142Y-71027380D02*
X151998809Y-70551190D01*
X151760714Y-71027380D02*
X151760714Y-70027380D01*
X152141666Y-70027380D01*
X152236904Y-70075000D01*
X152284523Y-70122619D01*
X152332142Y-70217857D01*
X152332142Y-70360714D01*
X152284523Y-70455952D01*
X152236904Y-70503571D01*
X152141666Y-70551190D01*
X151760714Y-70551190D01*
X152713095Y-70122619D02*
X152760714Y-70075000D01*
X152855952Y-70027380D01*
X153094047Y-70027380D01*
X153189285Y-70075000D01*
X153236904Y-70122619D01*
X153284523Y-70217857D01*
X153284523Y-70313095D01*
X153236904Y-70455952D01*
X152665476Y-71027380D01*
X153284523Y-71027380D01*
X153855952Y-70455952D02*
X153760714Y-70408333D01*
X153713095Y-70360714D01*
X153665476Y-70265476D01*
X153665476Y-70217857D01*
X153713095Y-70122619D01*
X153760714Y-70075000D01*
X153855952Y-70027380D01*
X154046428Y-70027380D01*
X154141666Y-70075000D01*
X154189285Y-70122619D01*
X154236904Y-70217857D01*
X154236904Y-70265476D01*
X154189285Y-70360714D01*
X154141666Y-70408333D01*
X154046428Y-70455952D01*
X153855952Y-70455952D01*
X153760714Y-70503571D01*
X153713095Y-70551190D01*
X153665476Y-70646428D01*
X153665476Y-70836904D01*
X153713095Y-70932142D01*
X153760714Y-70979761D01*
X153855952Y-71027380D01*
X154046428Y-71027380D01*
X154141666Y-70979761D01*
X154189285Y-70932142D01*
X154236904Y-70836904D01*
X154236904Y-70646428D01*
X154189285Y-70551190D01*
X154141666Y-70503571D01*
X154046428Y-70455952D01*
%TO.C,R29*%
X157332142Y-114127380D02*
X156998809Y-113651190D01*
X156760714Y-114127380D02*
X156760714Y-113127380D01*
X157141666Y-113127380D01*
X157236904Y-113175000D01*
X157284523Y-113222619D01*
X157332142Y-113317857D01*
X157332142Y-113460714D01*
X157284523Y-113555952D01*
X157236904Y-113603571D01*
X157141666Y-113651190D01*
X156760714Y-113651190D01*
X157713095Y-113222619D02*
X157760714Y-113175000D01*
X157855952Y-113127380D01*
X158094047Y-113127380D01*
X158189285Y-113175000D01*
X158236904Y-113222619D01*
X158284523Y-113317857D01*
X158284523Y-113413095D01*
X158236904Y-113555952D01*
X157665476Y-114127380D01*
X158284523Y-114127380D01*
X158760714Y-114127380D02*
X158951190Y-114127380D01*
X159046428Y-114079761D01*
X159094047Y-114032142D01*
X159189285Y-113889285D01*
X159236904Y-113698809D01*
X159236904Y-113317857D01*
X159189285Y-113222619D01*
X159141666Y-113175000D01*
X159046428Y-113127380D01*
X158855952Y-113127380D01*
X158760714Y-113175000D01*
X158713095Y-113222619D01*
X158665476Y-113317857D01*
X158665476Y-113555952D01*
X158713095Y-113651190D01*
X158760714Y-113698809D01*
X158855952Y-113746428D01*
X159046428Y-113746428D01*
X159141666Y-113698809D01*
X159189285Y-113651190D01*
X159236904Y-113555952D01*
%TO.C,R30*%
X157332142Y-91452380D02*
X156998809Y-90976190D01*
X156760714Y-91452380D02*
X156760714Y-90452380D01*
X157141666Y-90452380D01*
X157236904Y-90500000D01*
X157284523Y-90547619D01*
X157332142Y-90642857D01*
X157332142Y-90785714D01*
X157284523Y-90880952D01*
X157236904Y-90928571D01*
X157141666Y-90976190D01*
X156760714Y-90976190D01*
X157665476Y-90452380D02*
X158284523Y-90452380D01*
X157951190Y-90833333D01*
X158094047Y-90833333D01*
X158189285Y-90880952D01*
X158236904Y-90928571D01*
X158284523Y-91023809D01*
X158284523Y-91261904D01*
X158236904Y-91357142D01*
X158189285Y-91404761D01*
X158094047Y-91452380D01*
X157808333Y-91452380D01*
X157713095Y-91404761D01*
X157665476Y-91357142D01*
X158903571Y-90452380D02*
X158998809Y-90452380D01*
X159094047Y-90500000D01*
X159141666Y-90547619D01*
X159189285Y-90642857D01*
X159236904Y-90833333D01*
X159236904Y-91071428D01*
X159189285Y-91261904D01*
X159141666Y-91357142D01*
X159094047Y-91404761D01*
X158998809Y-91452380D01*
X158903571Y-91452380D01*
X158808333Y-91404761D01*
X158760714Y-91357142D01*
X158713095Y-91261904D01*
X158665476Y-91071428D01*
X158665476Y-90833333D01*
X158713095Y-90642857D01*
X158760714Y-90547619D01*
X158808333Y-90500000D01*
X158903571Y-90452380D01*
%TO.C,R31*%
X155802380Y-110417857D02*
X155326190Y-110751190D01*
X155802380Y-110989285D02*
X154802380Y-110989285D01*
X154802380Y-110608333D01*
X154850000Y-110513095D01*
X154897619Y-110465476D01*
X154992857Y-110417857D01*
X155135714Y-110417857D01*
X155230952Y-110465476D01*
X155278571Y-110513095D01*
X155326190Y-110608333D01*
X155326190Y-110989285D01*
X154802380Y-110084523D02*
X154802380Y-109465476D01*
X155183333Y-109798809D01*
X155183333Y-109655952D01*
X155230952Y-109560714D01*
X155278571Y-109513095D01*
X155373809Y-109465476D01*
X155611904Y-109465476D01*
X155707142Y-109513095D01*
X155754761Y-109560714D01*
X155802380Y-109655952D01*
X155802380Y-109941666D01*
X155754761Y-110036904D01*
X155707142Y-110084523D01*
X155802380Y-108513095D02*
X155802380Y-109084523D01*
X155802380Y-108798809D02*
X154802380Y-108798809D01*
X154945238Y-108894047D01*
X155040476Y-108989285D01*
X155088095Y-109084523D01*
%TO.C,R32*%
X155952380Y-87742857D02*
X155476190Y-88076190D01*
X155952380Y-88314285D02*
X154952380Y-88314285D01*
X154952380Y-87933333D01*
X155000000Y-87838095D01*
X155047619Y-87790476D01*
X155142857Y-87742857D01*
X155285714Y-87742857D01*
X155380952Y-87790476D01*
X155428571Y-87838095D01*
X155476190Y-87933333D01*
X155476190Y-88314285D01*
X154952380Y-87409523D02*
X154952380Y-86790476D01*
X155333333Y-87123809D01*
X155333333Y-86980952D01*
X155380952Y-86885714D01*
X155428571Y-86838095D01*
X155523809Y-86790476D01*
X155761904Y-86790476D01*
X155857142Y-86838095D01*
X155904761Y-86885714D01*
X155952380Y-86980952D01*
X155952380Y-87266666D01*
X155904761Y-87361904D01*
X155857142Y-87409523D01*
X155047619Y-86409523D02*
X155000000Y-86361904D01*
X154952380Y-86266666D01*
X154952380Y-86028571D01*
X155000000Y-85933333D01*
X155047619Y-85885714D01*
X155142857Y-85838095D01*
X155238095Y-85838095D01*
X155380952Y-85885714D01*
X155952380Y-86457142D01*
X155952380Y-85838095D01*
%TO.C,Reset*%
X142852380Y-79538095D02*
X142376190Y-79871428D01*
X142852380Y-80109523D02*
X141852380Y-80109523D01*
X141852380Y-79728571D01*
X141900000Y-79633333D01*
X141947619Y-79585714D01*
X142042857Y-79538095D01*
X142185714Y-79538095D01*
X142280952Y-79585714D01*
X142328571Y-79633333D01*
X142376190Y-79728571D01*
X142376190Y-80109523D01*
X142804761Y-78728571D02*
X142852380Y-78823809D01*
X142852380Y-79014285D01*
X142804761Y-79109523D01*
X142709523Y-79157142D01*
X142328571Y-79157142D01*
X142233333Y-79109523D01*
X142185714Y-79014285D01*
X142185714Y-78823809D01*
X142233333Y-78728571D01*
X142328571Y-78680952D01*
X142423809Y-78680952D01*
X142519047Y-79157142D01*
X142804761Y-78300000D02*
X142852380Y-78204761D01*
X142852380Y-78014285D01*
X142804761Y-77919047D01*
X142709523Y-77871428D01*
X142661904Y-77871428D01*
X142566666Y-77919047D01*
X142519047Y-78014285D01*
X142519047Y-78157142D01*
X142471428Y-78252380D01*
X142376190Y-78300000D01*
X142328571Y-78300000D01*
X142233333Y-78252380D01*
X142185714Y-78157142D01*
X142185714Y-78014285D01*
X142233333Y-77919047D01*
X142804761Y-77061904D02*
X142852380Y-77157142D01*
X142852380Y-77347619D01*
X142804761Y-77442857D01*
X142709523Y-77490476D01*
X142328571Y-77490476D01*
X142233333Y-77442857D01*
X142185714Y-77347619D01*
X142185714Y-77157142D01*
X142233333Y-77061904D01*
X142328571Y-77014285D01*
X142423809Y-77014285D01*
X142519047Y-77490476D01*
X142185714Y-76728571D02*
X142185714Y-76347619D01*
X141852380Y-76585714D02*
X142709523Y-76585714D01*
X142804761Y-76538095D01*
X142852380Y-76442857D01*
X142852380Y-76347619D01*
%TO.C,U1*%
X110143095Y-72712380D02*
X110143095Y-73521904D01*
X110190714Y-73617142D01*
X110238333Y-73664761D01*
X110333571Y-73712380D01*
X110524047Y-73712380D01*
X110619285Y-73664761D01*
X110666904Y-73617142D01*
X110714523Y-73521904D01*
X110714523Y-72712380D01*
X111714523Y-73712380D02*
X111143095Y-73712380D01*
X111428809Y-73712380D02*
X111428809Y-72712380D01*
X111333571Y-72855238D01*
X111238333Y-72950476D01*
X111143095Y-72998095D01*
%TO.C,U2*%
X130702380Y-81311904D02*
X131511904Y-81311904D01*
X131607142Y-81264285D01*
X131654761Y-81216666D01*
X131702380Y-81121428D01*
X131702380Y-80930952D01*
X131654761Y-80835714D01*
X131607142Y-80788095D01*
X131511904Y-80740476D01*
X130702380Y-80740476D01*
X130797619Y-80311904D02*
X130750000Y-80264285D01*
X130702380Y-80169047D01*
X130702380Y-79930952D01*
X130750000Y-79835714D01*
X130797619Y-79788095D01*
X130892857Y-79740476D01*
X130988095Y-79740476D01*
X131130952Y-79788095D01*
X131702380Y-80359523D01*
X131702380Y-79740476D01*
%TO.C,U3*%
X130802380Y-66286904D02*
X131611904Y-66286904D01*
X131707142Y-66239285D01*
X131754761Y-66191666D01*
X131802380Y-66096428D01*
X131802380Y-65905952D01*
X131754761Y-65810714D01*
X131707142Y-65763095D01*
X131611904Y-65715476D01*
X130802380Y-65715476D01*
X130802380Y-65334523D02*
X130802380Y-64715476D01*
X131183333Y-65048809D01*
X131183333Y-64905952D01*
X131230952Y-64810714D01*
X131278571Y-64763095D01*
X131373809Y-64715476D01*
X131611904Y-64715476D01*
X131707142Y-64763095D01*
X131754761Y-64810714D01*
X131802380Y-64905952D01*
X131802380Y-65191666D01*
X131754761Y-65286904D01*
X131707142Y-65334523D01*
%TO.C,U4*%
X108663095Y-67337380D02*
X108663095Y-68146904D01*
X108710714Y-68242142D01*
X108758333Y-68289761D01*
X108853571Y-68337380D01*
X109044047Y-68337380D01*
X109139285Y-68289761D01*
X109186904Y-68242142D01*
X109234523Y-68146904D01*
X109234523Y-67337380D01*
X110139285Y-67670714D02*
X110139285Y-68337380D01*
X109901190Y-67289761D02*
X109663095Y-68004047D01*
X110282142Y-68004047D01*
%TO.C,U5*%
X139574026Y-104101522D02*
X140146446Y-104673942D01*
X140247461Y-104707614D01*
X140314805Y-104707614D01*
X140415820Y-104673942D01*
X140550507Y-104539255D01*
X140584179Y-104438240D01*
X140584179Y-104370896D01*
X140550507Y-104269881D01*
X139978087Y-103697461D01*
X140651522Y-103024026D02*
X140314805Y-103360744D01*
X140617851Y-103731133D01*
X140617851Y-103663790D01*
X140651522Y-103562774D01*
X140819881Y-103394416D01*
X140920896Y-103360744D01*
X140988240Y-103360744D01*
X141089255Y-103394416D01*
X141257614Y-103562774D01*
X141291286Y-103663790D01*
X141291286Y-103731133D01*
X141257614Y-103832148D01*
X141089255Y-104000507D01*
X140988240Y-104034179D01*
X140920896Y-104034179D01*
%TO.C,U6*%
X112563095Y-123202380D02*
X112563095Y-124011904D01*
X112610714Y-124107142D01*
X112658333Y-124154761D01*
X112753571Y-124202380D01*
X112944047Y-124202380D01*
X113039285Y-124154761D01*
X113086904Y-124107142D01*
X113134523Y-124011904D01*
X113134523Y-123202380D01*
X114039285Y-123202380D02*
X113848809Y-123202380D01*
X113753571Y-123250000D01*
X113705952Y-123297619D01*
X113610714Y-123440476D01*
X113563095Y-123630952D01*
X113563095Y-124011904D01*
X113610714Y-124107142D01*
X113658333Y-124154761D01*
X113753571Y-124202380D01*
X113944047Y-124202380D01*
X114039285Y-124154761D01*
X114086904Y-124107142D01*
X114134523Y-124011904D01*
X114134523Y-123773809D01*
X114086904Y-123678571D01*
X114039285Y-123630952D01*
X113944047Y-123583333D01*
X113753571Y-123583333D01*
X113658333Y-123630952D01*
X113610714Y-123678571D01*
X113563095Y-123773809D01*
%TO.C,Y1*%
X125226190Y-101476190D02*
X125702380Y-101476190D01*
X124702380Y-101809523D02*
X125226190Y-101476190D01*
X124702380Y-101142857D01*
X125702380Y-100285714D02*
X125702380Y-100857142D01*
X125702380Y-100571428D02*
X124702380Y-100571428D01*
X124845238Y-100666666D01*
X124940476Y-100761904D01*
X124988095Y-100857142D01*
%TD*%
M02*
